<?xml version="1.0" encoding="utf-8"?>
<mlt profile="hdv_720_25p" version="7.4.0">
<producer id="original_video">
    <property name="resource">input_video.mp4</property>
    <property name="mlt_service">avformat</property>
    <property name="seekable">1</property>
</producer>
  <chain id="chain1" out="00:02:06.160">
    <property name="length">00:02:06.200</property>
    <property name="eof">pause</property>
    <property name="resource">input_video.mp4</property>
    <property name="mlt_service">avformat-novalidate</property>
    <property name="seekable">1</property>
    <property name="audio_index">1</property>
    <property name="video_index">0</property>
    <property name="mute_on_pause">0</property>
    <property name="creation_time">2024-09-09T14:43:19</property>
    <property name="xml">was here</property>
    <property name="shotcut:hash">d71a189804d4a84216cfb14039e61fc8</property>
    <property name="shotcut:caption">input_video.mp4</property>
  </chain>
<playlist id="playlist0">
    <entry producer="chain1" in="0:00:00.040" out="0:00:00.083"/>
    <entry producer="chain1" in="0:00:00.086" out="0:00:00.092"/>
    <entry producer="chain1" in="0:00:00.095" out="0:00:00.104"/>
    <entry producer="chain1" in="0:00:00.111" out="0:00:00.158"/>
    <entry producer="chain1" in="0:00:00.165" out="0:00:00.176"/>
    <entry producer="chain1" in="0:00:00.183" out="0:00:00.235"/>
    <entry producer="chain1" in="0:00:00.240" out="0:00:00.251"/>
    <entry producer="chain1" in="0:00:00.258" out="0:00:00.303"/>
    <entry producer="chain1" in="0:00:00.306" out="0:00:00.324"/>
    <entry producer="chain1" in="0:00:00.331" out="0:00:00.337"/>
    <entry producer="chain1" in="0:00:00.340" out="0:00:00.356"/>
    <entry producer="chain1" in="0:00:00.358" out="0:00:00.380"/>
    <entry producer="chain1" in="0:00:00.383" out="0:00:00.394"/>
    <entry producer="chain1" in="0:00:00.405" out="0:00:00.460"/>
    <entry producer="chain1" in="0:00:00.462" out="0:00:00.471"/>
    <entry producer="chain1" in="0:00:00.476" out="0:00:00.535"/>
    <entry producer="chain1" in="0:00:00.537" out="0:00:00.539"/>
    <entry producer="chain1" in="0:00:00.551" out="0:00:00.560"/>
    <entry producer="chain1" in="0:00:00.562" out="0:00:00.600"/>
    <entry producer="chain1" in="0:00:00.607" out="0:00:00.612"/>
    <entry producer="chain1" in="0:00:00.616" out="0:00:00.623"/>
    <entry producer="chain1" in="0:00:00.625" out="0:00:00.637"/>
    <entry producer="chain1" in="0:00:00.639" out="0:00:00.668"/>
    <entry producer="chain1" in="0:00:00.675" out="0:00:00.678"/>
    <entry producer="chain1" in="0:00:00.684" out="0:00:00.687"/>
    <entry producer="chain1" in="0:00:00.693" out="0:00:00.700"/>
    <entry producer="chain1" in="0:00:00.702" out="0:00:00.718"/>
    <entry producer="chain1" in="0:00:00.721" out="0:00:00.746"/>
    <entry producer="chain1" in="0:00:00.752" out="0:00:00.755"/>
    <entry producer="chain1" in="0:00:00.764" out="0:00:00.766"/>
    <entry producer="chain1" in="0:00:00.773" out="0:00:00.777"/>
    <entry producer="chain1" in="0:00:00.789" out="0:00:00.814"/>
    <entry producer="chain1" in="0:00:00.823" out="0:00:00.843"/>
    <entry producer="chain1" in="0:00:00.845" out="0:00:00.857"/>
    <entry producer="chain1" in="0:00:00.870" out="0:00:00.891"/>
    <entry producer="chain1" in="0:00:00.904" out="0:00:00.909"/>
    <entry producer="chain1" in="0:00:00.945" out="0:00:00.963"/>
    <entry producer="chain1" in="0:00:00.981" out="0:00:01.018"/>
    <entry producer="chain1" in="0:00:01.022" out="0:00:01.074"/>
    <entry producer="chain1" in="0:00:01.079" out="0:00:01.092"/>
    <entry producer="chain1" in="0:00:01.095" out="0:00:01.120"/>
    <entry producer="chain1" in="0:00:01.122" out="0:00:01.145"/>
    <entry producer="chain1" in="0:00:01.149" out="0:00:01.163"/>
    <entry producer="chain1" in="0:00:01.167" out="0:00:01.181"/>
    <entry producer="chain1" in="0:00:01.183" out="0:00:01.190"/>
    <entry producer="chain1" in="0:00:01.192" out="0:00:01.215"/>
    <entry producer="chain1" in="0:00:01.219" out="0:00:01.891"/>
    <entry producer="chain1" in="0:00:01.893" out="0:00:01.904"/>
    <entry producer="chain1" in="0:00:01.907" out="0:00:01.909"/>
    <entry producer="chain1" in="0:00:01.911" out="0:00:02.158"/>
    <entry producer="chain1" in="0:00:02.160" out="0:00:02.165"/>
    <entry producer="chain1" in="0:00:02.167" out="0:00:02.181"/>
    <entry producer="chain1" in="0:00:02.183" out="0:00:02.192"/>
    <entry producer="chain1" in="0:00:02.195" out="0:00:02.199"/>
    <entry producer="chain1" in="0:00:02.206" out="0:00:02.213"/>
    <entry producer="chain1" in="0:00:02.217" out="0:00:02.219"/>
    <entry producer="chain1" in="0:00:02.224" out="0:00:02.226"/>
    <entry producer="chain1" in="0:00:02.229" out="0:00:02.231"/>
    <entry producer="chain1" in="0:00:02.235" out="0:00:02.238"/>
    <entry producer="chain1" in="0:00:02.240" out="0:00:02.242"/>
    <entry producer="chain1" in="0:00:02.247" out="0:00:02.251"/>
    <entry producer="chain1" in="0:00:02.267" out="0:00:02.755"/>
    <entry producer="chain1" in="0:00:02.759" out="0:00:02.761"/>
    <entry producer="chain1" in="0:00:02.768" out="0:00:02.773"/>
    <entry producer="chain1" in="0:00:02.775" out="0:00:02.777"/>
    <entry producer="chain1" in="0:00:02.780" out="0:00:02.782"/>
    <entry producer="chain1" in="0:00:02.786" out="0:00:02.791"/>
    <entry producer="chain1" in="0:00:02.800" out="0:00:02.802"/>
    <entry producer="chain1" in="0:00:02.814" out="0:00:03.417"/>
    <entry producer="chain1" in="0:00:03.419" out="0:00:03.442"/>
    <entry producer="chain1" in="0:00:03.446" out="0:00:03.453"/>
    <entry producer="chain1" in="0:00:03.458" out="0:00:03.460"/>
    <entry producer="chain1" in="0:00:03.462" out="0:00:04.108"/>
    <entry producer="chain1" in="0:00:04.111" out="0:00:04.124"/>
    <entry producer="chain1" in="0:00:04.126" out="0:00:04.156"/>
    <entry producer="chain1" in="0:00:04.158" out="0:00:04.195"/>
    <entry producer="chain1" in="0:00:04.197" out="0:00:04.213"/>
    <entry producer="chain1" in="0:00:04.231" out="0:00:04.233"/>
    <entry producer="chain1" in="0:00:04.238" out="0:00:04.240"/>
    <entry producer="chain1" in="0:00:04.244" out="0:00:04.249"/>
    <entry producer="chain1" in="0:00:04.260" out="0:00:04.265"/>
    <entry producer="chain1" in="0:00:04.267" out="0:00:04.274"/>
    <entry producer="chain1" in="0:00:04.276" out="0:00:04.278"/>
    <entry producer="chain1" in="0:00:04.285" out="0:00:04.287"/>
    <entry producer="chain1" in="0:00:04.292" out="0:00:04.811"/>
    <entry producer="chain1" in="0:00:04.816" out="0:00:04.832"/>
    <entry producer="chain1" in="0:00:04.834" out="0:00:04.850"/>
    <entry producer="chain1" in="0:00:04.852" out="0:00:04.854"/>
    <entry producer="chain1" in="0:00:04.859" out="0:00:04.866"/>
    <entry producer="chain1" in="0:00:04.868" out="0:00:04.879"/>
    <entry producer="chain1" in="0:00:04.882" out="0:00:04.884"/>
    <entry producer="chain1" in="0:00:04.891" out="0:00:04.893"/>
    <entry producer="chain1" in="0:00:04.902" out="0:00:04.927"/>
    <entry producer="chain1" in="0:00:04.941" out="0:00:04.943"/>
    <entry producer="chain1" in="0:00:04.956" out="0:00:04.959"/>
    <entry producer="chain1" in="0:00:04.970" out="0:00:05.000"/>
    <entry producer="chain1" in="0:00:05.002" out="0:00:05.004"/>
    <entry producer="chain1" in="0:00:05.013" out="0:00:05.015"/>
    <entry producer="chain1" in="0:00:05.020" out="0:00:05.022"/>
    <entry producer="chain1" in="0:00:05.027" out="0:00:05.029"/>
    <entry producer="chain1" in="0:00:05.034" out="0:00:05.072"/>
    <entry producer="chain1" in="0:00:05.074" out="0:00:05.077"/>
    <entry producer="chain1" in="0:00:05.086" out="0:00:05.088"/>
    <entry producer="chain1" in="0:00:05.095" out="0:00:05.102"/>
    <entry producer="chain1" in="0:00:05.104" out="0:00:05.147"/>
    <entry producer="chain1" in="0:00:05.149" out="0:00:05.158"/>
    <entry producer="chain1" in="0:00:05.163" out="0:00:05.165"/>
    <entry producer="chain1" in="0:00:05.167" out="0:00:06.147"/>
    <entry producer="chain1" in="0:00:06.149" out="0:00:06.403"/>
    <entry producer="chain1" in="0:00:06.410" out="0:00:06.412"/>
    <entry producer="chain1" in="0:00:06.419" out="0:00:06.421"/>
    <entry producer="chain1" in="0:00:06.424" out="0:00:06.426"/>
    <entry producer="chain1" in="0:00:06.428" out="0:00:06.439"/>
    <entry producer="chain1" in="0:00:06.444" out="0:00:06.446"/>
    <entry producer="chain1" in="0:00:06.451" out="0:00:06.453"/>
    <entry producer="chain1" in="0:00:06.462" out="0:00:06.464"/>
    <entry producer="chain1" in="0:00:06.503" out="0:00:06.523"/>
    <entry producer="chain1" in="0:00:06.535" out="0:00:06.537"/>
    <entry producer="chain1" in="0:00:06.539" out="0:00:06.546"/>
    <entry producer="chain1" in="0:00:06.578" out="0:00:06.594"/>
    <entry producer="chain1" in="0:00:06.605" out="0:00:06.609"/>
    <entry producer="chain1" in="0:00:06.612" out="0:00:06.619"/>
    <entry producer="chain1" in="0:00:06.623" out="0:00:06.625"/>
    <entry producer="chain1" in="0:00:06.653" out="0:00:06.659"/>
    <entry producer="chain1" in="0:00:06.675" out="0:00:06.689"/>
    <entry producer="chain1" in="0:00:06.691" out="0:00:06.693"/>
    <entry producer="chain1" in="0:00:06.709" out="0:00:06.712"/>
    <entry producer="chain1" in="0:00:06.725" out="0:00:06.732"/>
    <entry producer="chain1" in="0:00:06.746" out="0:00:06.764"/>
    <entry producer="chain1" in="0:00:06.773" out="0:00:06.775"/>
    <entry producer="chain1" in="0:00:06.777" out="0:00:06.789"/>
    <entry producer="chain1" in="0:00:06.800" out="0:00:06.802"/>
    <entry producer="chain1" in="0:00:06.804" out="0:00:06.809"/>
    <entry producer="chain1" in="0:00:06.820" out="0:00:06.832"/>
    <entry producer="chain1" in="0:00:06.843" out="0:00:06.848"/>
    <entry producer="chain1" in="0:00:06.850" out="0:00:06.852"/>
    <entry producer="chain1" in="0:00:06.870" out="0:00:06.873"/>
    <entry producer="chain1" in="0:00:06.891" out="0:00:06.895"/>
    <entry producer="chain1" in="0:00:06.897" out="0:00:06.909"/>
    <entry producer="chain1" in="0:00:06.927" out="0:00:06.931"/>
    <entry producer="chain1" in="0:00:06.984" out="0:00:06.986"/>
    <entry producer="chain1" in="0:00:07.027" out="0:00:07.029"/>
    <entry producer="chain1" in="0:00:07.034" out="0:00:07.038"/>
    <entry producer="chain1" in="0:00:07.043" out="0:00:07.045"/>
    <entry producer="chain1" in="0:00:07.097" out="0:00:07.117"/>
    <entry producer="chain1" in="0:00:07.120" out="0:00:07.122"/>
    <entry producer="chain1" in="0:00:07.129" out="0:00:07.133"/>
    <entry producer="chain1" in="0:00:07.170" out="0:00:07.188"/>
    <entry producer="chain1" in="0:00:07.190" out="0:00:07.192"/>
    <entry producer="chain1" in="0:00:07.195" out="0:00:07.197"/>
    <entry producer="chain1" in="0:00:07.240" out="0:00:07.269"/>
    <entry producer="chain1" in="0:00:07.276" out="0:00:07.278"/>
    <entry producer="chain1" in="0:00:07.281" out="0:00:07.285"/>
    <entry producer="chain1" in="0:00:07.297" out="0:00:07.301"/>
    <entry producer="chain1" in="0:00:07.310" out="0:00:07.328"/>
    <entry producer="chain1" in="0:00:07.346" out="0:00:07.353"/>
    <entry producer="chain1" in="0:00:07.365" out="0:00:07.623"/>
    <entry producer="chain1" in="0:00:07.625" out="0:00:07.689"/>
    <entry producer="chain1" in="0:00:07.693" out="0:00:07.730"/>
    <entry producer="chain1" in="0:00:07.732" out="0:00:07.743"/>
    <entry producer="chain1" in="0:00:07.746" out="0:00:07.750"/>
    <entry producer="chain1" in="0:00:07.764" out="0:00:07.766"/>
    <entry producer="chain1" in="0:00:07.768" out="0:00:07.777"/>
    <entry producer="chain1" in="0:00:07.780" out="0:00:07.802"/>
    <entry producer="chain1" in="0:00:07.804" out="0:00:07.811"/>
    <entry producer="chain1" in="0:00:07.814" out="0:00:07.816"/>
    <entry producer="chain1" in="0:00:07.818" out="0:00:07.827"/>
    <entry producer="chain1" in="0:00:07.845" out="0:00:07.854"/>
    <entry producer="chain1" in="0:00:07.857" out="0:00:07.875"/>
    <entry producer="chain1" in="0:00:07.888" out="0:00:07.891"/>
    <entry producer="chain1" in="0:00:07.893" out="0:00:07.900"/>
    <entry producer="chain1" in="0:00:07.909" out="0:00:07.911"/>
    <entry producer="chain1" in="0:00:07.916" out="0:00:07.920"/>
    <entry producer="chain1" in="0:00:07.922" out="0:00:07.954"/>
    <entry producer="chain1" in="0:00:07.993" out="0:00:08.018"/>
    <entry producer="chain1" in="0:00:08.031" out="0:00:08.034"/>
    <entry producer="chain1" in="0:00:08.040" out="0:00:08.043"/>
    <entry producer="chain1" in="0:00:08.049" out="0:00:08.052"/>
    <entry producer="chain1" in="0:00:08.058" out="0:00:08.061"/>
    <entry producer="chain1" in="0:00:08.065" out="0:00:08.099"/>
    <entry producer="chain1" in="0:00:08.102" out="0:00:08.108"/>
    <entry producer="chain1" in="0:00:08.120" out="0:00:08.122"/>
    <entry producer="chain1" in="0:00:08.124" out="0:00:08.126"/>
    <entry producer="chain1" in="0:00:08.131" out="0:00:08.136"/>
    <entry producer="chain1" in="0:00:08.138" out="0:00:08.176"/>
    <entry producer="chain1" in="0:00:08.195" out="0:00:08.199"/>
    <entry producer="chain1" in="0:00:08.201" out="0:00:08.240"/>
    <entry producer="chain1" in="0:00:08.242" out="0:00:08.244"/>
    <entry producer="chain1" in="0:00:08.253" out="0:00:08.256"/>
    <entry producer="chain1" in="0:00:08.258" out="0:00:08.263"/>
    <entry producer="chain1" in="0:00:08.267" out="0:00:08.269"/>
    <entry producer="chain1" in="0:00:08.281" out="0:00:08.310"/>
    <entry producer="chain1" in="0:00:08.328" out="0:00:08.333"/>
    <entry producer="chain1" in="0:00:08.337" out="0:00:08.340"/>
    <entry producer="chain1" in="0:00:08.344" out="0:00:08.346"/>
    <entry producer="chain1" in="0:00:08.349" out="0:00:08.351"/>
    <entry producer="chain1" in="0:00:08.353" out="0:00:08.358"/>
    <entry producer="chain1" in="0:00:08.362" out="0:00:08.383"/>
    <entry producer="chain1" in="0:00:08.399" out="0:00:08.401"/>
    <entry producer="chain1" in="0:00:08.405" out="0:00:08.408"/>
    <entry producer="chain1" in="0:00:08.419" out="0:00:08.421"/>
    <entry producer="chain1" in="0:00:08.424" out="0:00:08.428"/>
    <entry producer="chain1" in="0:00:08.430" out="0:00:08.439"/>
    <entry producer="chain1" in="0:00:08.442" out="0:00:08.455"/>
    <entry producer="chain1" in="0:00:08.476" out="0:00:08.478"/>
    <entry producer="chain1" in="0:00:08.480" out="0:00:08.482"/>
    <entry producer="chain1" in="0:00:08.485" out="0:00:08.487"/>
    <entry producer="chain1" in="0:00:08.498" out="0:00:08.501"/>
    <entry producer="chain1" in="0:00:08.505" out="0:00:08.507"/>
    <entry producer="chain1" in="0:00:08.510" out="0:00:08.517"/>
    <entry producer="chain1" in="0:00:08.519" out="0:00:08.526"/>
    <entry producer="chain1" in="0:00:08.528" out="0:00:08.530"/>
    <entry producer="chain1" in="0:00:08.546" out="0:00:08.548"/>
    <entry producer="chain1" in="0:00:08.573" out="0:00:08.575"/>
    <entry producer="chain1" in="0:00:08.582" out="0:00:08.589"/>
    <entry producer="chain1" in="0:00:08.591" out="0:00:08.596"/>
    <entry producer="chain1" in="0:00:08.632" out="0:00:08.634"/>
    <entry producer="chain1" in="0:00:08.650" out="0:00:09.793"/>
    <entry producer="chain1" in="0:00:09.795" out="0:00:09.811"/>
    <entry producer="chain1" in="0:00:09.814" out="0:00:09.857"/>
    <entry producer="chain1" in="0:00:09.859" out="0:00:09.868"/>
    <entry producer="chain1" in="0:00:09.873" out="0:00:10.097"/>
    <entry producer="chain1" in="0:00:10.104" out="0:00:10.394"/>
    <entry producer="chain1" in="0:00:10.396" out="0:00:10.408"/>
    <entry producer="chain1" in="0:00:10.410" out="0:00:10.414"/>
    <entry producer="chain1" in="0:00:10.417" out="0:00:11.446"/>
    <entry producer="chain1" in="0:00:11.451" out="0:00:11.455"/>
    <entry producer="chain1" in="0:00:11.460" out="0:00:11.467"/>
    <entry producer="chain1" in="0:00:11.469" out="0:00:11.476"/>
    <entry producer="chain1" in="0:00:11.480" out="0:00:11.482"/>
    <entry producer="chain1" in="0:00:11.496" out="0:00:11.501"/>
    <entry producer="chain1" in="0:00:11.503" out="0:00:11.807"/>
    <entry producer="chain1" in="0:00:11.809" out="0:00:11.814"/>
    <entry producer="chain1" in="0:00:11.816" out="0:00:11.823"/>
    <entry producer="chain1" in="0:00:11.827" out="0:00:11.829"/>
    <entry producer="chain1" in="0:00:11.834" out="0:00:11.839"/>
    <entry producer="chain1" in="0:00:11.841" out="0:00:11.848"/>
    <entry producer="chain1" in="0:00:11.850" out="0:00:11.854"/>
    <entry producer="chain1" in="0:00:11.857" out="0:00:11.861"/>
    <entry producer="chain1" in="0:00:11.891" out="0:00:11.893"/>
    <entry producer="chain1" in="0:00:11.897" out="0:00:11.902"/>
    <entry producer="chain1" in="0:00:11.904" out="0:00:11.909"/>
    <entry producer="chain1" in="0:00:11.925" out="0:00:11.929"/>
    <entry producer="chain1" in="0:00:11.936" out="0:00:11.938"/>
    <entry producer="chain1" in="0:00:11.954" out="0:00:11.956"/>
    <entry producer="chain1" in="0:00:11.961" out="0:00:11.970"/>
    <entry producer="chain1" in="0:00:11.975" out="0:00:11.977"/>
    <entry producer="chain1" in="0:00:11.990" out="0:00:11.993"/>
    <entry producer="chain1" in="0:00:12.000" out="0:00:12.002"/>
    <entry producer="chain1" in="0:00:12.009" out="0:00:12.013"/>
    <entry producer="chain1" in="0:00:12.015" out="0:00:12.020"/>
    <entry producer="chain1" in="0:00:12.022" out="0:00:12.024"/>
    <entry producer="chain1" in="0:00:12.031" out="0:00:12.034"/>
    <entry producer="chain1" in="0:00:12.036" out="0:00:12.038"/>
    <entry producer="chain1" in="0:00:12.040" out="0:00:12.045"/>
    <entry producer="chain1" in="0:00:12.068" out="0:00:12.070"/>
    <entry producer="chain1" in="0:00:12.090" out="0:00:12.092"/>
    <entry producer="chain1" in="0:00:12.095" out="0:00:12.117"/>
    <entry producer="chain1" in="0:00:12.120" out="0:00:12.122"/>
    <entry producer="chain1" in="0:00:12.140" out="0:00:12.142"/>
    <entry producer="chain1" in="0:00:12.156" out="0:00:12.192"/>
    <entry producer="chain1" in="0:00:12.197" out="0:00:12.201"/>
    <entry producer="chain1" in="0:00:12.210" out="0:00:12.247"/>
    <entry producer="chain1" in="0:00:12.249" out="0:00:12.263"/>
    <entry producer="chain1" in="0:00:12.265" out="0:00:12.281"/>
    <entry producer="chain1" in="0:00:12.287" out="0:00:12.365"/>
    <entry producer="chain1" in="0:00:12.369" out="0:00:12.408"/>
    <entry producer="chain1" in="0:00:12.419" out="0:00:12.798"/>
    <entry producer="chain1" in="0:00:12.802" out="0:00:12.816"/>
    <entry producer="chain1" in="0:00:12.818" out="0:00:12.829"/>
    <entry producer="chain1" in="0:00:12.834" out="0:00:12.839"/>
    <entry producer="chain1" in="0:00:12.843" out="0:00:13.333"/>
    <entry producer="chain1" in="0:00:13.335" out="0:00:13.340"/>
    <entry producer="chain1" in="0:00:13.342" out="0:00:13.344"/>
    <entry producer="chain1" in="0:00:13.346" out="0:00:13.349"/>
    <entry producer="chain1" in="0:00:13.351" out="0:00:13.353"/>
    <entry producer="chain1" in="0:00:13.356" out="0:00:13.360"/>
    <entry producer="chain1" in="0:00:13.371" out="0:00:13.374"/>
    <entry producer="chain1" in="0:00:13.376" out="0:00:13.394"/>
    <entry producer="chain1" in="0:00:13.396" out="0:00:13.403"/>
    <entry producer="chain1" in="0:00:13.405" out="0:00:13.421"/>
    <entry producer="chain1" in="0:00:13.424" out="0:00:13.430"/>
    <entry producer="chain1" in="0:00:13.433" out="0:00:13.473"/>
    <entry producer="chain1" in="0:00:13.476" out="0:00:13.501"/>
    <entry producer="chain1" in="0:00:13.503" out="0:00:13.510"/>
    <entry producer="chain1" in="0:00:13.512" out="0:00:13.535"/>
    <entry producer="chain1" in="0:00:13.537" out="0:00:13.557"/>
    <entry producer="chain1" in="0:00:13.560" out="0:00:13.734"/>
    <entry producer="chain1" in="0:00:13.736" out="0:00:13.768"/>
    <entry producer="chain1" in="0:00:13.770" out="0:00:13.775"/>
    <entry producer="chain1" in="0:00:13.777" out="0:00:13.786"/>
    <entry producer="chain1" in="0:00:13.793" out="0:00:13.795"/>
    <entry producer="chain1" in="0:00:13.798" out="0:00:13.802"/>
    <entry producer="chain1" in="0:00:13.804" out="0:00:13.809"/>
    <entry producer="chain1" in="0:00:13.811" out="0:00:13.818"/>
    <entry producer="chain1" in="0:00:13.820" out="0:00:13.823"/>
    <entry producer="chain1" in="0:00:13.825" out="0:00:13.827"/>
    <entry producer="chain1" in="0:00:13.848" out="0:00:13.852"/>
    <entry producer="chain1" in="0:00:13.866" out="0:00:13.900"/>
    <entry producer="chain1" in="0:00:13.902" out="0:00:13.913"/>
    <entry producer="chain1" in="0:00:13.916" out="0:00:15.000"/>
    <entry producer="chain1" in="0:00:15.004" out="0:00:15.009"/>
    <entry producer="chain1" in="0:00:15.013" out="0:00:15.036"/>
    <entry producer="chain1" in="0:00:15.038" out="0:00:15.353"/>
    <entry producer="chain1" in="0:00:15.356" out="0:00:16.544"/>
    <entry producer="chain1" in="0:00:16.546" out="0:00:16.551"/>
    <entry producer="chain1" in="0:00:16.553" out="0:00:16.557"/>
    <entry producer="chain1" in="0:00:16.560" out="0:00:16.562"/>
    <entry producer="chain1" in="0:00:16.564" out="0:00:17.058"/>
    <entry producer="chain1" in="0:00:17.061" out="0:00:17.065"/>
    <entry producer="chain1" in="0:00:17.068" out="0:00:17.102"/>
    <entry producer="chain1" in="0:00:17.104" out="0:00:17.108"/>
    <entry producer="chain1" in="0:00:17.111" out="0:00:17.122"/>
    <entry producer="chain1" in="0:00:17.124" out="0:00:17.126"/>
    <entry producer="chain1" in="0:00:17.154" out="0:00:17.179"/>
    <entry producer="chain1" in="0:00:17.181" out="0:00:17.199"/>
    <entry producer="chain1" in="0:00:17.215" out="0:00:17.229"/>
    <entry producer="chain1" in="0:00:17.233" out="0:00:17.249"/>
    <entry producer="chain1" in="0:00:17.251" out="0:00:17.269"/>
    <entry producer="chain1" in="0:00:17.290" out="0:00:17.321"/>
    <entry producer="chain1" in="0:00:17.349" out="0:00:17.351"/>
    <entry producer="chain1" in="0:00:17.358" out="0:00:17.394"/>
    <entry producer="chain1" in="0:00:17.414" out="0:00:17.417"/>
    <entry producer="chain1" in="0:00:17.419" out="0:00:17.421"/>
    <entry producer="chain1" in="0:00:17.426" out="0:00:17.430"/>
    <entry producer="chain1" in="0:00:17.435" out="0:00:17.444"/>
    <entry producer="chain1" in="0:00:17.446" out="0:00:17.467"/>
    <entry producer="chain1" in="0:00:17.492" out="0:00:17.494"/>
    <entry producer="chain1" in="0:00:17.505" out="0:00:17.507"/>
    <entry producer="chain1" in="0:00:17.512" out="0:00:17.514"/>
    <entry producer="chain1" in="0:00:17.521" out="0:00:17.528"/>
    <entry producer="chain1" in="0:00:17.530" out="0:00:17.537"/>
    <entry producer="chain1" in="0:00:17.569" out="0:00:17.573"/>
    <entry producer="chain1" in="0:00:17.580" out="0:00:17.770"/>
    <entry producer="chain1" in="0:00:17.773" out="0:00:17.775"/>
    <entry producer="chain1" in="0:00:17.777" out="0:00:17.907"/>
    <entry producer="chain1" in="0:00:17.909" out="0:00:17.913"/>
    <entry producer="chain1" in="0:00:17.920" out="0:00:17.925"/>
    <entry producer="chain1" in="0:00:17.936" out="0:00:18.092"/>
    <entry producer="chain1" in="0:00:18.097" out="0:00:18.099"/>
    <entry producer="chain1" in="0:00:18.104" out="0:00:18.106"/>
    <entry producer="chain1" in="0:00:18.108" out="0:00:18.111"/>
    <entry producer="chain1" in="0:00:18.115" out="0:00:18.117"/>
    <entry producer="chain1" in="0:00:18.120" out="0:00:18.122"/>
    <entry producer="chain1" in="0:00:18.124" out="0:00:18.126"/>
    <entry producer="chain1" in="0:00:18.129" out="0:00:18.133"/>
    <entry producer="chain1" in="0:00:18.183" out="0:00:18.185"/>
    <entry producer="chain1" in="0:00:18.195" out="0:00:18.197"/>
    <entry producer="chain1" in="0:00:18.201" out="0:00:18.206"/>
    <entry producer="chain1" in="0:00:18.215" out="0:00:18.222"/>
    <entry producer="chain1" in="0:00:18.224" out="0:00:18.226"/>
    <entry producer="chain1" in="0:00:18.242" out="0:00:18.244"/>
    <entry producer="chain1" in="0:00:18.247" out="0:00:18.251"/>
    <entry producer="chain1" in="0:00:18.260" out="0:00:18.263"/>
    <entry producer="chain1" in="0:00:18.269" out="0:00:18.272"/>
    <entry producer="chain1" in="0:00:18.278" out="0:00:18.281"/>
    <entry producer="chain1" in="0:00:18.287" out="0:00:18.290"/>
    <entry producer="chain1" in="0:00:18.310" out="0:00:18.312"/>
    <entry producer="chain1" in="0:00:18.317" out="0:00:18.324"/>
    <entry producer="chain1" in="0:00:18.328" out="0:00:18.356"/>
    <entry producer="chain1" in="0:00:18.358" out="0:00:18.378"/>
    <entry producer="chain1" in="0:00:18.380" out="0:00:18.587"/>
    <entry producer="chain1" in="0:00:18.589" out="0:00:18.603"/>
    <entry producer="chain1" in="0:00:18.605" out="0:00:18.648"/>
    <entry producer="chain1" in="0:00:18.650" out="0:00:18.664"/>
    <entry producer="chain1" in="0:00:18.666" out="0:00:18.671"/>
    <entry producer="chain1" in="0:00:18.675" out="0:00:18.718"/>
    <entry producer="chain1" in="0:00:18.725" out="0:00:18.734"/>
    <entry producer="chain1" in="0:00:18.746" out="0:00:18.770"/>
    <entry producer="chain1" in="0:00:18.773" out="0:00:18.777"/>
    <entry producer="chain1" in="0:00:18.786" out="0:00:18.791"/>
    <entry producer="chain1" in="0:00:18.798" out="0:00:18.809"/>
    <entry producer="chain1" in="0:00:18.814" out="0:00:18.816"/>
    <entry producer="chain1" in="0:00:18.818" out="0:00:18.825"/>
    <entry producer="chain1" in="0:00:18.827" out="0:00:18.850"/>
    <entry producer="chain1" in="0:00:18.868" out="0:00:19.507"/>
    <entry producer="chain1" in="0:00:19.510" out="0:00:19.514"/>
    <entry producer="chain1" in="0:00:19.517" out="0:00:19.523"/>
    <entry producer="chain1" in="0:00:19.526" out="0:00:19.528"/>
    <entry producer="chain1" in="0:00:19.537" out="0:00:19.541"/>
    <entry producer="chain1" in="0:00:19.546" out="0:00:19.551"/>
    <entry producer="chain1" in="0:00:19.553" out="0:00:20.063"/>
    <entry producer="chain1" in="0:00:20.070" out="0:00:20.074"/>
    <entry producer="chain1" in="0:00:20.077" out="0:00:20.088"/>
    <entry producer="chain1" in="0:00:20.090" out="0:00:20.095"/>
    <entry producer="chain1" in="0:00:20.097" out="0:00:20.099"/>
    <entry producer="chain1" in="0:00:20.104" out="0:00:20.106"/>
    <entry producer="chain1" in="0:00:20.111" out="0:00:20.126"/>
    <entry producer="chain1" in="0:00:20.140" out="0:00:20.160"/>
    <entry producer="chain1" in="0:00:20.163" out="0:00:20.165"/>
    <entry producer="chain1" in="0:00:20.167" out="0:00:20.170"/>
    <entry producer="chain1" in="0:00:20.183" out="0:00:20.185"/>
    <entry producer="chain1" in="0:00:20.188" out="0:00:20.190"/>
    <entry producer="chain1" in="0:00:20.192" out="0:00:20.195"/>
    <entry producer="chain1" in="0:00:20.199" out="0:00:20.215"/>
    <entry producer="chain1" in="0:00:20.217" out="0:00:20.222"/>
    <entry producer="chain1" in="0:00:20.224" out="0:00:20.231"/>
    <entry producer="chain1" in="0:00:20.233" out="0:00:20.235"/>
    <entry producer="chain1" in="0:00:20.244" out="0:00:20.263"/>
    <entry producer="chain1" in="0:00:20.269" out="0:00:20.281"/>
    <entry producer="chain1" in="0:00:20.283" out="0:00:20.303"/>
    <entry producer="chain1" in="0:00:20.324" out="0:00:20.326"/>
    <entry producer="chain1" in="0:00:20.328" out="0:00:20.331"/>
    <entry producer="chain1" in="0:00:20.333" out="0:00:20.337"/>
    <entry producer="chain1" in="0:00:20.342" out="0:00:20.358"/>
    <entry producer="chain1" in="0:00:20.360" out="0:00:20.376"/>
    <entry producer="chain1" in="0:00:20.399" out="0:00:20.401"/>
    <entry producer="chain1" in="0:00:20.405" out="0:00:20.410"/>
    <entry producer="chain1" in="0:00:20.421" out="0:00:20.424"/>
    <entry producer="chain1" in="0:00:20.426" out="0:00:20.428"/>
    <entry producer="chain1" in="0:00:20.430" out="0:00:20.433"/>
    <entry producer="chain1" in="0:00:20.435" out="0:00:20.442"/>
    <entry producer="chain1" in="0:00:20.451" out="0:00:20.453"/>
    <entry producer="chain1" in="0:00:20.469" out="0:00:20.471"/>
    <entry producer="chain1" in="0:00:20.473" out="0:00:20.478"/>
    <entry producer="chain1" in="0:00:20.496" out="0:00:20.498"/>
    <entry producer="chain1" in="0:00:20.503" out="0:00:20.507"/>
    <entry producer="chain1" in="0:00:20.512" out="0:00:21.356"/>
    <entry producer="chain1" in="0:00:21.358" out="0:00:21.362"/>
    <entry producer="chain1" in="0:00:21.365" out="0:00:21.746"/>
    <entry producer="chain1" in="0:00:21.752" out="0:00:21.759"/>
    <entry producer="chain1" in="0:00:21.764" out="0:00:21.770"/>
    <entry producer="chain1" in="0:00:21.773" out="0:00:22.238"/>
    <entry producer="chain1" in="0:00:22.247" out="0:00:22.399"/>
    <entry producer="chain1" in="0:00:22.403" out="0:00:22.759"/>
    <entry producer="chain1" in="0:00:22.764" out="0:00:22.784"/>
    <entry producer="chain1" in="0:00:22.786" out="0:00:23.120"/>
    <entry producer="chain1" in="0:00:23.122" out="0:00:23.126"/>
    <entry producer="chain1" in="0:00:23.129" out="0:00:23.383"/>
    <entry producer="chain1" in="0:00:23.385" out="0:00:23.467"/>
    <entry producer="chain1" in="0:00:23.469" out="0:00:23.473"/>
    <entry producer="chain1" in="0:00:23.480" out="0:00:23.591"/>
    <entry producer="chain1" in="0:00:23.594" out="0:00:23.600"/>
    <entry producer="chain1" in="0:00:23.603" out="0:00:23.607"/>
    <entry producer="chain1" in="0:00:23.609" out="0:00:23.612"/>
    <entry producer="chain1" in="0:00:23.632" out="0:00:23.634"/>
    <entry producer="chain1" in="0:00:23.691" out="0:00:23.693"/>
    <entry producer="chain1" in="0:00:23.696" out="0:00:23.698"/>
    <entry producer="chain1" in="0:00:23.700" out="0:00:23.727"/>
    <entry producer="chain1" in="0:00:23.730" out="0:00:24.174"/>
    <entry producer="chain1" in="0:00:24.176" out="0:00:24.179"/>
    <entry producer="chain1" in="0:00:24.181" out="0:00:24.183"/>
    <entry producer="chain1" in="0:00:24.185" out="0:00:24.188"/>
    <entry producer="chain1" in="0:00:24.195" out="0:00:24.224"/>
    <entry producer="chain1" in="0:00:24.226" out="0:00:24.233"/>
    <entry producer="chain1" in="0:00:24.253" out="0:00:24.258"/>
    <entry producer="chain1" in="0:00:24.292" out="0:00:24.501"/>
    <entry producer="chain1" in="0:00:24.503" out="0:00:24.505"/>
    <entry producer="chain1" in="0:00:24.507" out="0:00:24.512"/>
    <entry producer="chain1" in="0:00:24.517" out="0:00:24.732"/>
    <entry producer="chain1" in="0:00:24.734" out="0:00:24.764"/>
    <entry producer="chain1" in="0:00:24.766" out="0:00:24.775"/>
    <entry producer="chain1" in="0:00:24.777" out="0:00:26.013"/>
    <entry producer="chain1" in="0:00:26.015" out="0:00:26.018"/>
    <entry producer="chain1" in="0:00:26.027" out="0:00:26.034"/>
    <entry producer="chain1" in="0:00:26.036" out="0:00:26.038"/>
    <entry producer="chain1" in="0:00:26.043" out="0:00:26.045"/>
    <entry producer="chain1" in="0:00:26.047" out="0:00:26.049"/>
    <entry producer="chain1" in="0:00:26.052" out="0:00:26.061"/>
    <entry producer="chain1" in="0:00:26.065" out="0:00:26.068"/>
    <entry producer="chain1" in="0:00:26.083" out="0:00:26.859"/>
    <entry producer="chain1" in="0:00:26.861" out="0:00:26.886"/>
    <entry producer="chain1" in="0:00:26.891" out="0:00:26.893"/>
    <entry producer="chain1" in="0:00:26.913" out="0:00:26.920"/>
    <entry producer="chain1" in="0:00:26.922" out="0:00:26.931"/>
    <entry producer="chain1" in="0:00:26.947" out="0:00:26.952"/>
    <entry producer="chain1" in="0:00:26.954" out="0:00:26.959"/>
    <entry producer="chain1" in="0:00:26.981" out="0:00:26.984"/>
    <entry producer="chain1" in="0:00:26.995" out="0:00:27.006"/>
    <entry producer="chain1" in="0:00:27.013" out="0:00:27.015"/>
    <entry producer="chain1" in="0:00:27.018" out="0:00:27.034"/>
    <entry producer="chain1" in="0:00:27.036" out="0:00:27.038"/>
    <entry producer="chain1" in="0:00:27.065" out="0:00:27.068"/>
    <entry producer="chain1" in="0:00:27.083" out="0:00:27.088"/>
    <entry producer="chain1" in="0:00:27.090" out="0:00:27.106"/>
    <entry producer="chain1" in="0:00:27.113" out="0:00:27.115"/>
    <entry producer="chain1" in="0:00:27.120" out="0:00:27.122"/>
    <entry producer="chain1" in="0:00:27.124" out="0:00:27.126"/>
    <entry producer="chain1" in="0:00:27.156" out="0:00:27.160"/>
    <entry producer="chain1" in="0:00:27.163" out="0:00:27.172"/>
    <entry producer="chain1" in="0:00:27.217" out="0:00:27.219"/>
    <entry producer="chain1" in="0:00:27.222" out="0:00:27.224"/>
    <entry producer="chain1" in="0:00:27.226" out="0:00:27.229"/>
    <entry producer="chain1" in="0:00:27.256" out="0:00:27.258"/>
    <entry producer="chain1" in="0:00:27.272" out="0:00:27.274"/>
    <entry producer="chain1" in="0:00:27.299" out="0:00:27.301"/>
    <entry producer="chain1" in="0:00:27.319" out="0:00:27.331"/>
    <entry producer="chain1" in="0:00:27.390" out="0:00:27.392"/>
    <entry producer="chain1" in="0:00:27.426" out="0:00:27.700"/>
    <entry producer="chain1" in="0:00:27.702" out="0:00:27.707"/>
    <entry producer="chain1" in="0:00:27.709" out="0:00:27.739"/>
    <entry producer="chain1" in="0:00:27.741" out="0:00:27.773"/>
    <entry producer="chain1" in="0:00:27.775" out="0:00:27.777"/>
    <entry producer="chain1" in="0:00:27.786" out="0:00:27.809"/>
    <entry producer="chain1" in="0:00:27.814" out="0:00:27.832"/>
    <entry producer="chain1" in="0:00:27.834" out="0:00:27.877"/>
    <entry producer="chain1" in="0:00:27.888" out="0:00:27.950"/>
    <entry producer="chain1" in="0:00:27.956" out="0:00:27.965"/>
    <entry producer="chain1" in="0:00:27.970" out="0:00:28.015"/>
    <entry producer="chain1" in="0:00:28.018" out="0:00:28.027"/>
    <entry producer="chain1" in="0:00:28.034" out="0:00:28.036"/>
    <entry producer="chain1" in="0:00:28.038" out="0:00:28.088"/>
    <entry producer="chain1" in="0:00:28.090" out="0:00:28.092"/>
    <entry producer="chain1" in="0:00:28.108" out="0:00:28.160"/>
    <entry producer="chain1" in="0:00:28.167" out="0:00:28.174"/>
    <entry producer="chain1" in="0:00:28.179" out="0:00:28.181"/>
    <entry producer="chain1" in="0:00:28.183" out="0:00:28.240"/>
    <entry producer="chain1" in="0:00:28.242" out="0:00:28.247"/>
    <entry producer="chain1" in="0:00:28.249" out="0:00:28.521"/>
    <entry producer="chain1" in="0:00:28.530" out="0:00:29.183"/>
    <entry producer="chain1" in="0:00:29.185" out="0:00:29.201"/>
    <entry producer="chain1" in="0:00:29.204" out="0:00:29.217"/>
    <entry producer="chain1" in="0:00:29.219" out="0:00:29.233"/>
    <entry producer="chain1" in="0:00:29.249" out="0:00:29.752"/>
    <entry producer="chain1" in="0:00:29.759" out="0:00:29.777"/>
    <entry producer="chain1" in="0:00:29.782" out="0:00:29.795"/>
    <entry producer="chain1" in="0:00:29.798" out="0:00:29.804"/>
    <entry producer="chain1" in="0:00:29.809" out="0:00:29.814"/>
    <entry producer="chain1" in="0:00:29.816" out="0:00:29.818"/>
    <entry producer="chain1" in="0:00:29.823" out="0:00:29.834"/>
    <entry producer="chain1" in="0:00:29.839" out="0:00:29.845"/>
    <entry producer="chain1" in="0:00:29.848" out="0:00:29.861"/>
    <entry producer="chain1" in="0:00:29.863" out="0:00:29.870"/>
    <entry producer="chain1" in="0:00:29.873" out="0:00:29.877"/>
    <entry producer="chain1" in="0:00:29.879" out="0:00:29.884"/>
    <entry producer="chain1" in="0:00:29.888" out="0:00:29.891"/>
    <entry producer="chain1" in="0:00:29.900" out="0:00:29.925"/>
    <entry producer="chain1" in="0:00:29.927" out="0:00:29.929"/>
    <entry producer="chain1" in="0:00:29.934" out="0:00:29.936"/>
    <entry producer="chain1" in="0:00:29.938" out="0:00:29.950"/>
    <entry producer="chain1" in="0:00:29.954" out="0:00:30.337"/>
    <entry producer="chain1" in="0:00:30.340" out="0:00:30.344"/>
    <entry producer="chain1" in="0:00:30.346" out="0:00:31.231"/>
    <entry producer="chain1" in="0:00:31.235" out="0:00:31.238"/>
    <entry producer="chain1" in="0:00:31.240" out="0:00:31.585"/>
    <entry producer="chain1" in="0:00:31.605" out="0:00:31.609"/>
    <entry producer="chain1" in="0:00:31.625" out="0:00:31.632"/>
    <entry producer="chain1" in="0:00:31.634" out="0:00:31.653"/>
    <entry producer="chain1" in="0:00:31.671" out="0:00:31.832"/>
    <entry producer="chain1" in="0:00:31.834" out="0:00:31.845"/>
    <entry producer="chain1" in="0:00:31.848" out="0:00:31.854"/>
    <entry producer="chain1" in="0:00:31.857" out="0:00:31.859"/>
    <entry producer="chain1" in="0:00:31.863" out="0:00:31.870"/>
    <entry producer="chain1" in="0:00:31.873" out="0:00:31.877"/>
    <entry producer="chain1" in="0:00:31.888" out="0:00:31.891"/>
    <entry producer="chain1" in="0:00:31.895" out="0:00:31.909"/>
    <entry producer="chain1" in="0:00:31.918" out="0:00:31.943"/>
    <entry producer="chain1" in="0:00:31.959" out="0:00:31.961"/>
    <entry producer="chain1" in="0:00:31.972" out="0:00:31.975"/>
    <entry producer="chain1" in="0:00:31.979" out="0:00:31.997"/>
    <entry producer="chain1" in="0:00:32.000" out="0:00:32.006"/>
    <entry producer="chain1" in="0:00:32.018" out="0:00:32.020"/>
    <entry producer="chain1" in="0:00:32.034" out="0:00:32.036"/>
    <entry producer="chain1" in="0:00:32.047" out="0:00:32.052"/>
    <entry producer="chain1" in="0:00:32.056" out="0:00:32.077"/>
    <entry producer="chain1" in="0:00:32.083" out="0:00:32.086"/>
    <entry producer="chain1" in="0:00:32.115" out="0:00:32.117"/>
    <entry producer="chain1" in="0:00:32.120" out="0:00:32.129"/>
    <entry producer="chain1" in="0:00:32.133" out="0:00:32.151"/>
    <entry producer="chain1" in="0:00:32.170" out="0:00:32.172"/>
    <entry producer="chain1" in="0:00:32.176" out="0:00:32.179"/>
    <entry producer="chain1" in="0:00:32.190" out="0:00:32.405"/>
    <entry producer="chain1" in="0:00:32.410" out="0:00:32.414"/>
    <entry producer="chain1" in="0:00:32.417" out="0:00:32.419"/>
    <entry producer="chain1" in="0:00:32.421" out="0:00:32.428"/>
    <entry producer="chain1" in="0:00:32.430" out="0:00:32.548"/>
    <entry producer="chain1" in="0:00:32.551" out="0:00:32.795"/>
    <entry producer="chain1" in="0:00:32.798" out="0:00:32.814"/>
    <entry producer="chain1" in="0:00:32.818" out="0:00:32.825"/>
    <entry producer="chain1" in="0:00:32.827" out="0:00:32.920"/>
    <entry producer="chain1" in="0:00:32.922" out="0:00:32.931"/>
    <entry producer="chain1" in="0:00:32.936" out="0:00:32.941"/>
    <entry producer="chain1" in="0:00:32.943" out="0:00:32.950"/>
    <entry producer="chain1" in="0:00:32.954" out="0:00:32.961"/>
    <entry producer="chain1" in="0:00:32.968" out="0:00:32.970"/>
    <entry producer="chain1" in="0:00:32.977" out="0:00:32.979"/>
    <entry producer="chain1" in="0:00:32.984" out="0:00:32.986"/>
    <entry producer="chain1" in="0:00:32.988" out="0:00:32.993"/>
    <entry producer="chain1" in="0:00:32.997" out="0:00:33.002"/>
    <entry producer="chain1" in="0:00:33.011" out="0:00:33.015"/>
    <entry producer="chain1" in="0:00:33.022" out="0:00:33.024"/>
    <entry producer="chain1" in="0:00:33.027" out="0:00:33.029"/>
    <entry producer="chain1" in="0:00:33.058" out="0:00:33.308"/>
    <entry producer="chain1" in="0:00:33.310" out="0:00:33.335"/>
    <entry producer="chain1" in="0:00:33.337" out="0:00:33.340"/>
    <entry producer="chain1" in="0:00:33.344" out="0:00:33.494"/>
    <entry producer="chain1" in="0:00:33.496" out="0:00:33.510"/>
    <entry producer="chain1" in="0:00:33.519" out="0:00:33.755"/>
    <entry producer="chain1" in="0:00:33.757" out="0:00:33.775"/>
    <entry producer="chain1" in="0:00:33.777" out="0:00:33.782"/>
    <entry producer="chain1" in="0:00:33.784" out="0:00:33.795"/>
    <entry producer="chain1" in="0:00:33.798" out="0:00:33.804"/>
    <entry producer="chain1" in="0:00:33.807" out="0:00:33.809"/>
    <entry producer="chain1" in="0:00:33.811" out="0:00:33.814"/>
    <entry producer="chain1" in="0:00:33.816" out="0:00:33.820"/>
    <entry producer="chain1" in="0:00:33.863" out="0:00:33.866"/>
    <entry producer="chain1" in="0:00:33.888" out="0:00:33.891"/>
    <entry producer="chain1" in="0:00:33.916" out="0:00:33.918"/>
    <entry producer="chain1" in="0:00:33.920" out="0:00:33.922"/>
    <entry producer="chain1" in="0:00:33.977" out="0:00:33.979"/>
    <entry producer="chain1" in="0:00:33.990" out="0:00:33.993"/>
    <entry producer="chain1" in="0:00:34.031" out="0:00:34.036"/>
    <entry producer="chain1" in="0:00:34.038" out="0:00:34.746"/>
    <entry producer="chain1" in="0:00:34.748" out="0:00:34.750"/>
    <entry producer="chain1" in="0:00:34.752" out="0:00:34.761"/>
    <entry producer="chain1" in="0:00:34.768" out="0:00:34.770"/>
    <entry producer="chain1" in="0:00:34.773" out="0:00:34.775"/>
    <entry producer="chain1" in="0:00:34.777" out="0:00:34.782"/>
    <entry producer="chain1" in="0:00:34.786" out="0:00:34.795"/>
    <entry producer="chain1" in="0:00:34.800" out="0:00:34.802"/>
    <entry producer="chain1" in="0:00:34.804" out="0:00:34.825"/>
    <entry producer="chain1" in="0:00:34.829" out="0:00:34.832"/>
    <entry producer="chain1" in="0:00:34.843" out="0:00:34.859"/>
    <entry producer="chain1" in="0:00:34.861" out="0:00:34.895"/>
    <entry producer="chain1" in="0:00:34.900" out="0:00:34.902"/>
    <entry producer="chain1" in="0:00:34.920" out="0:00:34.934"/>
    <entry producer="chain1" in="0:00:34.936" out="0:00:34.970"/>
    <entry producer="chain1" in="0:00:34.990" out="0:00:35.022"/>
    <entry producer="chain1" in="0:00:35.024" out="0:00:35.027"/>
    <entry producer="chain1" in="0:00:35.045" out="0:00:35.047"/>
    <entry producer="chain1" in="0:00:35.058" out="0:00:35.063"/>
    <entry producer="chain1" in="0:00:35.065" out="0:00:35.088"/>
    <entry producer="chain1" in="0:00:35.092" out="0:00:35.097"/>
    <entry producer="chain1" in="0:00:35.115" out="0:00:35.124"/>
    <entry producer="chain1" in="0:00:35.126" out="0:00:35.129"/>
    <entry producer="chain1" in="0:00:35.131" out="0:00:35.133"/>
    <entry producer="chain1" in="0:00:35.138" out="0:00:35.163"/>
    <entry producer="chain1" in="0:00:35.165" out="0:00:35.167"/>
    <entry producer="chain1" in="0:00:35.192" out="0:00:35.197"/>
    <entry producer="chain1" in="0:00:35.199" out="0:00:35.201"/>
    <entry producer="chain1" in="0:00:35.204" out="0:00:35.206"/>
    <entry producer="chain1" in="0:00:35.208" out="0:00:35.231"/>
    <entry producer="chain1" in="0:00:35.265" out="0:00:35.267"/>
    <entry producer="chain1" in="0:00:35.272" out="0:00:35.274"/>
    <entry producer="chain1" in="0:00:35.285" out="0:00:35.294"/>
    <entry producer="chain1" in="0:00:35.297" out="0:00:35.299"/>
    <entry producer="chain1" in="0:00:35.317" out="0:00:35.319"/>
    <entry producer="chain1" in="0:00:35.337" out="0:00:35.340"/>
    <entry producer="chain1" in="0:00:35.344" out="0:00:35.346"/>
    <entry producer="chain1" in="0:00:35.358" out="0:00:35.369"/>
    <entry producer="chain1" in="0:00:35.387" out="0:00:35.390"/>
    <entry producer="chain1" in="0:00:35.414" out="0:00:35.417"/>
    <entry producer="chain1" in="0:00:35.421" out="0:00:35.424"/>
    <entry producer="chain1" in="0:00:35.428" out="0:00:35.444"/>
    <entry producer="chain1" in="0:00:35.503" out="0:00:35.512"/>
    <entry producer="chain1" in="0:00:35.514" out="0:00:35.517"/>
    <entry producer="chain1" in="0:00:35.519" out="0:00:35.521"/>
    <entry producer="chain1" in="0:00:35.575" out="0:00:35.587"/>
    <entry producer="chain1" in="0:00:35.589" out="0:00:35.591"/>
    <entry producer="chain1" in="0:00:35.607" out="0:00:35.609"/>
    <entry producer="chain1" in="0:00:35.612" out="0:00:35.614"/>
    <entry producer="chain1" in="0:00:35.619" out="0:00:35.623"/>
    <entry producer="chain1" in="0:00:35.648" out="0:00:35.879"/>
    <entry producer="chain1" in="0:00:35.884" out="0:00:35.886"/>
    <entry producer="chain1" in="0:00:35.888" out="0:00:35.895"/>
    <entry producer="chain1" in="0:00:35.897" out="0:00:35.900"/>
    <entry producer="chain1" in="0:00:35.907" out="0:00:35.909"/>
    <entry producer="chain1" in="0:00:35.918" out="0:00:35.920"/>
    <entry producer="chain1" in="0:00:35.925" out="0:00:35.927"/>
    <entry producer="chain1" in="0:00:35.931" out="0:00:36.437"/>
    <entry producer="chain1" in="0:00:36.439" out="0:00:36.539"/>
    <entry producer="chain1" in="0:00:36.544" out="0:00:36.548"/>
    <entry producer="chain1" in="0:00:36.551" out="0:00:36.553"/>
    <entry producer="chain1" in="0:00:36.555" out="0:00:36.562"/>
    <entry producer="chain1" in="0:00:36.564" out="0:00:36.600"/>
    <entry producer="chain1" in="0:00:36.603" out="0:00:36.609"/>
    <entry producer="chain1" in="0:00:36.628" out="0:00:36.630"/>
    <entry producer="chain1" in="0:00:36.632" out="0:00:36.634"/>
    <entry producer="chain1" in="0:00:36.643" out="0:00:36.646"/>
    <entry producer="chain1" in="0:00:36.673" out="0:00:36.678"/>
    <entry producer="chain1" in="0:00:36.698" out="0:00:36.700"/>
    <entry producer="chain1" in="0:00:36.702" out="0:00:36.705"/>
    <entry producer="chain1" in="0:00:36.714" out="0:00:36.716"/>
    <entry producer="chain1" in="0:00:36.734" out="0:00:36.736"/>
    <entry producer="chain1" in="0:00:36.773" out="0:00:36.775"/>
    <entry producer="chain1" in="0:00:36.786" out="0:00:36.789"/>
    <entry producer="chain1" in="0:00:36.827" out="0:00:36.832"/>
    <entry producer="chain1" in="0:00:36.836" out="0:00:36.841"/>
    <entry producer="chain1" in="0:00:36.848" out="0:00:36.850"/>
    <entry producer="chain1" in="0:00:36.857" out="0:00:36.868"/>
    <entry producer="chain1" in="0:00:36.870" out="0:00:36.873"/>
    <entry producer="chain1" in="0:00:36.875" out="0:00:36.877"/>
    <entry producer="chain1" in="0:00:36.927" out="0:00:36.941"/>
    <entry producer="chain1" in="0:00:37.000" out="0:00:37.004"/>
    <entry producer="chain1" in="0:00:37.006" out="0:00:37.011"/>
    <entry producer="chain1" in="0:00:37.072" out="0:00:37.074"/>
    <entry producer="chain1" in="0:00:37.079" out="0:00:37.081"/>
    <entry producer="chain1" in="0:00:37.124" out="0:00:37.126"/>
    <entry producer="chain1" in="0:00:37.147" out="0:00:37.149"/>
    <entry producer="chain1" in="0:00:37.154" out="0:00:37.156"/>
    <entry producer="chain1" in="0:00:37.160" out="0:00:37.165"/>
    <entry producer="chain1" in="0:00:37.176" out="0:00:37.179"/>
    <entry producer="chain1" in="0:00:37.181" out="0:00:37.185"/>
    <entry producer="chain1" in="0:00:37.188" out="0:00:37.269"/>
    <entry producer="chain1" in="0:00:37.272" out="0:00:37.496"/>
    <entry producer="chain1" in="0:00:37.501" out="0:00:37.555"/>
    <entry producer="chain1" in="0:00:37.557" out="0:00:37.560"/>
    <entry producer="chain1" in="0:00:37.564" out="0:00:37.571"/>
    <entry producer="chain1" in="0:00:37.573" out="0:00:37.575"/>
    <entry producer="chain1" in="0:00:37.578" out="0:00:37.591"/>
    <entry producer="chain1" in="0:00:37.594" out="0:00:37.600"/>
    <entry producer="chain1" in="0:00:37.603" out="0:00:37.727"/>
    <entry producer="chain1" in="0:00:37.732" out="0:00:37.741"/>
    <entry producer="chain1" in="0:00:37.743" out="0:00:37.746"/>
    <entry producer="chain1" in="0:00:37.748" out="0:00:37.750"/>
    <entry producer="chain1" in="0:00:37.752" out="0:00:37.755"/>
    <entry producer="chain1" in="0:00:37.757" out="0:00:37.759"/>
    <entry producer="chain1" in="0:00:37.761" out="0:00:37.770"/>
    <entry producer="chain1" in="0:00:37.782" out="0:00:37.791"/>
    <entry producer="chain1" in="0:00:37.798" out="0:00:37.800"/>
    <entry producer="chain1" in="0:00:37.807" out="0:00:37.811"/>
    <entry producer="chain1" in="0:00:37.818" out="0:00:37.823"/>
    <entry producer="chain1" in="0:00:37.825" out="0:00:37.829"/>
    <entry producer="chain1" in="0:00:37.843" out="0:00:37.845"/>
    <entry producer="chain1" in="0:00:37.848" out="0:00:37.850"/>
    <entry producer="chain1" in="0:00:37.859" out="0:00:37.866"/>
    <entry producer="chain1" in="0:00:37.877" out="0:00:37.882"/>
    <entry producer="chain1" in="0:00:37.893" out="0:00:37.897"/>
    <entry producer="chain1" in="0:00:37.911" out="0:00:37.918"/>
    <entry producer="chain1" in="0:00:37.929" out="0:00:37.931"/>
    <entry producer="chain1" in="0:00:37.938" out="0:00:37.941"/>
    <entry producer="chain1" in="0:00:37.954" out="0:00:37.956"/>
    <entry producer="chain1" in="0:00:37.961" out="0:00:37.970"/>
    <entry producer="chain1" in="0:00:37.995" out="0:00:37.997"/>
    <entry producer="chain1" in="0:00:38.000" out="0:00:38.002"/>
    <entry producer="chain1" in="0:00:38.024" out="0:00:38.027"/>
    <entry producer="chain1" in="0:00:38.034" out="0:00:38.036"/>
    <entry producer="chain1" in="0:00:38.063" out="0:00:38.077"/>
    <entry producer="chain1" in="0:00:38.086" out="0:00:38.088"/>
    <entry producer="chain1" in="0:00:38.097" out="0:00:38.102"/>
    <entry producer="chain1" in="0:00:38.117" out="0:00:38.120"/>
    <entry producer="chain1" in="0:00:38.124" out="0:00:38.126"/>
    <entry producer="chain1" in="0:00:38.142" out="0:00:38.145"/>
    <entry producer="chain1" in="0:00:38.158" out="0:00:38.160"/>
    <entry producer="chain1" in="0:00:38.172" out="0:00:38.174"/>
    <entry producer="chain1" in="0:00:38.188" out="0:00:38.190"/>
    <entry producer="chain1" in="0:00:38.195" out="0:00:38.197"/>
    <entry producer="chain1" in="0:00:38.199" out="0:00:38.201"/>
    <entry producer="chain1" in="0:00:38.204" out="0:00:38.206"/>
    <entry producer="chain1" in="0:00:38.219" out="0:00:38.222"/>
    <entry producer="chain1" in="0:00:38.231" out="0:00:38.233"/>
    <entry producer="chain1" in="0:00:38.240" out="0:00:38.242"/>
    <entry producer="chain1" in="0:00:38.244" out="0:00:38.247"/>
    <entry producer="chain1" in="0:00:38.315" out="0:00:38.317"/>
    <entry producer="chain1" in="0:00:38.346" out="0:00:38.349"/>
    <entry producer="chain1" in="0:00:38.390" out="0:00:38.392"/>
    <entry producer="chain1" in="0:00:38.446" out="0:00:38.464"/>
    <entry producer="chain1" in="0:00:38.489" out="0:00:38.492"/>
    <entry producer="chain1" in="0:00:38.530" out="0:00:38.736"/>
    <entry producer="chain1" in="0:00:38.739" out="0:00:38.741"/>
    <entry producer="chain1" in="0:00:38.746" out="0:00:38.750"/>
    <entry producer="chain1" in="0:00:38.757" out="0:00:39.156"/>
    <entry producer="chain1" in="0:00:39.158" out="0:00:39.213"/>
    <entry producer="chain1" in="0:00:39.215" out="0:00:39.238"/>
    <entry producer="chain1" in="0:00:39.240" out="0:00:39.258"/>
    <entry producer="chain1" in="0:00:39.260" out="0:00:39.267"/>
    <entry producer="chain1" in="0:00:39.269" out="0:00:39.278"/>
    <entry producer="chain1" in="0:00:39.281" out="0:00:39.297"/>
    <entry producer="chain1" in="0:00:39.299" out="0:00:39.303"/>
    <entry producer="chain1" in="0:00:39.306" out="0:00:39.326"/>
    <entry producer="chain1" in="0:00:39.331" out="0:00:39.340"/>
    <entry producer="chain1" in="0:00:39.342" out="0:00:39.349"/>
    <entry producer="chain1" in="0:00:39.351" out="0:00:39.356"/>
    <entry producer="chain1" in="0:00:39.369" out="0:00:39.374"/>
    <entry producer="chain1" in="0:00:39.378" out="0:00:39.380"/>
    <entry producer="chain1" in="0:00:39.383" out="0:00:39.385"/>
    <entry producer="chain1" in="0:00:39.408" out="0:00:39.410"/>
    <entry producer="chain1" in="0:00:39.430" out="0:00:39.435"/>
    <entry producer="chain1" in="0:00:39.444" out="0:00:39.700"/>
    <entry producer="chain1" in="0:00:39.709" out="0:00:39.721"/>
    <entry producer="chain1" in="0:00:39.723" out="0:00:39.725"/>
    <entry producer="chain1" in="0:00:39.732" out="0:00:40.133"/>
    <entry producer="chain1" in="0:00:40.136" out="0:00:40.147"/>
    <entry producer="chain1" in="0:00:40.149" out="0:00:40.253"/>
    <entry producer="chain1" in="0:00:40.269" out="0:00:40.272"/>
    <entry producer="chain1" in="0:00:40.285" out="0:00:40.287"/>
    <entry producer="chain1" in="0:00:40.297" out="0:00:40.299"/>
    <entry producer="chain1" in="0:00:40.306" out="0:00:40.310"/>
    <entry producer="chain1" in="0:00:40.315" out="0:00:40.503"/>
    <entry producer="chain1" in="0:00:40.505" out="0:00:40.535"/>
    <entry producer="chain1" in="0:00:40.537" out="0:00:40.544"/>
    <entry producer="chain1" in="0:00:40.551" out="0:00:40.553"/>
    <entry producer="chain1" in="0:00:40.560" out="0:00:40.562"/>
    <entry producer="chain1" in="0:00:40.566" out="0:00:40.571"/>
    <entry producer="chain1" in="0:00:40.573" out="0:00:40.578"/>
    <entry producer="chain1" in="0:00:40.582" out="0:00:40.603"/>
    <entry producer="chain1" in="0:00:40.630" out="0:00:40.641"/>
    <entry producer="chain1" in="0:00:40.648" out="0:00:40.653"/>
    <entry producer="chain1" in="0:00:40.662" out="0:00:40.664"/>
    <entry producer="chain1" in="0:00:40.668" out="0:00:40.675"/>
    <entry producer="chain1" in="0:00:40.700" out="0:00:40.705"/>
    <entry producer="chain1" in="0:00:40.716" out="0:00:40.718"/>
    <entry producer="chain1" in="0:00:40.723" out="0:00:40.730"/>
    <entry producer="chain1" in="0:00:40.739" out="0:00:40.741"/>
    <entry producer="chain1" in="0:00:40.743" out="0:00:40.746"/>
    <entry producer="chain1" in="0:00:40.768" out="0:00:40.773"/>
    <entry producer="chain1" in="0:00:40.795" out="0:00:40.800"/>
    <entry producer="chain1" in="0:00:40.807" out="0:00:40.809"/>
    <entry producer="chain1" in="0:00:40.832" out="0:00:40.836"/>
    <entry producer="chain1" in="0:00:40.848" out="0:00:40.850"/>
    <entry producer="chain1" in="0:00:40.859" out="0:00:40.861"/>
    <entry producer="chain1" in="0:00:40.866" out="0:00:40.870"/>
    <entry producer="chain1" in="0:00:40.873" out="0:00:40.879"/>
    <entry producer="chain1" in="0:00:40.886" out="0:00:40.888"/>
    <entry producer="chain1" in="0:00:40.941" out="0:00:40.943"/>
    <entry producer="chain1" in="0:00:40.975" out="0:00:40.977"/>
    <entry producer="chain1" in="0:00:40.984" out="0:00:40.986"/>
    <entry producer="chain1" in="0:00:41.002" out="0:00:41.022"/>
    <entry producer="chain1" in="0:00:41.024" out="0:00:41.038"/>
    <entry producer="chain1" in="0:00:41.047" out="0:00:41.063"/>
    <entry producer="chain1" in="0:00:41.077" out="0:00:41.079"/>
    <entry producer="chain1" in="0:00:41.086" out="0:00:41.099"/>
    <entry producer="chain1" in="0:00:41.104" out="0:00:41.106"/>
    <entry producer="chain1" in="0:00:41.111" out="0:00:41.113"/>
    <entry producer="chain1" in="0:00:41.126" out="0:00:41.138"/>
    <entry producer="chain1" in="0:00:41.145" out="0:00:41.149"/>
    <entry producer="chain1" in="0:00:41.151" out="0:00:41.158"/>
    <entry producer="chain1" in="0:00:41.163" out="0:00:41.165"/>
    <entry producer="chain1" in="0:00:41.213" out="0:00:41.217"/>
    <entry producer="chain1" in="0:00:41.219" out="0:00:41.222"/>
    <entry producer="chain1" in="0:00:41.226" out="0:00:41.233"/>
    <entry producer="chain1" in="0:00:41.242" out="0:00:41.265"/>
    <entry producer="chain1" in="0:00:41.269" out="0:00:41.294"/>
    <entry producer="chain1" in="0:00:41.301" out="0:00:41.303"/>
    <entry producer="chain1" in="0:00:41.312" out="0:00:41.317"/>
    <entry producer="chain1" in="0:00:41.319" out="0:00:41.337"/>
    <entry producer="chain1" in="0:00:41.344" out="0:00:41.349"/>
    <entry producer="chain1" in="0:00:41.353" out="0:00:41.367"/>
    <entry producer="chain1" in="0:00:41.374" out="0:00:41.376"/>
    <entry producer="chain1" in="0:00:41.385" out="0:00:41.408"/>
    <entry producer="chain1" in="0:00:41.412" out="0:00:41.424"/>
    <entry producer="chain1" in="0:00:41.426" out="0:00:41.430"/>
    <entry producer="chain1" in="0:00:41.433" out="0:00:41.439"/>
    <entry producer="chain1" in="0:00:41.444" out="0:00:41.448"/>
    <entry producer="chain1" in="0:00:41.455" out="0:00:41.485"/>
    <entry producer="chain1" in="0:00:41.487" out="0:00:41.489"/>
    <entry producer="chain1" in="0:00:41.492" out="0:00:41.514"/>
    <entry producer="chain1" in="0:00:41.519" out="0:00:41.521"/>
    <entry producer="chain1" in="0:00:41.528" out="0:00:41.539"/>
    <entry producer="chain1" in="0:00:41.541" out="0:00:41.546"/>
    <entry producer="chain1" in="0:00:41.548" out="0:00:41.555"/>
    <entry producer="chain1" in="0:00:41.557" out="0:00:41.560"/>
    <entry producer="chain1" in="0:00:41.562" out="0:00:41.564"/>
    <entry producer="chain1" in="0:00:41.571" out="0:00:41.573"/>
    <entry producer="chain1" in="0:00:41.575" out="0:00:41.578"/>
    <entry producer="chain1" in="0:00:41.580" out="0:00:41.582"/>
    <entry producer="chain1" in="0:00:41.589" out="0:00:41.591"/>
    <entry producer="chain1" in="0:00:41.600" out="0:00:41.609"/>
    <entry producer="chain1" in="0:00:41.612" out="0:00:41.630"/>
    <entry producer="chain1" in="0:00:41.634" out="0:00:41.641"/>
    <entry producer="chain1" in="0:00:41.653" out="0:00:41.657"/>
    <entry producer="chain1" in="0:00:41.668" out="0:00:41.671"/>
    <entry producer="chain1" in="0:00:41.675" out="0:00:41.687"/>
    <entry producer="chain1" in="0:00:41.691" out="0:00:41.693"/>
    <entry producer="chain1" in="0:00:41.696" out="0:00:41.698"/>
    <entry producer="chain1" in="0:00:41.707" out="0:00:41.709"/>
    <entry producer="chain1" in="0:00:41.721" out="0:00:41.730"/>
    <entry producer="chain1" in="0:00:41.734" out="0:00:41.739"/>
    <entry producer="chain1" in="0:00:41.743" out="0:00:41.757"/>
    <entry producer="chain1" in="0:00:41.764" out="0:00:41.775"/>
    <entry producer="chain1" in="0:00:41.777" out="0:00:41.795"/>
    <entry producer="chain1" in="0:00:41.798" out="0:00:41.809"/>
    <entry producer="chain1" in="0:00:41.811" out="0:00:41.814"/>
    <entry producer="chain1" in="0:00:41.816" out="0:00:42.131"/>
    <entry producer="chain1" in="0:00:42.133" out="0:00:43.172"/>
    <entry producer="chain1" in="0:00:43.174" out="0:00:43.181"/>
    <entry producer="chain1" in="0:00:43.183" out="0:00:43.224"/>
    <entry producer="chain1" in="0:00:43.226" out="0:00:43.240"/>
    <entry producer="chain1" in="0:00:43.244" out="0:00:43.256"/>
    <entry producer="chain1" in="0:00:43.263" out="0:00:43.267"/>
    <entry producer="chain1" in="0:00:43.269" out="0:00:43.272"/>
    <entry producer="chain1" in="0:00:43.274" out="0:00:43.276"/>
    <entry producer="chain1" in="0:00:43.281" out="0:00:43.283"/>
    <entry producer="chain1" in="0:00:43.306" out="0:00:43.310"/>
    <entry producer="chain1" in="0:00:43.369" out="0:00:43.371"/>
    <entry producer="chain1" in="0:00:43.412" out="0:00:43.414"/>
    <entry producer="chain1" in="0:00:43.428" out="0:00:43.430"/>
    <entry producer="chain1" in="0:00:43.451" out="0:00:43.453"/>
    <entry producer="chain1" in="0:00:43.455" out="0:00:43.458"/>
    <entry producer="chain1" in="0:00:43.460" out="0:00:43.462"/>
    <entry producer="chain1" in="0:00:43.492" out="0:00:43.496"/>
    <entry producer="chain1" in="0:00:43.501" out="0:00:43.503"/>
    <entry producer="chain1" in="0:00:43.505" out="0:00:43.514"/>
    <entry producer="chain1" in="0:00:43.517" out="0:00:43.530"/>
    <entry producer="chain1" in="0:00:43.535" out="0:00:43.539"/>
    <entry producer="chain1" in="0:00:43.544" out="0:00:43.546"/>
    <entry producer="chain1" in="0:00:43.548" out="0:00:43.566"/>
    <entry producer="chain1" in="0:00:43.571" out="0:00:43.573"/>
    <entry producer="chain1" in="0:00:43.575" out="0:00:43.612"/>
    <entry producer="chain1" in="0:00:43.614" out="0:00:43.643"/>
    <entry producer="chain1" in="0:00:43.684" out="0:00:43.691"/>
    <entry producer="chain1" in="0:00:43.693" out="0:00:43.700"/>
    <entry producer="chain1" in="0:00:43.709" out="0:00:43.712"/>
    <entry producer="chain1" in="0:00:43.718" out="0:00:43.897"/>
    <entry producer="chain1" in="0:00:43.900" out="0:00:43.902"/>
    <entry producer="chain1" in="0:00:43.904" out="0:00:43.909"/>
    <entry producer="chain1" in="0:00:43.911" out="0:00:43.913"/>
    <entry producer="chain1" in="0:00:43.916" out="0:00:43.918"/>
    <entry producer="chain1" in="0:00:43.920" out="0:00:43.922"/>
    <entry producer="chain1" in="0:00:43.929" out="0:00:43.931"/>
    <entry producer="chain1" in="0:00:43.934" out="0:00:43.941"/>
    <entry producer="chain1" in="0:00:43.943" out="0:00:44.120"/>
    <entry producer="chain1" in="0:00:44.122" out="0:00:45.417"/>
    <entry producer="chain1" in="0:00:45.424" out="0:00:45.433"/>
    <entry producer="chain1" in="0:00:45.439" out="0:00:45.444"/>
    <entry producer="chain1" in="0:00:45.458" out="0:00:45.460"/>
    <entry producer="chain1" in="0:00:45.498" out="0:00:45.505"/>
    <entry producer="chain1" in="0:00:45.535" out="0:00:45.541"/>
    <entry producer="chain1" in="0:00:45.578" out="0:00:45.580"/>
    <entry producer="chain1" in="0:00:45.591" out="0:00:45.594"/>
    <entry producer="chain1" in="0:00:45.598" out="0:00:45.605"/>
    <entry producer="chain1" in="0:00:45.609" out="0:00:45.614"/>
    <entry producer="chain1" in="0:00:45.619" out="0:00:45.623"/>
    <entry producer="chain1" in="0:00:45.625" out="0:00:45.632"/>
    <entry producer="chain1" in="0:00:45.634" out="0:00:45.637"/>
    <entry producer="chain1" in="0:00:45.639" out="0:00:45.648"/>
    <entry producer="chain1" in="0:00:45.655" out="0:00:45.682"/>
    <entry producer="chain1" in="0:00:45.684" out="0:00:45.687"/>
    <entry producer="chain1" in="0:00:45.691" out="0:00:45.698"/>
    <entry producer="chain1" in="0:00:45.700" out="0:00:45.707"/>
    <entry producer="chain1" in="0:00:45.712" out="0:00:45.727"/>
    <entry producer="chain1" in="0:00:45.730" out="0:00:45.757"/>
    <entry producer="chain1" in="0:00:45.759" out="0:00:45.784"/>
    <entry producer="chain1" in="0:00:45.786" out="0:00:45.807"/>
    <entry producer="chain1" in="0:00:45.809" out="0:00:45.834"/>
    <entry producer="chain1" in="0:00:45.836" out="0:00:45.870"/>
    <entry producer="chain1" in="0:00:45.873" out="0:00:45.920"/>
    <entry producer="chain1" in="0:00:45.922" out="0:00:45.943"/>
    <entry producer="chain1" in="0:00:45.945" out="0:00:45.954"/>
    <entry producer="chain1" in="0:00:45.956" out="0:00:45.988"/>
    <entry producer="chain1" in="0:00:45.990" out="0:00:46.004"/>
    <entry producer="chain1" in="0:00:46.006" out="0:00:46.011"/>
    <entry producer="chain1" in="0:00:46.013" out="0:00:46.045"/>
    <entry producer="chain1" in="0:00:46.047" out="0:00:46.052"/>
    <entry producer="chain1" in="0:00:46.056" out="0:00:46.072"/>
    <entry producer="chain1" in="0:00:46.077" out="0:00:46.083"/>
    <entry producer="chain1" in="0:00:46.086" out="0:00:46.102"/>
    <entry producer="chain1" in="0:00:46.104" out="0:00:46.108"/>
    <entry producer="chain1" in="0:00:46.111" out="0:00:46.122"/>
    <entry producer="chain1" in="0:00:46.126" out="0:00:46.129"/>
    <entry producer="chain1" in="0:00:46.136" out="0:00:46.140"/>
    <entry producer="chain1" in="0:00:46.142" out="0:00:46.151"/>
    <entry producer="chain1" in="0:00:46.165" out="0:00:46.172"/>
    <entry producer="chain1" in="0:00:46.181" out="0:00:46.195"/>
    <entry producer="chain1" in="0:00:46.206" out="0:00:46.208"/>
    <entry producer="chain1" in="0:00:46.222" out="0:00:46.224"/>
    <entry producer="chain1" in="0:00:46.244" out="0:00:46.249"/>
    <entry producer="chain1" in="0:00:46.253" out="0:00:46.589"/>
    <entry producer="chain1" in="0:00:46.594" out="0:00:46.634"/>
    <entry producer="chain1" in="0:00:46.637" out="0:00:46.639"/>
    <entry producer="chain1" in="0:00:46.655" out="0:00:46.671"/>
    <entry producer="chain1" in="0:00:46.673" out="0:00:46.678"/>
    <entry producer="chain1" in="0:00:46.680" out="0:00:46.682"/>
    <entry producer="chain1" in="0:00:46.684" out="0:00:46.691"/>
    <entry producer="chain1" in="0:00:46.693" out="0:00:46.696"/>
    <entry producer="chain1" in="0:00:46.698" out="0:00:46.712"/>
    <entry producer="chain1" in="0:00:46.718" out="0:00:46.721"/>
    <entry producer="chain1" in="0:00:46.734" out="0:00:46.741"/>
    <entry producer="chain1" in="0:00:46.752" out="0:00:46.759"/>
    <entry producer="chain1" in="0:00:46.761" out="0:00:46.766"/>
    <entry producer="chain1" in="0:00:46.768" out="0:00:46.782"/>
    <entry producer="chain1" in="0:00:46.784" out="0:00:47.158"/>
    <entry producer="chain1" in="0:00:47.160" out="0:00:47.165"/>
    <entry producer="chain1" in="0:00:47.167" out="0:00:47.827"/>
    <entry producer="chain1" in="0:00:47.829" out="0:00:47.834"/>
    <entry producer="chain1" in="0:00:47.836" out="0:00:47.839"/>
    <entry producer="chain1" in="0:00:47.841" out="0:00:47.848"/>
    <entry producer="chain1" in="0:00:47.852" out="0:00:47.861"/>
    <entry producer="chain1" in="0:00:47.863" out="0:00:48.478"/>
    <entry producer="chain1" in="0:00:48.480" out="0:00:48.485"/>
    <entry producer="chain1" in="0:00:48.489" out="0:00:48.544"/>
    <entry producer="chain1" in="0:00:48.548" out="0:00:48.551"/>
    <entry producer="chain1" in="0:00:48.553" out="0:00:48.560"/>
    <entry producer="chain1" in="0:00:48.562" out="0:00:48.566"/>
    <entry producer="chain1" in="0:00:48.571" out="0:00:48.705"/>
    <entry producer="chain1" in="0:00:48.709" out="0:00:49.183"/>
    <entry producer="chain1" in="0:00:49.185" out="0:00:49.195"/>
    <entry producer="chain1" in="0:00:49.199" out="0:00:49.861"/>
    <entry producer="chain1" in="0:00:49.863" out="0:00:49.868"/>
    <entry producer="chain1" in="0:00:49.873" out="0:00:49.875"/>
    <entry producer="chain1" in="0:00:49.884" out="0:00:49.888"/>
    <entry producer="chain1" in="0:00:49.893" out="0:00:49.895"/>
    <entry producer="chain1" in="0:00:49.897" out="0:00:49.902"/>
    <entry producer="chain1" in="0:00:49.907" out="0:00:49.909"/>
    <entry producer="chain1" in="0:00:49.916" out="0:00:49.918"/>
    <entry producer="chain1" in="0:00:49.920" out="0:00:49.925"/>
    <entry producer="chain1" in="0:00:49.929" out="0:00:49.938"/>
    <entry producer="chain1" in="0:00:49.961" out="0:00:49.963"/>
    <entry producer="chain1" in="0:00:49.972" out="0:00:49.975"/>
    <entry producer="chain1" in="0:00:49.979" out="0:00:49.981"/>
    <entry producer="chain1" in="0:00:49.990" out="0:00:49.993"/>
    <entry producer="chain1" in="0:00:49.995" out="0:00:50.004"/>
    <entry producer="chain1" in="0:00:50.043" out="0:00:50.045"/>
    <entry producer="chain1" in="0:00:50.065" out="0:00:50.070"/>
    <entry producer="chain1" in="0:00:50.072" out="0:00:50.077"/>
    <entry producer="chain1" in="0:00:50.113" out="0:00:50.115"/>
    <entry producer="chain1" in="0:00:50.142" out="0:00:50.145"/>
    <entry producer="chain1" in="0:00:50.147" out="0:00:50.149"/>
    <entry producer="chain1" in="0:00:50.158" out="0:00:50.160"/>
    <entry producer="chain1" in="0:00:50.183" out="0:00:50.188"/>
    <entry producer="chain1" in="0:00:50.208" out="0:00:50.210"/>
    <entry producer="chain1" in="0:00:50.217" out="0:00:50.219"/>
    <entry producer="chain1" in="0:00:50.253" out="0:00:50.256"/>
    <entry producer="chain1" in="0:00:50.278" out="0:00:50.281"/>
    <entry producer="chain1" in="0:00:50.285" out="0:00:50.287"/>
    <entry producer="chain1" in="0:00:50.315" out="0:00:50.317"/>
    <entry producer="chain1" in="0:00:50.324" out="0:00:50.331"/>
    <entry producer="chain1" in="0:00:50.344" out="0:00:50.353"/>
    <entry producer="chain1" in="0:00:50.365" out="0:00:50.374"/>
    <entry producer="chain1" in="0:00:50.376" out="0:00:50.380"/>
    <entry producer="chain1" in="0:00:50.385" out="0:00:50.387"/>
    <entry producer="chain1" in="0:00:50.390" out="0:00:50.634"/>
    <entry producer="chain1" in="0:00:50.637" out="0:00:50.641"/>
    <entry producer="chain1" in="0:00:50.650" out="0:00:50.884"/>
    <entry producer="chain1" in="0:00:50.886" out="0:00:50.907"/>
    <entry producer="chain1" in="0:00:50.909" out="0:00:50.916"/>
    <entry producer="chain1" in="0:00:50.918" out="0:00:50.920"/>
    <entry producer="chain1" in="0:00:50.925" out="0:00:51.496"/>
    <entry producer="chain1" in="0:00:51.498" out="0:00:51.507"/>
    <entry producer="chain1" in="0:00:51.519" out="0:00:51.553"/>
    <entry producer="chain1" in="0:00:51.562" out="0:00:51.564"/>
    <entry producer="chain1" in="0:00:51.596" out="0:00:51.628"/>
    <entry producer="chain1" in="0:00:51.630" out="0:00:51.632"/>
    <entry producer="chain1" in="0:00:51.637" out="0:00:51.648"/>
    <entry producer="chain1" in="0:00:51.659" out="0:00:51.662"/>
    <entry producer="chain1" in="0:00:51.664" out="0:00:51.666"/>
    <entry producer="chain1" in="0:00:51.671" out="0:00:51.693"/>
    <entry producer="chain1" in="0:00:51.696" out="0:00:51.702"/>
    <entry producer="chain1" in="0:00:51.705" out="0:00:51.712"/>
    <entry producer="chain1" in="0:00:51.714" out="0:00:51.716"/>
    <entry producer="chain1" in="0:00:51.718" out="0:00:51.721"/>
    <entry producer="chain1" in="0:00:51.723" out="0:00:51.725"/>
    <entry producer="chain1" in="0:00:51.727" out="0:00:51.761"/>
    <entry producer="chain1" in="0:00:51.764" out="0:00:51.786"/>
    <entry producer="chain1" in="0:00:51.789" out="0:00:51.802"/>
    <entry producer="chain1" in="0:00:51.804" out="0:00:51.843"/>
    <entry producer="chain1" in="0:00:51.848" out="0:00:51.852"/>
    <entry producer="chain1" in="0:00:51.854" out="0:00:51.859"/>
    <entry producer="chain1" in="0:00:51.861" out="0:00:51.866"/>
    <entry producer="chain1" in="0:00:51.868" out="0:00:51.870"/>
    <entry producer="chain1" in="0:00:51.873" out="0:00:51.882"/>
    <entry producer="chain1" in="0:00:51.884" out="0:00:51.891"/>
    <entry producer="chain1" in="0:00:51.893" out="0:00:51.900"/>
    <entry producer="chain1" in="0:00:51.907" out="0:00:51.909"/>
    <entry producer="chain1" in="0:00:51.916" out="0:00:51.920"/>
    <entry producer="chain1" in="0:00:51.931" out="0:00:51.934"/>
    <entry producer="chain1" in="0:00:51.950" out="0:00:51.979"/>
    <entry producer="chain1" in="0:00:51.984" out="0:00:51.988"/>
    <entry producer="chain1" in="0:00:51.990" out="0:00:51.995"/>
    <entry producer="chain1" in="0:00:52.000" out="0:00:52.002"/>
    <entry producer="chain1" in="0:00:52.022" out="0:00:52.052"/>
    <entry producer="chain1" in="0:00:52.056" out="0:00:52.061"/>
    <entry producer="chain1" in="0:00:52.065" out="0:00:52.068"/>
    <entry producer="chain1" in="0:00:52.070" out="0:00:52.072"/>
    <entry producer="chain1" in="0:00:52.088" out="0:00:52.090"/>
    <entry producer="chain1" in="0:00:52.092" out="0:00:52.501"/>
    <entry producer="chain1" in="0:00:52.503" out="0:00:52.585"/>
    <entry producer="chain1" in="0:00:52.587" out="0:00:52.589"/>
    <entry producer="chain1" in="0:00:52.598" out="0:00:52.603"/>
    <entry producer="chain1" in="0:00:52.609" out="0:00:52.616"/>
    <entry producer="chain1" in="0:00:52.641" out="0:00:52.648"/>
    <entry producer="chain1" in="0:00:52.684" out="0:00:52.687"/>
    <entry producer="chain1" in="0:00:52.702" out="0:00:52.882"/>
    <entry producer="chain1" in="0:00:52.884" out="0:00:52.891"/>
    <entry producer="chain1" in="0:00:52.893" out="0:00:52.895"/>
    <entry producer="chain1" in="0:00:52.902" out="0:00:52.904"/>
    <entry producer="chain1" in="0:00:52.909" out="0:00:52.911"/>
    <entry producer="chain1" in="0:00:52.913" out="0:00:52.920"/>
    <entry producer="chain1" in="0:00:52.922" out="0:00:52.927"/>
    <entry producer="chain1" in="0:00:52.931" out="0:00:52.934"/>
    <entry producer="chain1" in="0:00:52.936" out="0:00:52.938"/>
    <entry producer="chain1" in="0:00:52.941" out="0:00:52.943"/>
    <entry producer="chain1" in="0:00:52.947" out="0:00:52.956"/>
    <entry producer="chain1" in="0:00:52.972" out="0:00:52.975"/>
    <entry producer="chain1" in="0:00:52.988" out="0:00:52.995"/>
    <entry producer="chain1" in="0:00:53.018" out="0:00:53.027"/>
    <entry producer="chain1" in="0:00:53.031" out="0:00:53.038"/>
    <entry producer="chain1" in="0:00:53.061" out="0:00:53.070"/>
    <entry producer="chain1" in="0:00:53.092" out="0:00:53.097"/>
    <entry producer="chain1" in="0:00:53.099" out="0:00:53.104"/>
    <entry producer="chain1" in="0:00:53.106" out="0:00:53.111"/>
    <entry producer="chain1" in="0:00:53.120" out="0:00:53.122"/>
    <entry producer="chain1" in="0:00:53.133" out="0:00:53.140"/>
    <entry producer="chain1" in="0:00:53.142" out="0:00:53.145"/>
    <entry producer="chain1" in="0:00:53.165" out="0:00:53.174"/>
    <entry producer="chain1" in="0:00:53.206" out="0:00:53.208"/>
    <entry producer="chain1" in="0:00:53.210" out="0:00:53.213"/>
    <entry producer="chain1" in="0:00:53.222" out="0:00:53.224"/>
    <entry producer="chain1" in="0:00:53.240" out="0:00:53.247"/>
    <entry producer="chain1" in="0:00:53.249" out="0:00:53.251"/>
    <entry producer="chain1" in="0:00:53.256" out="0:00:53.258"/>
    <entry producer="chain1" in="0:00:53.260" out="0:00:53.263"/>
    <entry producer="chain1" in="0:00:53.274" out="0:00:53.276"/>
    <entry producer="chain1" in="0:00:53.292" out="0:00:53.299"/>
    <entry producer="chain1" in="0:00:53.310" out="0:00:53.312"/>
    <entry producer="chain1" in="0:00:53.315" out="0:00:53.317"/>
    <entry producer="chain1" in="0:00:53.321" out="0:00:53.328"/>
    <entry producer="chain1" in="0:00:53.331" out="0:00:53.333"/>
    <entry producer="chain1" in="0:00:53.337" out="0:00:53.340"/>
    <entry producer="chain1" in="0:00:53.344" out="0:00:53.349"/>
    <entry producer="chain1" in="0:00:53.362" out="0:00:53.374"/>
    <entry producer="chain1" in="0:00:53.392" out="0:00:53.403"/>
    <entry producer="chain1" in="0:00:53.414" out="0:00:53.417"/>
    <entry producer="chain1" in="0:00:53.419" out="0:00:53.421"/>
    <entry producer="chain1" in="0:00:53.435" out="0:00:53.437"/>
    <entry producer="chain1" in="0:00:53.439" out="0:00:53.442"/>
    <entry producer="chain1" in="0:00:53.462" out="0:00:53.464"/>
    <entry producer="chain1" in="0:00:53.467" out="0:00:53.476"/>
    <entry producer="chain1" in="0:00:53.489" out="0:00:53.492"/>
    <entry producer="chain1" in="0:00:53.512" out="0:00:53.514"/>
    <entry producer="chain1" in="0:00:53.526" out="0:00:53.530"/>
    <entry producer="chain1" in="0:00:53.539" out="0:00:53.551"/>
    <entry producer="chain1" in="0:00:53.585" out="0:00:53.589"/>
    <entry producer="chain1" in="0:00:53.594" out="0:00:53.598"/>
    <entry producer="chain1" in="0:00:53.603" out="0:00:53.607"/>
    <entry producer="chain1" in="0:00:53.625" out="0:00:53.628"/>
    <entry producer="chain1" in="0:00:53.630" out="0:00:53.632"/>
    <entry producer="chain1" in="0:00:53.662" out="0:00:53.664"/>
    <entry producer="chain1" in="0:00:53.668" out="0:00:53.671"/>
    <entry producer="chain1" in="0:00:53.700" out="0:00:53.705"/>
    <entry producer="chain1" in="0:00:53.725" out="0:00:53.727"/>
    <entry producer="chain1" in="0:00:53.730" out="0:00:53.752"/>
    <entry producer="chain1" in="0:00:53.755" out="0:00:53.757"/>
    <entry producer="chain1" in="0:00:53.768" out="0:00:53.775"/>
    <entry producer="chain1" in="0:00:53.777" out="0:00:53.780"/>
    <entry producer="chain1" in="0:00:53.782" out="0:00:53.784"/>
    <entry producer="chain1" in="0:00:53.789" out="0:00:54.188"/>
    <entry producer="chain1" in="0:00:54.190" out="0:00:54.195"/>
    <entry producer="chain1" in="0:00:54.206" out="0:00:54.233"/>
    <entry producer="chain1" in="0:00:54.235" out="0:00:55.061"/>
    <entry producer="chain1" in="0:00:55.063" out="0:00:55.097"/>
    <entry producer="chain1" in="0:00:55.106" out="0:00:55.108"/>
    <entry producer="chain1" in="0:00:55.120" out="0:00:55.126"/>
    <entry producer="chain1" in="0:00:55.131" out="0:00:55.133"/>
    <entry producer="chain1" in="0:00:55.136" out="0:00:55.140"/>
    <entry producer="chain1" in="0:00:55.142" out="0:00:55.145"/>
    <entry producer="chain1" in="0:00:55.156" out="0:00:55.160"/>
    <entry producer="chain1" in="0:00:55.165" out="0:00:55.170"/>
    <entry producer="chain1" in="0:00:55.179" out="0:00:55.181"/>
    <entry producer="chain1" in="0:00:55.195" out="0:00:55.197"/>
    <entry producer="chain1" in="0:00:55.204" out="0:00:55.206"/>
    <entry producer="chain1" in="0:00:55.215" out="0:00:55.217"/>
    <entry producer="chain1" in="0:00:55.222" out="0:00:55.224"/>
    <entry producer="chain1" in="0:00:55.235" out="0:00:55.238"/>
    <entry producer="chain1" in="0:00:55.260" out="0:00:55.263"/>
    <entry producer="chain1" in="0:00:55.265" out="0:00:55.269"/>
    <entry producer="chain1" in="0:00:55.278" out="0:00:55.281"/>
    <entry producer="chain1" in="0:00:55.283" out="0:00:55.285"/>
    <entry producer="chain1" in="0:00:55.319" out="0:00:55.321"/>
    <entry producer="chain1" in="0:00:55.331" out="0:00:55.333"/>
    <entry producer="chain1" in="0:00:55.340" out="0:00:55.342"/>
    <entry producer="chain1" in="0:00:55.376" out="0:00:55.383"/>
    <entry producer="chain1" in="0:00:55.390" out="0:00:55.392"/>
    <entry producer="chain1" in="0:00:55.396" out="0:00:55.555"/>
    <entry producer="chain1" in="0:00:55.557" out="0:00:55.566"/>
    <entry producer="chain1" in="0:00:55.569" out="0:00:55.582"/>
    <entry producer="chain1" in="0:00:55.587" out="0:00:55.589"/>
    <entry producer="chain1" in="0:00:55.591" out="0:00:55.594"/>
    <entry producer="chain1" in="0:00:55.598" out="0:00:55.600"/>
    <entry producer="chain1" in="0:00:55.605" out="0:00:55.927"/>
    <entry producer="chain1" in="0:00:55.929" out="0:00:56.360"/>
    <entry producer="chain1" in="0:00:56.362" out="0:00:56.399"/>
    <entry producer="chain1" in="0:00:56.405" out="0:00:56.408"/>
    <entry producer="chain1" in="0:00:56.417" out="0:00:56.419"/>
    <entry producer="chain1" in="0:00:56.421" out="0:00:56.424"/>
    <entry producer="chain1" in="0:00:56.426" out="0:00:56.435"/>
    <entry producer="chain1" in="0:00:56.439" out="0:00:56.442"/>
    <entry producer="chain1" in="0:00:56.444" out="0:00:56.448"/>
    <entry producer="chain1" in="0:00:56.455" out="0:00:56.467"/>
    <entry producer="chain1" in="0:00:56.471" out="0:00:56.494"/>
    <entry producer="chain1" in="0:00:56.496" out="0:00:56.498"/>
    <entry producer="chain1" in="0:00:56.501" out="0:00:56.503"/>
    <entry producer="chain1" in="0:00:56.519" out="0:00:56.521"/>
    <entry producer="chain1" in="0:00:56.528" out="0:00:56.544"/>
    <entry producer="chain1" in="0:00:56.548" out="0:00:56.555"/>
    <entry producer="chain1" in="0:00:56.557" out="0:00:56.569"/>
    <entry producer="chain1" in="0:00:56.571" out="0:00:56.578"/>
    <entry producer="chain1" in="0:00:56.580" out="0:00:56.596"/>
    <entry producer="chain1" in="0:00:56.598" out="0:00:56.943"/>
    <entry producer="chain1" in="0:00:56.947" out="0:00:56.950"/>
    <entry producer="chain1" in="0:00:56.952" out="0:00:57.009"/>
    <entry producer="chain1" in="0:00:57.015" out="0:00:57.024"/>
    <entry producer="chain1" in="0:00:57.027" out="0:00:57.072"/>
    <entry producer="chain1" in="0:00:57.074" out="0:00:57.079"/>
    <entry producer="chain1" in="0:00:57.081" out="0:00:57.083"/>
    <entry producer="chain1" in="0:00:57.090" out="0:00:57.092"/>
    <entry producer="chain1" in="0:00:57.097" out="0:00:57.106"/>
    <entry producer="chain1" in="0:00:57.108" out="0:00:57.145"/>
    <entry producer="chain1" in="0:00:57.147" out="0:00:57.163"/>
    <entry producer="chain1" in="0:00:57.165" out="0:00:57.172"/>
    <entry producer="chain1" in="0:00:57.179" out="0:00:57.390"/>
    <entry producer="chain1" in="0:00:57.392" out="0:00:57.439"/>
    <entry producer="chain1" in="0:00:57.442" out="0:00:57.501"/>
    <entry producer="chain1" in="0:00:57.507" out="0:00:57.521"/>
    <entry producer="chain1" in="0:00:57.526" out="0:00:57.560"/>
    <entry producer="chain1" in="0:00:57.575" out="0:00:57.585"/>
    <entry producer="chain1" in="0:00:57.596" out="0:00:57.632"/>
    <entry producer="chain1" in="0:00:57.639" out="0:00:57.641"/>
    <entry producer="chain1" in="0:00:57.646" out="0:00:57.655"/>
    <entry producer="chain1" in="0:00:57.666" out="0:00:57.680"/>
    <entry producer="chain1" in="0:00:57.682" out="0:00:57.852"/>
    <entry producer="chain1" in="0:00:57.854" out="0:00:58.405"/>
    <entry producer="chain1" in="0:00:58.410" out="0:00:58.414"/>
    <entry producer="chain1" in="0:00:58.417" out="0:00:58.426"/>
    <entry producer="chain1" in="0:00:58.430" out="0:00:58.435"/>
    <entry producer="chain1" in="0:00:58.448" out="0:00:58.451"/>
    <entry producer="chain1" in="0:00:58.453" out="0:00:58.455"/>
    <entry producer="chain1" in="0:00:58.460" out="0:00:58.485"/>
    <entry producer="chain1" in="0:00:58.487" out="0:00:58.489"/>
    <entry producer="chain1" in="0:00:58.494" out="0:00:58.496"/>
    <entry producer="chain1" in="0:00:58.503" out="0:00:58.505"/>
    <entry producer="chain1" in="0:00:58.517" out="0:00:58.519"/>
    <entry producer="chain1" in="0:00:58.523" out="0:00:58.528"/>
    <entry producer="chain1" in="0:00:58.530" out="0:00:58.537"/>
    <entry producer="chain1" in="0:00:58.539" out="0:00:58.551"/>
    <entry producer="chain1" in="0:00:58.587" out="0:00:58.589"/>
    <entry producer="chain1" in="0:00:58.591" out="0:00:59.009"/>
    <entry producer="chain1" in="0:00:59.011" out="0:00:59.018"/>
    <entry producer="chain1" in="0:00:59.022" out="0:00:59.478"/>
    <entry producer="chain1" in="0:00:59.480" out="0:00:59.875"/>
    <entry producer="chain1" in="0:00:59.877" out="0:00:59.882"/>
    <entry producer="chain1" in="0:00:59.886" out="0:00:59.888"/>
    <entry producer="chain1" in="0:00:59.895" out="0:00:59.900"/>
    <entry producer="chain1" in="0:00:59.911" out="0:00:59.916"/>
    <entry producer="chain1" in="0:00:59.918" out="0:00:59.920"/>
    <entry producer="chain1" in="0:00:59.925" out="0:00:59.927"/>
    <entry producer="chain1" in="0:00:59.931" out="0:00:59.934"/>
    <entry producer="chain1" in="0:00:59.938" out="0:00:59.941"/>
    <entry producer="chain1" in="0:00:59.943" out="0:00:59.952"/>
    <entry producer="chain1" in="0:00:59.954" out="0:00:59.959"/>
    <entry producer="chain1" in="0:00:59.961" out="0:00:59.968"/>
    <entry producer="chain1" in="0:00:59.981" out="0:00:59.984"/>
    <entry producer="chain1" in="0:00:59.988" out="0:00:59.995"/>
    <entry producer="chain1" in="0:01:00.006" out="0:01:00.009"/>
    <entry producer="chain1" in="0:01:00.013" out="0:01:00.018"/>
    <entry producer="chain1" in="0:01:00.020" out="0:01:00.034"/>
    <entry producer="chain1" in="0:01:00.036" out="0:01:00.043"/>
    <entry producer="chain1" in="0:01:00.054" out="0:01:00.058"/>
    <entry producer="chain1" in="0:01:00.061" out="0:01:00.068"/>
    <entry producer="chain1" in="0:01:00.079" out="0:01:00.081"/>
    <entry producer="chain1" in="0:01:00.086" out="0:01:00.088"/>
    <entry producer="chain1" in="0:01:00.090" out="0:01:00.102"/>
    <entry producer="chain1" in="0:01:00.111" out="0:01:00.117"/>
    <entry producer="chain1" in="0:01:00.124" out="0:01:00.129"/>
    <entry producer="chain1" in="0:01:00.131" out="0:01:00.142"/>
    <entry producer="chain1" in="0:01:00.149" out="0:01:00.154"/>
    <entry producer="chain1" in="0:01:00.156" out="0:01:00.170"/>
    <entry producer="chain1" in="0:01:00.172" out="0:01:00.190"/>
    <entry producer="chain1" in="0:01:00.195" out="0:01:00.197"/>
    <entry producer="chain1" in="0:01:00.201" out="0:01:00.204"/>
    <entry producer="chain1" in="0:01:00.217" out="0:01:00.219"/>
    <entry producer="chain1" in="0:01:00.229" out="0:01:00.260"/>
    <entry producer="chain1" in="0:01:00.265" out="0:01:00.276"/>
    <entry producer="chain1" in="0:01:00.278" out="0:01:00.283"/>
    <entry producer="chain1" in="0:01:00.285" out="0:01:00.319"/>
    <entry producer="chain1" in="0:01:00.324" out="0:01:00.331"/>
    <entry producer="chain1" in="0:01:00.337" out="0:01:00.346"/>
    <entry producer="chain1" in="0:01:00.360" out="0:01:00.374"/>
    <entry producer="chain1" in="0:01:00.376" out="0:01:00.390"/>
    <entry producer="chain1" in="0:01:00.392" out="0:01:00.394"/>
    <entry producer="chain1" in="0:01:00.408" out="0:01:00.421"/>
    <entry producer="chain1" in="0:01:00.424" out="0:01:00.510"/>
    <entry producer="chain1" in="0:01:00.512" out="0:01:00.761"/>
    <entry producer="chain1" in="0:01:00.768" out="0:01:00.770"/>
    <entry producer="chain1" in="0:01:00.773" out="0:01:01.040"/>
    <entry producer="chain1" in="0:01:01.045" out="0:01:01.049"/>
    <entry producer="chain1" in="0:01:01.052" out="0:01:01.054"/>
    <entry producer="chain1" in="0:01:01.063" out="0:01:01.070"/>
    <entry producer="chain1" in="0:01:01.081" out="0:01:01.095"/>
    <entry producer="chain1" in="0:01:01.097" out="0:01:01.099"/>
    <entry producer="chain1" in="0:01:01.106" out="0:01:01.108"/>
    <entry producer="chain1" in="0:01:01.111" out="0:01:01.113"/>
    <entry producer="chain1" in="0:01:01.122" out="0:01:01.424"/>
    <entry producer="chain1" in="0:01:01.428" out="0:01:01.430"/>
    <entry producer="chain1" in="0:01:01.433" out="0:01:01.437"/>
    <entry producer="chain1" in="0:01:01.439" out="0:01:01.455"/>
    <entry producer="chain1" in="0:01:01.462" out="0:01:01.476"/>
    <entry producer="chain1" in="0:01:01.478" out="0:01:01.482"/>
    <entry producer="chain1" in="0:01:01.489" out="0:01:01.492"/>
    <entry producer="chain1" in="0:01:01.496" out="0:01:01.505"/>
    <entry producer="chain1" in="0:01:01.519" out="0:01:01.526"/>
    <entry producer="chain1" in="0:01:01.528" out="0:01:01.530"/>
    <entry producer="chain1" in="0:01:01.535" out="0:01:01.548"/>
    <entry producer="chain1" in="0:01:01.555" out="0:01:01.557"/>
    <entry producer="chain1" in="0:01:01.571" out="0:01:01.580"/>
    <entry producer="chain1" in="0:01:01.582" out="0:01:01.585"/>
    <entry producer="chain1" in="0:01:01.589" out="0:01:01.596"/>
    <entry producer="chain1" in="0:01:01.598" out="0:01:01.600"/>
    <entry producer="chain1" in="0:01:01.612" out="0:01:01.623"/>
    <entry producer="chain1" in="0:01:01.641" out="0:01:01.653"/>
    <entry producer="chain1" in="0:01:01.655" out="0:01:01.657"/>
    <entry producer="chain1" in="0:01:01.664" out="0:01:01.666"/>
    <entry producer="chain1" in="0:01:01.687" out="0:01:01.691"/>
    <entry producer="chain1" in="0:01:01.700" out="0:01:01.705"/>
    <entry producer="chain1" in="0:01:01.714" out="0:01:01.725"/>
    <entry producer="chain1" in="0:01:01.734" out="0:01:01.736"/>
    <entry producer="chain1" in="0:01:01.768" out="0:01:01.909"/>
    <entry producer="chain1" in="0:01:01.911" out="0:01:01.916"/>
    <entry producer="chain1" in="0:01:01.920" out="0:01:01.931"/>
    <entry producer="chain1" in="0:01:01.936" out="0:01:01.938"/>
    <entry producer="chain1" in="0:01:01.943" out="0:01:01.945"/>
    <entry producer="chain1" in="0:01:01.950" out="0:01:01.954"/>
    <entry producer="chain1" in="0:01:01.963" out="0:01:02.224"/>
    <entry producer="chain1" in="0:01:02.226" out="0:01:02.238"/>
    <entry producer="chain1" in="0:01:02.240" out="0:01:02.247"/>
    <entry producer="chain1" in="0:01:02.249" out="0:01:02.258"/>
    <entry producer="chain1" in="0:01:02.260" out="0:01:02.263"/>
    <entry producer="chain1" in="0:01:02.269" out="0:01:02.746"/>
    <entry producer="chain1" in="0:01:02.750" out="0:01:02.757"/>
    <entry producer="chain1" in="0:01:02.759" out="0:01:02.766"/>
    <entry producer="chain1" in="0:01:02.768" out="0:01:02.770"/>
    <entry producer="chain1" in="0:01:02.773" out="0:01:02.775"/>
    <entry producer="chain1" in="0:01:02.780" out="0:01:02.782"/>
    <entry producer="chain1" in="0:01:02.789" out="0:01:02.798"/>
    <entry producer="chain1" in="0:01:02.800" out="0:01:02.802"/>
    <entry producer="chain1" in="0:01:02.807" out="0:01:02.818"/>
    <entry producer="chain1" in="0:01:02.827" out="0:01:02.832"/>
    <entry producer="chain1" in="0:01:02.848" out="0:01:02.850"/>
    <entry producer="chain1" in="0:01:02.857" out="0:01:02.859"/>
    <entry producer="chain1" in="0:01:02.861" out="0:01:02.868"/>
    <entry producer="chain1" in="0:01:02.897" out="0:01:02.909"/>
    <entry producer="chain1" in="0:01:02.927" out="0:01:02.945"/>
    <entry producer="chain1" in="0:01:02.947" out="0:01:02.950"/>
    <entry producer="chain1" in="0:01:02.963" out="0:01:02.970"/>
    <entry producer="chain1" in="0:01:02.977" out="0:01:02.984"/>
    <entry producer="chain1" in="0:01:03.002" out="0:01:03.004"/>
    <entry producer="chain1" in="0:01:03.006" out="0:01:03.013"/>
    <entry producer="chain1" in="0:01:03.020" out="0:01:03.022"/>
    <entry producer="chain1" in="0:01:03.036" out="0:01:03.038"/>
    <entry producer="chain1" in="0:01:03.047" out="0:01:03.054"/>
    <entry producer="chain1" in="0:01:03.063" out="0:01:03.065"/>
    <entry producer="chain1" in="0:01:03.077" out="0:01:03.079"/>
    <entry producer="chain1" in="0:01:03.081" out="0:01:03.086"/>
    <entry producer="chain1" in="0:01:03.090" out="0:01:03.092"/>
    <entry producer="chain1" in="0:01:03.104" out="0:01:03.106"/>
    <entry producer="chain1" in="0:01:03.115" out="0:01:03.129"/>
    <entry producer="chain1" in="0:01:03.140" out="0:01:03.142"/>
    <entry producer="chain1" in="0:01:03.145" out="0:01:03.158"/>
    <entry producer="chain1" in="0:01:03.160" out="0:01:03.163"/>
    <entry producer="chain1" in="0:01:03.167" out="0:01:03.170"/>
    <entry producer="chain1" in="0:01:03.188" out="0:01:03.199"/>
    <entry producer="chain1" in="0:01:03.208" out="0:01:03.215"/>
    <entry producer="chain1" in="0:01:03.219" out="0:01:03.229"/>
    <entry producer="chain1" in="0:01:03.233" out="0:01:03.235"/>
    <entry producer="chain1" in="0:01:03.244" out="0:01:03.247"/>
    <entry producer="chain1" in="0:01:03.251" out="0:01:03.253"/>
    <entry producer="chain1" in="0:01:03.263" out="0:01:03.267"/>
    <entry producer="chain1" in="0:01:03.274" out="0:01:03.276"/>
    <entry producer="chain1" in="0:01:03.283" out="0:01:03.292"/>
    <entry producer="chain1" in="0:01:03.294" out="0:01:03.301"/>
    <entry producer="chain1" in="0:01:03.306" out="0:01:03.310"/>
    <entry producer="chain1" in="0:01:03.319" out="0:01:03.321"/>
    <entry producer="chain1" in="0:01:03.324" out="0:01:03.326"/>
    <entry producer="chain1" in="0:01:03.335" out="0:01:03.337"/>
    <entry producer="chain1" in="0:01:03.344" out="0:01:03.356"/>
    <entry producer="chain1" in="0:01:03.358" out="0:01:03.362"/>
    <entry producer="chain1" in="0:01:03.365" out="0:01:03.367"/>
    <entry producer="chain1" in="0:01:03.383" out="0:01:03.385"/>
    <entry producer="chain1" in="0:01:03.410" out="0:01:03.412"/>
    <entry producer="chain1" in="0:01:03.414" out="0:01:03.419"/>
    <entry producer="chain1" in="0:01:03.421" out="0:01:03.433"/>
    <entry producer="chain1" in="0:01:03.435" out="0:01:03.437"/>
    <entry producer="chain1" in="0:01:03.446" out="0:01:03.448"/>
    <entry producer="chain1" in="0:01:03.458" out="0:01:03.462"/>
    <entry producer="chain1" in="0:01:03.473" out="0:01:03.478"/>
    <entry producer="chain1" in="0:01:03.480" out="0:01:03.494"/>
    <entry producer="chain1" in="0:01:03.498" out="0:01:03.505"/>
    <entry producer="chain1" in="0:01:03.512" out="0:01:03.519"/>
    <entry producer="chain1" in="0:01:03.526" out="0:01:03.528"/>
    <entry producer="chain1" in="0:01:03.530" out="0:01:03.532"/>
    <entry producer="chain1" in="0:01:03.535" out="0:01:03.546"/>
    <entry producer="chain1" in="0:01:03.551" out="0:01:03.566"/>
    <entry producer="chain1" in="0:01:03.587" out="0:01:03.591"/>
    <entry producer="chain1" in="0:01:03.600" out="0:01:03.630"/>
    <entry producer="chain1" in="0:01:03.634" out="0:01:03.637"/>
    <entry producer="chain1" in="0:01:03.639" out="0:01:03.641"/>
    <entry producer="chain1" in="0:01:03.643" out="0:01:03.653"/>
    <entry producer="chain1" in="0:01:03.662" out="0:01:03.666"/>
    <entry producer="chain1" in="0:01:03.671" out="0:01:03.698"/>
    <entry producer="chain1" in="0:01:03.702" out="0:01:03.725"/>
    <entry producer="chain1" in="0:01:03.727" out="0:01:04.356"/>
    <entry producer="chain1" in="0:01:04.358" out="0:01:04.371"/>
    <entry producer="chain1" in="0:01:04.374" out="0:01:04.380"/>
    <entry producer="chain1" in="0:01:04.385" out="0:01:04.390"/>
    <entry producer="chain1" in="0:01:04.392" out="0:01:04.671"/>
    <entry producer="chain1" in="0:01:04.673" out="0:01:04.678"/>
    <entry producer="chain1" in="0:01:04.680" out="0:01:04.687"/>
    <entry producer="chain1" in="0:01:04.689" out="0:01:04.696"/>
    <entry producer="chain1" in="0:01:04.698" out="0:01:04.721"/>
    <entry producer="chain1" in="0:01:04.723" out="0:01:04.727"/>
    <entry producer="chain1" in="0:01:04.780" out="0:01:04.782"/>
    <entry producer="chain1" in="0:01:04.793" out="0:01:04.795"/>
    <entry producer="chain1" in="0:01:04.798" out="0:01:04.800"/>
    <entry producer="chain1" in="0:01:04.802" out="0:01:04.804"/>
    <entry producer="chain1" in="0:01:04.807" out="0:01:04.809"/>
    <entry producer="chain1" in="0:01:04.818" out="0:01:04.820"/>
    <entry producer="chain1" in="0:01:04.823" out="0:01:04.829"/>
    <entry producer="chain1" in="0:01:04.839" out="0:01:04.841"/>
    <entry producer="chain1" in="0:01:04.882" out="0:01:04.884"/>
    <entry producer="chain1" in="0:01:04.886" out="0:01:04.888"/>
    <entry producer="chain1" in="0:01:04.895" out="0:01:04.902"/>
    <entry producer="chain1" in="0:01:04.916" out="0:01:04.920"/>
    <entry producer="chain1" in="0:01:04.934" out="0:01:04.936"/>
    <entry producer="chain1" in="0:01:04.945" out="0:01:04.947"/>
    <entry producer="chain1" in="0:01:04.954" out="0:01:04.961"/>
    <entry producer="chain1" in="0:01:04.977" out="0:01:04.979"/>
    <entry producer="chain1" in="0:01:04.990" out="0:01:04.993"/>
    <entry producer="chain1" in="0:01:04.997" out="0:01:05.002"/>
    <entry producer="chain1" in="0:01:05.011" out="0:01:05.013"/>
    <entry producer="chain1" in="0:01:05.029" out="0:01:05.034"/>
    <entry producer="chain1" in="0:01:05.043" out="0:01:05.045"/>
    <entry producer="chain1" in="0:01:05.054" out="0:01:05.056"/>
    <entry producer="chain1" in="0:01:05.070" out="0:01:05.074"/>
    <entry producer="chain1" in="0:01:05.086" out="0:01:05.088"/>
    <entry producer="chain1" in="0:01:05.102" out="0:01:05.106"/>
    <entry producer="chain1" in="0:01:05.142" out="0:01:05.149"/>
    <entry producer="chain1" in="0:01:05.158" out="0:01:05.163"/>
    <entry producer="chain1" in="0:01:05.179" out="0:01:05.181"/>
    <entry producer="chain1" in="0:01:05.215" out="0:01:05.222"/>
    <entry producer="chain1" in="0:01:05.342" out="0:01:05.344"/>
    <entry producer="chain1" in="0:01:05.346" out="0:01:05.349"/>
    <entry producer="chain1" in="0:01:05.430" out="0:01:05.433"/>
    <entry producer="chain1" in="0:01:05.482" out="0:01:05.485"/>
    <entry producer="chain1" in="0:01:05.537" out="0:01:05.539"/>
    <entry producer="chain1" in="0:01:05.573" out="0:01:05.575"/>
    <entry producer="chain1" in="0:01:05.582" out="0:01:05.585"/>
    <entry producer="chain1" in="0:01:05.630" out="0:01:05.632"/>
    <entry producer="chain1" in="0:01:05.655" out="0:01:05.657"/>
    <entry producer="chain1" in="0:01:05.668" out="0:01:05.671"/>
    <entry producer="chain1" in="0:01:05.678" out="0:01:05.680"/>
    <entry producer="chain1" in="0:01:05.684" out="0:01:05.687"/>
    <entry producer="chain1" in="0:01:05.693" out="0:01:05.696"/>
    <entry producer="chain1" in="0:01:05.702" out="0:01:05.709"/>
    <entry producer="chain1" in="0:01:05.748" out="0:01:05.750"/>
    <entry producer="chain1" in="0:01:05.811" out="0:01:05.814"/>
    <entry producer="chain1" in="0:01:05.818" out="0:01:05.820"/>
    <entry producer="chain1" in="0:01:05.825" out="0:01:05.827"/>
    <entry producer="chain1" in="0:01:05.834" out="0:01:05.836"/>
    <entry producer="chain1" in="0:01:05.852" out="0:01:06.158"/>
    <entry producer="chain1" in="0:01:06.160" out="0:01:06.251"/>
    <entry producer="chain1" in="0:01:06.253" out="0:01:06.265"/>
    <entry producer="chain1" in="0:01:06.267" out="0:01:06.281"/>
    <entry producer="chain1" in="0:01:06.287" out="0:01:06.290"/>
    <entry producer="chain1" in="0:01:06.294" out="0:01:06.301"/>
    <entry producer="chain1" in="0:01:06.306" out="0:01:06.312"/>
    <entry producer="chain1" in="0:01:06.319" out="0:01:06.321"/>
    <entry producer="chain1" in="0:01:06.337" out="0:01:06.340"/>
    <entry producer="chain1" in="0:01:06.344" out="0:01:06.346"/>
    <entry producer="chain1" in="0:01:06.365" out="0:01:06.367"/>
    <entry producer="chain1" in="0:01:06.376" out="0:01:06.378"/>
    <entry producer="chain1" in="0:01:06.394" out="0:01:06.401"/>
    <entry producer="chain1" in="0:01:06.408" out="0:01:06.421"/>
    <entry producer="chain1" in="0:01:06.424" out="0:01:06.428"/>
    <entry producer="chain1" in="0:01:06.433" out="0:01:06.435"/>
    <entry producer="chain1" in="0:01:06.437" out="0:01:06.439"/>
    <entry producer="chain1" in="0:01:06.442" out="0:01:06.444"/>
    <entry producer="chain1" in="0:01:06.448" out="0:01:06.453"/>
    <entry producer="chain1" in="0:01:06.455" out="0:01:06.863"/>
    <entry producer="chain1" in="0:01:06.866" out="0:01:07.585"/>
    <entry producer="chain1" in="0:01:07.587" out="0:01:07.639"/>
    <entry producer="chain1" in="0:01:07.641" out="0:01:07.646"/>
    <entry producer="chain1" in="0:01:07.648" out="0:01:07.653"/>
    <entry producer="chain1" in="0:01:07.655" out="0:01:07.671"/>
    <entry producer="chain1" in="0:01:07.673" out="0:01:07.682"/>
    <entry producer="chain1" in="0:01:07.684" out="0:01:07.689"/>
    <entry producer="chain1" in="0:01:07.691" out="0:01:07.718"/>
    <entry producer="chain1" in="0:01:07.721" out="0:01:07.736"/>
    <entry producer="chain1" in="0:01:07.739" out="0:01:07.746"/>
    <entry producer="chain1" in="0:01:07.748" out="0:01:07.782"/>
    <entry producer="chain1" in="0:01:07.786" out="0:01:07.800"/>
    <entry producer="chain1" in="0:01:07.802" out="0:01:07.809"/>
    <entry producer="chain1" in="0:01:07.811" out="0:01:07.818"/>
    <entry producer="chain1" in="0:01:07.820" out="0:01:07.832"/>
    <entry producer="chain1" in="0:01:07.834" out="0:01:07.841"/>
    <entry producer="chain1" in="0:01:07.848" out="0:01:07.859"/>
    <entry producer="chain1" in="0:01:07.861" out="0:01:07.879"/>
    <entry producer="chain1" in="0:01:07.884" out="0:01:07.916"/>
    <entry producer="chain1" in="0:01:07.925" out="0:01:07.931"/>
    <entry producer="chain1" in="0:01:07.950" out="0:01:07.952"/>
    <entry producer="chain1" in="0:01:07.959" out="0:01:08.145"/>
    <entry producer="chain1" in="0:01:08.147" out="0:01:08.156"/>
    <entry producer="chain1" in="0:01:08.160" out="0:01:08.197"/>
    <entry producer="chain1" in="0:01:08.201" out="0:01:08.204"/>
    <entry producer="chain1" in="0:01:08.206" out="0:01:08.562"/>
    <entry producer="chain1" in="0:01:08.564" out="0:01:08.566"/>
    <entry producer="chain1" in="0:01:08.569" out="0:01:08.575"/>
    <entry producer="chain1" in="0:01:08.578" out="0:01:08.580"/>
    <entry producer="chain1" in="0:01:08.585" out="0:01:08.587"/>
    <entry producer="chain1" in="0:01:08.589" out="0:01:08.591"/>
    <entry producer="chain1" in="0:01:08.594" out="0:01:08.603"/>
    <entry producer="chain1" in="0:01:08.612" out="0:01:08.623"/>
    <entry producer="chain1" in="0:01:08.625" out="0:01:08.628"/>
    <entry producer="chain1" in="0:01:08.630" out="0:01:08.641"/>
    <entry producer="chain1" in="0:01:08.650" out="0:01:08.653"/>
    <entry producer="chain1" in="0:01:08.664" out="0:01:08.668"/>
    <entry producer="chain1" in="0:01:08.671" out="0:01:08.689"/>
    <entry producer="chain1" in="0:01:08.691" out="0:01:08.696"/>
    <entry producer="chain1" in="0:01:08.698" out="0:01:08.705"/>
    <entry producer="chain1" in="0:01:08.707" out="0:01:08.709"/>
    <entry producer="chain1" in="0:01:08.730" out="0:01:08.732"/>
    <entry producer="chain1" in="0:01:08.739" out="0:01:08.741"/>
    <entry producer="chain1" in="0:01:08.743" out="0:01:08.748"/>
    <entry producer="chain1" in="0:01:08.750" out="0:01:08.759"/>
    <entry producer="chain1" in="0:01:08.761" out="0:01:08.764"/>
    <entry producer="chain1" in="0:01:08.786" out="0:01:08.789"/>
    <entry producer="chain1" in="0:01:08.807" out="0:01:08.809"/>
    <entry producer="chain1" in="0:01:08.814" out="0:01:08.816"/>
    <entry producer="chain1" in="0:01:08.823" out="0:01:08.829"/>
    <entry producer="chain1" in="0:01:08.834" out="0:01:08.836"/>
    <entry producer="chain1" in="0:01:08.848" out="0:01:08.850"/>
    <entry producer="chain1" in="0:01:08.857" out="0:01:08.859"/>
    <entry producer="chain1" in="0:01:08.873" out="0:01:08.875"/>
    <entry producer="chain1" in="0:01:08.877" out="0:01:08.895"/>
    <entry producer="chain1" in="0:01:08.897" out="0:01:08.902"/>
    <entry producer="chain1" in="0:01:08.916" out="0:01:08.918"/>
    <entry producer="chain1" in="0:01:08.941" out="0:01:08.943"/>
    <entry producer="chain1" in="0:01:08.956" out="0:01:08.965"/>
    <entry producer="chain1" in="0:01:08.968" out="0:01:08.970"/>
    <entry producer="chain1" in="0:01:08.988" out="0:01:08.997"/>
    <entry producer="chain1" in="0:01:09.027" out="0:01:09.029"/>
    <entry producer="chain1" in="0:01:09.031" out="0:01:09.038"/>
    <entry producer="chain1" in="0:01:09.045" out="0:01:09.047"/>
    <entry producer="chain1" in="0:01:09.052" out="0:01:09.054"/>
    <entry producer="chain1" in="0:01:09.065" out="0:01:09.068"/>
    <entry producer="chain1" in="0:01:09.074" out="0:01:09.077"/>
    <entry producer="chain1" in="0:01:09.083" out="0:01:09.088"/>
    <entry producer="chain1" in="0:01:09.092" out="0:01:09.097"/>
    <entry producer="chain1" in="0:01:09.099" out="0:01:09.108"/>
    <entry producer="chain1" in="0:01:09.115" out="0:01:09.122"/>
    <entry producer="chain1" in="0:01:09.124" out="0:01:09.126"/>
    <entry producer="chain1" in="0:01:09.142" out="0:01:09.149"/>
    <entry producer="chain1" in="0:01:09.158" out="0:01:09.183"/>
    <entry producer="chain1" in="0:01:09.185" out="0:01:09.190"/>
    <entry producer="chain1" in="0:01:09.192" out="0:01:09.437"/>
    <entry producer="chain1" in="0:01:09.446" out="0:01:09.460"/>
    <entry producer="chain1" in="0:01:09.462" out="0:01:09.464"/>
    <entry producer="chain1" in="0:01:09.476" out="0:01:09.480"/>
    <entry producer="chain1" in="0:01:09.482" out="0:01:09.485"/>
    <entry producer="chain1" in="0:01:09.494" out="0:01:10.036"/>
    <entry producer="chain1" in="0:01:10.038" out="0:01:10.040"/>
    <entry producer="chain1" in="0:01:10.043" out="0:01:10.063"/>
    <entry producer="chain1" in="0:01:10.065" out="0:01:10.068"/>
    <entry producer="chain1" in="0:01:10.074" out="0:01:10.077"/>
    <entry producer="chain1" in="0:01:10.088" out="0:01:10.092"/>
    <entry producer="chain1" in="0:01:10.095" out="0:01:10.099"/>
    <entry producer="chain1" in="0:01:10.113" out="0:01:10.120"/>
    <entry producer="chain1" in="0:01:10.122" out="0:01:10.126"/>
    <entry producer="chain1" in="0:01:10.131" out="0:01:10.136"/>
    <entry producer="chain1" in="0:01:10.140" out="0:01:10.142"/>
    <entry producer="chain1" in="0:01:10.156" out="0:01:10.158"/>
    <entry producer="chain1" in="0:01:10.165" out="0:01:10.170"/>
    <entry producer="chain1" in="0:01:10.172" out="0:01:10.174"/>
    <entry producer="chain1" in="0:01:10.188" out="0:01:10.206"/>
    <entry producer="chain1" in="0:01:10.208" out="0:01:10.213"/>
    <entry producer="chain1" in="0:01:10.253" out="0:01:10.278"/>
    <entry producer="chain1" in="0:01:10.292" out="0:01:10.294"/>
    <entry producer="chain1" in="0:01:10.319" out="0:01:10.321"/>
    <entry producer="chain1" in="0:01:10.328" out="0:01:10.342"/>
    <entry producer="chain1" in="0:01:10.356" out="0:01:10.358"/>
    <entry producer="chain1" in="0:01:10.360" out="0:01:10.362"/>
    <entry producer="chain1" in="0:01:10.365" out="0:01:10.367"/>
    <entry producer="chain1" in="0:01:10.392" out="0:01:10.394"/>
    <entry producer="chain1" in="0:01:10.401" out="0:01:10.408"/>
    <entry producer="chain1" in="0:01:10.410" out="0:01:10.414"/>
    <entry producer="chain1" in="0:01:10.505" out="0:01:10.507"/>
    <entry producer="chain1" in="0:01:10.510" out="0:01:10.512"/>
    <entry producer="chain1" in="0:01:10.551" out="0:01:10.553"/>
    <entry producer="chain1" in="0:01:10.555" out="0:01:10.557"/>
    <entry producer="chain1" in="0:01:10.571" out="0:01:10.575"/>
    <entry producer="chain1" in="0:01:10.578" out="0:01:10.580"/>
    <entry producer="chain1" in="0:01:10.612" out="0:01:10.616"/>
    <entry producer="chain1" in="0:01:10.628" out="0:01:10.630"/>
    <entry producer="chain1" in="0:01:10.639" out="0:01:10.646"/>
    <entry producer="chain1" in="0:01:10.650" out="0:01:10.653"/>
    <entry producer="chain1" in="0:01:10.657" out="0:01:10.659"/>
    <entry producer="chain1" in="0:01:10.698" out="0:01:10.702"/>
    <entry producer="chain1" in="0:01:10.705" out="0:01:10.707"/>
    <entry producer="chain1" in="0:01:10.714" out="0:01:10.718"/>
    <entry producer="chain1" in="0:01:10.721" out="0:01:10.725"/>
    <entry producer="chain1" in="0:01:10.784" out="0:01:10.786"/>
    <entry producer="chain1" in="0:01:10.814" out="0:01:10.816"/>
    <entry producer="chain1" in="0:01:10.825" out="0:01:10.827"/>
    <entry producer="chain1" in="0:01:10.829" out="0:01:10.839"/>
    <entry producer="chain1" in="0:01:10.841" out="0:01:10.848"/>
    <entry producer="chain1" in="0:01:10.857" out="0:01:10.922"/>
    <entry producer="chain1" in="0:01:10.925" out="0:01:10.954"/>
    <entry producer="chain1" in="0:01:10.956" out="0:01:10.959"/>
    <entry producer="chain1" in="0:01:10.961" out="0:01:10.965"/>
    <entry producer="chain1" in="0:01:10.970" out="0:01:10.977"/>
    <entry producer="chain1" in="0:01:11.004" out="0:01:11.231"/>
    <entry producer="chain1" in="0:01:11.233" out="0:01:11.505"/>
    <entry producer="chain1" in="0:01:11.510" out="0:01:11.517"/>
    <entry producer="chain1" in="0:01:11.526" out="0:01:11.528"/>
    <entry producer="chain1" in="0:01:11.532" out="0:01:11.535"/>
    <entry producer="chain1" in="0:01:11.541" out="0:01:11.544"/>
    <entry producer="chain1" in="0:01:11.546" out="0:01:11.548"/>
    <entry producer="chain1" in="0:01:11.562" out="0:01:11.564"/>
    <entry producer="chain1" in="0:01:11.573" out="0:01:11.580"/>
    <entry producer="chain1" in="0:01:11.582" out="0:01:11.587"/>
    <entry producer="chain1" in="0:01:11.591" out="0:01:11.594"/>
    <entry producer="chain1" in="0:01:11.612" out="0:01:11.614"/>
    <entry producer="chain1" in="0:01:11.621" out="0:01:11.625"/>
    <entry producer="chain1" in="0:01:11.643" out="0:01:11.646"/>
    <entry producer="chain1" in="0:01:11.648" out="0:01:11.659"/>
    <entry producer="chain1" in="0:01:11.675" out="0:01:11.678"/>
    <entry producer="chain1" in="0:01:11.682" out="0:01:11.691"/>
    <entry producer="chain1" in="0:01:11.700" out="0:01:11.702"/>
    <entry producer="chain1" in="0:01:11.714" out="0:01:11.841"/>
    <entry producer="chain1" in="0:01:11.843" out="0:01:11.845"/>
    <entry producer="chain1" in="0:01:11.848" out="0:01:11.852"/>
    <entry producer="chain1" in="0:01:11.854" out="0:01:11.857"/>
    <entry producer="chain1" in="0:01:11.859" out="0:01:11.877"/>
    <entry producer="chain1" in="0:01:11.891" out="0:01:11.895"/>
    <entry producer="chain1" in="0:01:11.897" out="0:01:11.900"/>
    <entry producer="chain1" in="0:01:11.902" out="0:01:11.904"/>
    <entry producer="chain1" in="0:01:11.920" out="0:01:11.925"/>
    <entry producer="chain1" in="0:01:11.929" out="0:01:11.931"/>
    <entry producer="chain1" in="0:01:11.936" out="0:01:11.941"/>
    <entry producer="chain1" in="0:01:11.943" out="0:01:11.945"/>
    <entry producer="chain1" in="0:01:11.972" out="0:01:11.979"/>
    <entry producer="chain1" in="0:01:12.000" out="0:01:12.002"/>
    <entry producer="chain1" in="0:01:12.011" out="0:01:12.018"/>
    <entry producer="chain1" in="0:01:12.038" out="0:01:12.043"/>
    <entry producer="chain1" in="0:01:12.045" out="0:01:12.052"/>
    <entry producer="chain1" in="0:01:12.056" out="0:01:12.061"/>
    <entry producer="chain1" in="0:01:12.063" out="0:01:12.065"/>
    <entry producer="chain1" in="0:01:12.072" out="0:01:12.074"/>
    <entry producer="chain1" in="0:01:12.077" out="0:01:12.079"/>
    <entry producer="chain1" in="0:01:12.086" out="0:01:12.088"/>
    <entry producer="chain1" in="0:01:12.120" out="0:01:12.124"/>
    <entry producer="chain1" in="0:01:12.129" out="0:01:12.142"/>
    <entry producer="chain1" in="0:01:12.145" out="0:01:12.147"/>
    <entry producer="chain1" in="0:01:12.185" out="0:01:12.188"/>
    <entry producer="chain1" in="0:01:12.190" out="0:01:13.009"/>
    <entry producer="chain1" in="0:01:13.011" out="0:01:13.015"/>
    <entry producer="chain1" in="0:01:13.022" out="0:01:13.027"/>
    <entry producer="chain1" in="0:01:13.029" out="0:01:13.174"/>
    <entry producer="chain1" in="0:01:13.176" out="0:01:13.192"/>
    <entry producer="chain1" in="0:01:13.195" out="0:01:13.199"/>
    <entry producer="chain1" in="0:01:13.201" out="0:01:13.539"/>
    <entry producer="chain1" in="0:01:13.541" out="0:01:13.643"/>
    <entry producer="chain1" in="0:01:13.655" out="0:01:13.757"/>
    <entry producer="chain1" in="0:01:13.780" out="0:01:13.789"/>
    <entry producer="chain1" in="0:01:13.795" out="0:01:13.798"/>
    <entry producer="chain1" in="0:01:13.816" out="0:01:13.818"/>
    <entry producer="chain1" in="0:01:13.823" out="0:01:13.827"/>
    <entry producer="chain1" in="0:01:13.829" out="0:01:13.832"/>
    <entry producer="chain1" in="0:01:13.845" out="0:01:13.852"/>
    <entry producer="chain1" in="0:01:13.854" out="0:01:13.857"/>
    <entry producer="chain1" in="0:01:13.859" out="0:01:13.861"/>
    <entry producer="chain1" in="0:01:13.866" out="0:01:13.868"/>
    <entry producer="chain1" in="0:01:13.870" out="0:01:13.873"/>
    <entry producer="chain1" in="0:01:13.886" out="0:01:13.893"/>
    <entry producer="chain1" in="0:01:13.897" out="0:01:13.900"/>
    <entry producer="chain1" in="0:01:13.902" out="0:01:13.911"/>
    <entry producer="chain1" in="0:01:13.920" out="0:01:13.934"/>
    <entry producer="chain1" in="0:01:13.938" out="0:01:13.961"/>
    <entry producer="chain1" in="0:01:13.963" out="0:01:13.975"/>
    <entry producer="chain1" in="0:01:13.977" out="0:01:14.045"/>
    <entry producer="chain1" in="0:01:14.047" out="0:01:14.131"/>
    <entry producer="chain1" in="0:01:14.136" out="0:01:14.147"/>
    <entry producer="chain1" in="0:01:14.149" out="0:01:14.163"/>
    <entry producer="chain1" in="0:01:14.165" out="0:01:14.167"/>
    <entry producer="chain1" in="0:01:14.170" out="0:01:14.176"/>
    <entry producer="chain1" in="0:01:14.179" out="0:01:14.181"/>
    <entry producer="chain1" in="0:01:14.192" out="0:01:14.206"/>
    <entry producer="chain1" in="0:01:14.208" out="0:01:14.210"/>
    <entry producer="chain1" in="0:01:14.224" out="0:01:14.238"/>
    <entry producer="chain1" in="0:01:14.242" out="0:01:14.247"/>
    <entry producer="chain1" in="0:01:14.269" out="0:01:14.274"/>
    <entry producer="chain1" in="0:01:14.285" out="0:01:14.287"/>
    <entry producer="chain1" in="0:01:14.290" out="0:01:14.292"/>
    <entry producer="chain1" in="0:01:14.299" out="0:01:14.308"/>
    <entry producer="chain1" in="0:01:14.317" out="0:01:14.319"/>
    <entry producer="chain1" in="0:01:14.321" out="0:01:14.326"/>
    <entry producer="chain1" in="0:01:14.344" out="0:01:14.346"/>
    <entry producer="chain1" in="0:01:14.356" out="0:01:14.362"/>
    <entry producer="chain1" in="0:01:14.365" out="0:01:14.376"/>
    <entry producer="chain1" in="0:01:14.378" out="0:01:14.383"/>
    <entry producer="chain1" in="0:01:14.426" out="0:01:14.430"/>
    <entry producer="chain1" in="0:01:14.433" out="0:01:14.435"/>
    <entry producer="chain1" in="0:01:14.437" out="0:01:14.442"/>
    <entry producer="chain1" in="0:01:14.444" out="0:01:14.448"/>
    <entry producer="chain1" in="0:01:14.476" out="0:01:14.478"/>
    <entry producer="chain1" in="0:01:14.501" out="0:01:14.505"/>
    <entry producer="chain1" in="0:01:14.510" out="0:01:14.512"/>
    <entry producer="chain1" in="0:01:14.523" out="0:01:14.526"/>
    <entry producer="chain1" in="0:01:14.532" out="0:01:14.537"/>
    <entry producer="chain1" in="0:01:14.573" out="0:01:14.578"/>
    <entry producer="chain1" in="0:01:14.580" out="0:01:14.582"/>
    <entry producer="chain1" in="0:01:14.641" out="0:01:14.643"/>
    <entry producer="chain1" in="0:01:14.648" out="0:01:14.650"/>
    <entry producer="chain1" in="0:01:14.653" out="0:01:14.655"/>
    <entry producer="chain1" in="0:01:14.721" out="0:01:14.727"/>
    <entry producer="chain1" in="0:01:14.859" out="0:01:14.861"/>
    <entry producer="chain1" in="0:01:14.866" out="0:01:14.870"/>
    <entry producer="chain1" in="0:01:14.879" out="0:01:15.000"/>
    <entry producer="chain1" in="0:01:15.006" out="0:01:15.011"/>
    <entry producer="chain1" in="0:01:15.018" out="0:01:15.020"/>
    <entry producer="chain1" in="0:01:15.024" out="0:01:15.027"/>
    <entry producer="chain1" in="0:01:15.029" out="0:01:15.680"/>
    <entry producer="chain1" in="0:01:15.682" out="0:01:15.798"/>
    <entry producer="chain1" in="0:01:15.800" out="0:01:15.802"/>
    <entry producer="chain1" in="0:01:15.809" out="0:01:15.811"/>
    <entry producer="chain1" in="0:01:15.814" out="0:01:15.818"/>
    <entry producer="chain1" in="0:01:15.825" out="0:01:16.145"/>
    <entry producer="chain1" in="0:01:16.147" out="0:01:16.149"/>
    <entry producer="chain1" in="0:01:16.156" out="0:01:16.163"/>
    <entry producer="chain1" in="0:01:16.170" out="0:01:16.174"/>
    <entry producer="chain1" in="0:01:16.176" out="0:01:16.181"/>
    <entry producer="chain1" in="0:01:16.192" out="0:01:16.195"/>
    <entry producer="chain1" in="0:01:16.197" out="0:01:16.199"/>
    <entry producer="chain1" in="0:01:16.206" out="0:01:16.208"/>
    <entry producer="chain1" in="0:01:16.215" out="0:01:16.217"/>
    <entry producer="chain1" in="0:01:16.224" out="0:01:16.229"/>
    <entry producer="chain1" in="0:01:16.235" out="0:01:16.238"/>
    <entry producer="chain1" in="0:01:16.244" out="0:01:16.247"/>
    <entry producer="chain1" in="0:01:16.249" out="0:01:16.251"/>
    <entry producer="chain1" in="0:01:16.260" out="0:01:16.263"/>
    <entry producer="chain1" in="0:01:16.297" out="0:01:16.299"/>
    <entry producer="chain1" in="0:01:16.303" out="0:01:16.306"/>
    <entry producer="chain1" in="0:01:16.319" out="0:01:16.321"/>
    <entry producer="chain1" in="0:01:16.331" out="0:01:16.333"/>
    <entry producer="chain1" in="0:01:16.346" out="0:01:16.353"/>
    <entry producer="chain1" in="0:01:16.356" out="0:01:16.360"/>
    <entry producer="chain1" in="0:01:16.362" out="0:01:16.365"/>
    <entry producer="chain1" in="0:01:16.367" out="0:01:16.369"/>
    <entry producer="chain1" in="0:01:16.405" out="0:01:16.408"/>
    <entry producer="chain1" in="0:01:16.424" out="0:01:16.428"/>
    <entry producer="chain1" in="0:01:16.446" out="0:01:16.448"/>
    <entry producer="chain1" in="0:01:16.453" out="0:01:16.455"/>
    <entry producer="chain1" in="0:01:16.462" out="0:01:16.469"/>
    <entry producer="chain1" in="0:01:16.485" out="0:01:16.487"/>
    <entry producer="chain1" in="0:01:16.489" out="0:01:16.492"/>
    <entry producer="chain1" in="0:01:16.496" out="0:01:16.501"/>
    <entry producer="chain1" in="0:01:16.505" out="0:01:16.507"/>
    <entry producer="chain1" in="0:01:16.517" out="0:01:16.519"/>
    <entry producer="chain1" in="0:01:16.523" out="0:01:16.526"/>
    <entry producer="chain1" in="0:01:16.530" out="0:01:16.532"/>
    <entry producer="chain1" in="0:01:16.539" out="0:01:16.541"/>
    <entry producer="chain1" in="0:01:16.560" out="0:01:16.564"/>
    <entry producer="chain1" in="0:01:16.589" out="0:01:16.591"/>
    <entry producer="chain1" in="0:01:16.605" out="0:01:16.607"/>
    <entry producer="chain1" in="0:01:16.609" out="0:01:16.612"/>
    <entry producer="chain1" in="0:01:16.648" out="0:01:16.650"/>
    <entry producer="chain1" in="0:01:16.657" out="0:01:16.659"/>
    <entry producer="chain1" in="0:01:16.666" out="0:01:16.671"/>
    <entry producer="chain1" in="0:01:16.673" out="0:01:16.675"/>
    <entry producer="chain1" in="0:01:16.700" out="0:01:16.702"/>
    <entry producer="chain1" in="0:01:16.746" out="0:01:16.748"/>
    <entry producer="chain1" in="0:01:16.755" out="0:01:16.757"/>
    <entry producer="chain1" in="0:01:16.775" out="0:01:16.777"/>
    <entry producer="chain1" in="0:01:16.809" out="0:01:16.816"/>
    <entry producer="chain1" in="0:01:16.820" out="0:01:17.145"/>
    <entry producer="chain1" in="0:01:17.149" out="0:01:17.335"/>
    <entry producer="chain1" in="0:01:17.337" out="0:01:17.342"/>
    <entry producer="chain1" in="0:01:17.344" out="0:01:18.469"/>
    <entry producer="chain1" in="0:01:18.473" out="0:01:18.482"/>
    <entry producer="chain1" in="0:01:18.487" out="0:01:18.489"/>
    <entry producer="chain1" in="0:01:18.496" out="0:01:18.501"/>
    <entry producer="chain1" in="0:01:18.503" out="0:01:18.507"/>
    <entry producer="chain1" in="0:01:18.510" out="0:01:18.514"/>
    <entry producer="chain1" in="0:01:18.519" out="0:01:18.532"/>
    <entry producer="chain1" in="0:01:18.557" out="0:01:18.848"/>
    <entry producer="chain1" in="0:01:18.850" out="0:01:18.852"/>
    <entry producer="chain1" in="0:01:18.857" out="0:01:18.859"/>
    <entry producer="chain1" in="0:01:18.866" out="0:01:18.877"/>
    <entry producer="chain1" in="0:01:18.879" out="0:01:18.886"/>
    <entry producer="chain1" in="0:01:18.904" out="0:01:18.909"/>
    <entry producer="chain1" in="0:01:18.934" out="0:01:18.936"/>
    <entry producer="chain1" in="0:01:18.938" out="0:01:18.956"/>
    <entry producer="chain1" in="0:01:18.993" out="0:01:18.995"/>
    <entry producer="chain1" in="0:01:18.997" out="0:01:19.000"/>
    <entry producer="chain1" in="0:01:19.009" out="0:01:19.011"/>
    <entry producer="chain1" in="0:01:19.013" out="0:01:19.015"/>
    <entry producer="chain1" in="0:01:19.018" out="0:01:19.029"/>
    <entry producer="chain1" in="0:01:19.031" out="0:01:19.034"/>
    <entry producer="chain1" in="0:01:19.038" out="0:01:19.040"/>
    <entry producer="chain1" in="0:01:19.058" out="0:01:19.063"/>
    <entry producer="chain1" in="0:01:19.083" out="0:01:19.299"/>
    <entry producer="chain1" in="0:01:19.301" out="0:01:19.317"/>
    <entry producer="chain1" in="0:01:19.319" out="0:01:19.321"/>
    <entry producer="chain1" in="0:01:19.324" out="0:01:19.331"/>
    <entry producer="chain1" in="0:01:19.340" out="0:01:19.344"/>
    <entry producer="chain1" in="0:01:19.349" out="0:01:19.351"/>
    <entry producer="chain1" in="0:01:19.356" out="0:01:19.360"/>
    <entry producer="chain1" in="0:01:19.365" out="0:01:19.380"/>
    <entry producer="chain1" in="0:01:19.383" out="0:01:19.385"/>
    <entry producer="chain1" in="0:01:19.408" out="0:01:19.410"/>
    <entry producer="chain1" in="0:01:19.430" out="0:01:19.564"/>
    <entry producer="chain1" in="0:01:19.569" out="0:01:19.596"/>
    <entry producer="chain1" in="0:01:19.630" out="0:01:19.634"/>
    <entry producer="chain1" in="0:01:19.646" out="0:01:19.648"/>
    <entry producer="chain1" in="0:01:19.653" out="0:01:19.657"/>
    <entry producer="chain1" in="0:01:19.662" out="0:01:19.664"/>
    <entry producer="chain1" in="0:01:19.666" out="0:01:19.671"/>
    <entry producer="chain1" in="0:01:19.698" out="0:01:19.702"/>
    <entry producer="chain1" in="0:01:19.705" out="0:01:19.707"/>
    <entry producer="chain1" in="0:01:19.730" out="0:01:19.734"/>
    <entry producer="chain1" in="0:01:19.775" out="0:01:19.780"/>
    <entry producer="chain1" in="0:01:19.786" out="0:01:19.789"/>
    <entry producer="chain1" in="0:01:19.795" out="0:01:19.798"/>
    <entry producer="chain1" in="0:01:19.802" out="0:01:19.804"/>
    <entry producer="chain1" in="0:01:19.827" out="0:01:19.829"/>
    <entry producer="chain1" in="0:01:19.836" out="0:01:19.839"/>
    <entry producer="chain1" in="0:01:19.848" out="0:01:19.850"/>
    <entry producer="chain1" in="0:01:19.859" out="0:01:19.861"/>
    <entry producer="chain1" in="0:01:19.866" out="0:01:19.868"/>
    <entry producer="chain1" in="0:01:19.875" out="0:01:19.877"/>
    <entry producer="chain1" in="0:01:19.945" out="0:01:19.947"/>
    <entry producer="chain1" in="0:01:19.956" out="0:01:19.965"/>
    <entry producer="chain1" in="0:01:19.975" out="0:01:19.979"/>
    <entry producer="chain1" in="0:01:19.986" out="0:01:19.988"/>
    <entry producer="chain1" in="0:01:19.993" out="0:01:19.995"/>
    <entry producer="chain1" in="0:01:20.009" out="0:01:20.013"/>
    <entry producer="chain1" in="0:01:20.040" out="0:01:20.045"/>
    <entry producer="chain1" in="0:01:20.049" out="0:01:20.054"/>
    <entry producer="chain1" in="0:01:20.079" out="0:01:20.081"/>
    <entry producer="chain1" in="0:01:20.088" out="0:01:20.090"/>
    <entry producer="chain1" in="0:01:20.095" out="0:01:20.097"/>
    <entry producer="chain1" in="0:01:20.104" out="0:01:20.106"/>
    <entry producer="chain1" in="0:01:20.113" out="0:01:20.115"/>
    <entry producer="chain1" in="0:01:20.122" out="0:01:20.124"/>
    <entry producer="chain1" in="0:01:20.126" out="0:01:20.129"/>
    <entry producer="chain1" in="0:01:20.147" out="0:01:20.149"/>
    <entry producer="chain1" in="0:01:20.172" out="0:01:20.174"/>
    <entry producer="chain1" in="0:01:20.188" out="0:01:20.190"/>
    <entry producer="chain1" in="0:01:20.192" out="0:01:20.195"/>
    <entry producer="chain1" in="0:01:20.210" out="0:01:20.215"/>
    <entry producer="chain1" in="0:01:20.229" out="0:01:20.231"/>
    <entry producer="chain1" in="0:01:20.238" out="0:01:20.240"/>
    <entry producer="chain1" in="0:01:20.242" out="0:01:20.319"/>
    <entry producer="chain1" in="0:01:20.326" out="0:01:20.655"/>
    <entry producer="chain1" in="0:01:20.657" out="0:01:20.662"/>
    <entry producer="chain1" in="0:01:20.664" out="0:01:20.682"/>
    <entry producer="chain1" in="0:01:20.684" out="0:01:20.689"/>
    <entry producer="chain1" in="0:01:20.693" out="0:01:20.698"/>
    <entry producer="chain1" in="0:01:20.702" out="0:01:20.705"/>
    <entry producer="chain1" in="0:01:20.707" out="0:01:20.709"/>
    <entry producer="chain1" in="0:01:20.714" out="0:01:20.718"/>
    <entry producer="chain1" in="0:01:20.723" out="0:01:20.727"/>
    <entry producer="chain1" in="0:01:20.730" out="0:01:20.732"/>
    <entry producer="chain1" in="0:01:20.766" out="0:01:20.768"/>
    <entry producer="chain1" in="0:01:20.770" out="0:01:20.904"/>
    <entry producer="chain1" in="0:01:20.909" out="0:01:20.943"/>
    <entry producer="chain1" in="0:01:20.945" out="0:01:20.956"/>
    <entry producer="chain1" in="0:01:20.961" out="0:01:20.975"/>
    <entry producer="chain1" in="0:01:20.977" out="0:01:20.986"/>
    <entry producer="chain1" in="0:01:20.990" out="0:01:20.993"/>
    <entry producer="chain1" in="0:01:20.995" out="0:01:21.834"/>
    <entry producer="chain1" in="0:01:21.854" out="0:01:21.857"/>
    <entry producer="chain1" in="0:01:21.866" out="0:01:21.963"/>
    <entry producer="chain1" in="0:01:21.965" out="0:01:21.977"/>
    <entry producer="chain1" in="0:01:21.981" out="0:01:22.349"/>
    <entry producer="chain1" in="0:01:22.356" out="0:01:22.947"/>
    <entry producer="chain1" in="0:01:22.950" out="0:01:22.981"/>
    <entry producer="chain1" in="0:01:22.990" out="0:01:23.002"/>
    <entry producer="chain1" in="0:01:23.004" out="0:01:23.013"/>
    <entry producer="chain1" in="0:01:23.015" out="0:01:23.027"/>
    <entry producer="chain1" in="0:01:23.031" out="0:01:23.034"/>
    <entry producer="chain1" in="0:01:23.054" out="0:01:23.074"/>
    <entry producer="chain1" in="0:01:23.081" out="0:01:23.086"/>
    <entry producer="chain1" in="0:01:23.088" out="0:01:23.106"/>
    <entry producer="chain1" in="0:01:23.111" out="0:01:23.113"/>
    <entry producer="chain1" in="0:01:23.115" out="0:01:23.117"/>
    <entry producer="chain1" in="0:01:23.129" out="0:01:23.133"/>
    <entry producer="chain1" in="0:01:23.136" out="0:01:23.219"/>
    <entry producer="chain1" in="0:01:23.226" out="0:01:23.249"/>
    <entry producer="chain1" in="0:01:23.251" out="0:01:23.321"/>
    <entry producer="chain1" in="0:01:23.328" out="0:01:23.333"/>
    <entry producer="chain1" in="0:01:23.337" out="0:01:23.340"/>
    <entry producer="chain1" in="0:01:23.342" out="0:01:23.362"/>
    <entry producer="chain1" in="0:01:23.367" out="0:01:23.380"/>
    <entry producer="chain1" in="0:01:23.383" out="0:01:23.390"/>
    <entry producer="chain1" in="0:01:23.410" out="0:01:23.414"/>
    <entry producer="chain1" in="0:01:23.417" out="0:01:23.419"/>
    <entry producer="chain1" in="0:01:23.435" out="0:01:23.437"/>
    <entry producer="chain1" in="0:01:23.439" out="0:01:23.453"/>
    <entry producer="chain1" in="0:01:23.458" out="0:01:23.467"/>
    <entry producer="chain1" in="0:01:23.473" out="0:01:23.482"/>
    <entry producer="chain1" in="0:01:23.485" out="0:01:24.147"/>
    <entry producer="chain1" in="0:01:24.149" out="0:01:24.156"/>
    <entry producer="chain1" in="0:01:24.158" out="0:01:24.160"/>
    <entry producer="chain1" in="0:01:24.163" out="0:01:24.174"/>
    <entry producer="chain1" in="0:01:24.176" out="0:01:24.181"/>
    <entry producer="chain1" in="0:01:24.190" out="0:01:24.990"/>
    <entry producer="chain1" in="0:01:24.993" out="0:01:24.995"/>
    <entry producer="chain1" in="0:01:25.002" out="0:01:25.013"/>
    <entry producer="chain1" in="0:01:25.022" out="0:01:25.029"/>
    <entry producer="chain1" in="0:01:25.034" out="0:01:25.036"/>
    <entry producer="chain1" in="0:01:25.038" out="0:01:25.040"/>
    <entry producer="chain1" in="0:01:25.043" out="0:01:25.052"/>
    <entry producer="chain1" in="0:01:25.054" out="0:01:25.231"/>
    <entry producer="chain1" in="0:01:25.235" out="0:01:25.374"/>
    <entry producer="chain1" in="0:01:25.380" out="0:01:25.401"/>
    <entry producer="chain1" in="0:01:25.410" out="0:01:25.419"/>
    <entry producer="chain1" in="0:01:25.424" out="0:01:25.426"/>
    <entry producer="chain1" in="0:01:25.428" out="0:01:25.433"/>
    <entry producer="chain1" in="0:01:25.435" out="0:01:25.464"/>
    <entry producer="chain1" in="0:01:25.471" out="0:01:25.478"/>
    <entry producer="chain1" in="0:01:25.485" out="0:01:25.487"/>
    <entry producer="chain1" in="0:01:25.489" out="0:01:25.492"/>
    <entry producer="chain1" in="0:01:25.494" out="0:01:25.496"/>
    <entry producer="chain1" in="0:01:25.512" out="0:01:25.519"/>
    <entry producer="chain1" in="0:01:25.532" out="0:01:25.535"/>
    <entry producer="chain1" in="0:01:25.537" out="0:01:25.539"/>
    <entry producer="chain1" in="0:01:25.544" out="0:01:25.546"/>
    <entry producer="chain1" in="0:01:25.548" out="0:01:25.551"/>
    <entry producer="chain1" in="0:01:25.566" out="0:01:25.569"/>
    <entry producer="chain1" in="0:01:25.571" out="0:01:25.573"/>
    <entry producer="chain1" in="0:01:25.585" out="0:01:25.587"/>
    <entry producer="chain1" in="0:01:25.600" out="0:01:25.603"/>
    <entry producer="chain1" in="0:01:25.609" out="0:01:25.614"/>
    <entry producer="chain1" in="0:01:25.616" out="0:01:25.619"/>
    <entry producer="chain1" in="0:01:25.630" out="0:01:25.634"/>
    <entry producer="chain1" in="0:01:25.641" out="0:01:25.653"/>
    <entry producer="chain1" in="0:01:25.659" out="0:01:25.662"/>
    <entry producer="chain1" in="0:01:25.666" out="0:01:25.668"/>
    <entry producer="chain1" in="0:01:25.721" out="0:01:25.725"/>
    <entry producer="chain1" in="0:01:25.750" out="0:01:25.752"/>
    <entry producer="chain1" in="0:01:25.777" out="0:01:25.780"/>
    <entry producer="chain1" in="0:01:25.784" out="0:01:25.786"/>
    <entry producer="chain1" in="0:01:25.793" out="0:01:25.795"/>
    <entry producer="chain1" in="0:01:25.811" out="0:01:25.945"/>
    <entry producer="chain1" in="0:01:25.947" out="0:01:25.950"/>
    <entry producer="chain1" in="0:01:25.952" out="0:01:26.281"/>
    <entry producer="chain1" in="0:01:26.283" out="0:01:26.285"/>
    <entry producer="chain1" in="0:01:26.290" out="0:01:26.297"/>
    <entry producer="chain1" in="0:01:26.301" out="0:01:26.843"/>
    <entry producer="chain1" in="0:01:26.845" out="0:01:26.852"/>
    <entry producer="chain1" in="0:01:26.854" out="0:01:26.857"/>
    <entry producer="chain1" in="0:01:26.861" out="0:01:26.888"/>
    <entry producer="chain1" in="0:01:26.891" out="0:01:27.147"/>
    <entry producer="chain1" in="0:01:27.149" out="0:01:27.154"/>
    <entry producer="chain1" in="0:01:27.156" out="0:01:27.167"/>
    <entry producer="chain1" in="0:01:27.172" out="0:01:27.176"/>
    <entry producer="chain1" in="0:01:27.188" out="0:01:27.195"/>
    <entry producer="chain1" in="0:01:27.199" out="0:01:27.206"/>
    <entry producer="chain1" in="0:01:27.208" out="0:01:27.210"/>
    <entry producer="chain1" in="0:01:27.222" out="0:01:27.226"/>
    <entry producer="chain1" in="0:01:27.229" out="0:01:27.231"/>
    <entry producer="chain1" in="0:01:27.238" out="0:01:27.240"/>
    <entry producer="chain1" in="0:01:27.244" out="0:01:27.251"/>
    <entry producer="chain1" in="0:01:27.258" out="0:01:27.260"/>
    <entry producer="chain1" in="0:01:27.265" out="0:01:27.267"/>
    <entry producer="chain1" in="0:01:27.269" out="0:01:27.272"/>
    <entry producer="chain1" in="0:01:27.274" out="0:01:27.283"/>
    <entry producer="chain1" in="0:01:27.315" out="0:01:27.317"/>
    <entry producer="chain1" in="0:01:27.321" out="0:01:27.464"/>
    <entry producer="chain1" in="0:01:27.467" out="0:01:27.909"/>
    <entry producer="chain1" in="0:01:27.911" out="0:01:27.913"/>
    <entry producer="chain1" in="0:01:27.916" out="0:01:28.068"/>
    <entry producer="chain1" in="0:01:28.070" out="0:01:28.072"/>
    <entry producer="chain1" in="0:01:28.074" out="0:01:28.079"/>
    <entry producer="chain1" in="0:01:28.081" out="0:01:28.083"/>
    <entry producer="chain1" in="0:01:28.086" out="0:01:28.088"/>
    <entry producer="chain1" in="0:01:28.092" out="0:01:28.097"/>
    <entry producer="chain1" in="0:01:28.111" out="0:01:28.115"/>
    <entry producer="chain1" in="0:01:28.129" out="0:01:28.396"/>
    <entry producer="chain1" in="0:01:28.399" out="0:01:28.401"/>
    <entry producer="chain1" in="0:01:28.403" out="0:01:28.437"/>
    <entry producer="chain1" in="0:01:28.439" out="0:01:28.442"/>
    <entry producer="chain1" in="0:01:28.444" out="0:01:28.446"/>
    <entry producer="chain1" in="0:01:28.455" out="0:01:28.458"/>
    <entry producer="chain1" in="0:01:28.467" out="0:01:28.469"/>
    <entry producer="chain1" in="0:01:28.476" out="0:01:28.478"/>
    <entry producer="chain1" in="0:01:28.482" out="0:01:28.485"/>
    <entry producer="chain1" in="0:01:28.489" out="0:01:28.492"/>
    <entry producer="chain1" in="0:01:28.494" out="0:01:28.498"/>
    <entry producer="chain1" in="0:01:28.519" out="0:01:28.521"/>
    <entry producer="chain1" in="0:01:28.526" out="0:01:28.530"/>
    <entry producer="chain1" in="0:01:28.535" out="0:01:28.537"/>
    <entry producer="chain1" in="0:01:28.548" out="0:01:28.571"/>
    <entry producer="chain1" in="0:01:28.598" out="0:01:28.603"/>
    <entry producer="chain1" in="0:01:28.605" out="0:01:28.607"/>
    <entry producer="chain1" in="0:01:28.612" out="0:01:28.637"/>
    <entry producer="chain1" in="0:01:28.641" out="0:01:28.643"/>
    <entry producer="chain1" in="0:01:28.648" out="0:01:28.680"/>
    <entry producer="chain1" in="0:01:28.682" out="0:01:28.684"/>
    <entry producer="chain1" in="0:01:28.693" out="0:01:28.698"/>
    <entry producer="chain1" in="0:01:28.700" out="0:01:28.705"/>
    <entry producer="chain1" in="0:01:28.709" out="0:01:28.712"/>
    <entry producer="chain1" in="0:01:28.716" out="0:01:28.718"/>
    <entry producer="chain1" in="0:01:28.721" out="0:01:28.755"/>
    <entry producer="chain1" in="0:01:28.764" out="0:01:28.766"/>
    <entry producer="chain1" in="0:01:28.780" out="0:01:28.782"/>
    <entry producer="chain1" in="0:01:28.784" out="0:01:28.786"/>
    <entry producer="chain1" in="0:01:28.795" out="0:01:28.798"/>
    <entry producer="chain1" in="0:01:28.800" out="0:01:28.807"/>
    <entry producer="chain1" in="0:01:28.809" out="0:01:28.825"/>
    <entry producer="chain1" in="0:01:28.839" out="0:01:28.841"/>
    <entry producer="chain1" in="0:01:28.843" out="0:01:28.850"/>
    <entry producer="chain1" in="0:01:28.852" out="0:01:28.854"/>
    <entry producer="chain1" in="0:01:28.857" out="0:01:28.859"/>
    <entry producer="chain1" in="0:01:28.866" out="0:01:28.870"/>
    <entry producer="chain1" in="0:01:28.875" out="0:01:28.877"/>
    <entry producer="chain1" in="0:01:28.884" out="0:01:28.902"/>
    <entry producer="chain1" in="0:01:28.907" out="0:01:28.913"/>
    <entry producer="chain1" in="0:01:28.918" out="0:01:28.927"/>
    <entry producer="chain1" in="0:01:28.929" out="0:01:28.938"/>
    <entry producer="chain1" in="0:01:28.945" out="0:01:28.954"/>
    <entry producer="chain1" in="0:01:28.959" out="0:01:28.972"/>
    <entry producer="chain1" in="0:01:28.986" out="0:01:28.988"/>
    <entry producer="chain1" in="0:01:28.993" out="0:01:29.000"/>
    <entry producer="chain1" in="0:01:29.009" out="0:01:29.015"/>
    <entry producer="chain1" in="0:01:29.018" out="0:01:29.020"/>
    <entry producer="chain1" in="0:01:29.029" out="0:01:29.047"/>
    <entry producer="chain1" in="0:01:29.049" out="0:01:29.052"/>
    <entry producer="chain1" in="0:01:29.065" out="0:01:29.068"/>
    <entry producer="chain1" in="0:01:29.079" out="0:01:29.081"/>
    <entry producer="chain1" in="0:01:29.090" out="0:01:29.092"/>
    <entry producer="chain1" in="0:01:29.095" out="0:01:29.117"/>
    <entry producer="chain1" in="0:01:29.120" out="0:01:29.122"/>
    <entry producer="chain1" in="0:01:29.126" out="0:01:29.129"/>
    <entry producer="chain1" in="0:01:29.133" out="0:01:29.138"/>
    <entry producer="chain1" in="0:01:29.158" out="0:01:29.163"/>
    <entry producer="chain1" in="0:01:29.165" out="0:01:29.188"/>
    <entry producer="chain1" in="0:01:29.192" out="0:01:29.195"/>
    <entry producer="chain1" in="0:01:29.197" out="0:01:29.199"/>
    <entry producer="chain1" in="0:01:29.204" out="0:01:29.208"/>
    <entry producer="chain1" in="0:01:29.226" out="0:01:29.229"/>
    <entry producer="chain1" in="0:01:29.231" out="0:01:29.233"/>
    <entry producer="chain1" in="0:01:29.238" out="0:01:29.240"/>
    <entry producer="chain1" in="0:01:29.242" out="0:01:29.256"/>
    <entry producer="chain1" in="0:01:29.258" out="0:01:29.260"/>
    <entry producer="chain1" in="0:01:29.263" out="0:01:29.272"/>
    <entry producer="chain1" in="0:01:29.276" out="0:01:29.278"/>
    <entry producer="chain1" in="0:01:29.281" out="0:01:29.283"/>
    <entry producer="chain1" in="0:01:29.290" out="0:01:29.292"/>
    <entry producer="chain1" in="0:01:29.306" out="0:01:29.308"/>
    <entry producer="chain1" in="0:01:29.312" out="0:01:29.315"/>
    <entry producer="chain1" in="0:01:29.317" out="0:01:29.319"/>
    <entry producer="chain1" in="0:01:29.321" out="0:01:29.324"/>
    <entry producer="chain1" in="0:01:29.326" out="0:01:29.331"/>
    <entry producer="chain1" in="0:01:29.335" out="0:01:29.340"/>
    <entry producer="chain1" in="0:01:29.362" out="0:01:29.365"/>
    <entry producer="chain1" in="0:01:29.378" out="0:01:29.380"/>
    <entry producer="chain1" in="0:01:29.383" out="0:01:29.385"/>
    <entry producer="chain1" in="0:01:29.387" out="0:01:29.394"/>
    <entry producer="chain1" in="0:01:29.396" out="0:01:29.401"/>
    <entry producer="chain1" in="0:01:29.430" out="0:01:29.442"/>
    <entry producer="chain1" in="0:01:29.453" out="0:01:29.462"/>
    <entry producer="chain1" in="0:01:29.464" out="0:01:30.875"/>
    <entry producer="chain1" in="0:01:30.879" out="0:01:30.893"/>
    <entry producer="chain1" in="0:01:30.895" out="0:01:30.897"/>
    <entry producer="chain1" in="0:01:30.902" out="0:01:30.907"/>
    <entry producer="chain1" in="0:01:30.909" out="0:01:30.913"/>
    <entry producer="chain1" in="0:01:30.916" out="0:01:30.918"/>
    <entry producer="chain1" in="0:01:30.920" out="0:01:30.925"/>
    <entry producer="chain1" in="0:01:30.927" out="0:01:30.931"/>
    <entry producer="chain1" in="0:01:30.938" out="0:01:30.945"/>
    <entry producer="chain1" in="0:01:30.961" out="0:01:30.963"/>
    <entry producer="chain1" in="0:01:30.970" out="0:01:30.972"/>
    <entry producer="chain1" in="0:01:30.988" out="0:01:30.990"/>
    <entry producer="chain1" in="0:01:30.993" out="0:01:30.995"/>
    <entry producer="chain1" in="0:01:31.000" out="0:01:31.004"/>
    <entry producer="chain1" in="0:01:31.006" out="0:01:31.011"/>
    <entry producer="chain1" in="0:01:31.015" out="0:01:31.020"/>
    <entry producer="chain1" in="0:01:31.036" out="0:01:31.038"/>
    <entry producer="chain1" in="0:01:31.040" out="0:01:31.043"/>
    <entry producer="chain1" in="0:01:31.047" out="0:01:31.049"/>
    <entry producer="chain1" in="0:01:31.052" out="0:01:31.058"/>
    <entry producer="chain1" in="0:01:31.063" out="0:01:31.083"/>
    <entry producer="chain1" in="0:01:31.088" out="0:01:31.092"/>
    <entry producer="chain1" in="0:01:31.099" out="0:01:31.102"/>
    <entry producer="chain1" in="0:01:31.108" out="0:01:31.111"/>
    <entry producer="chain1" in="0:01:31.115" out="0:01:31.117"/>
    <entry producer="chain1" in="0:01:31.126" out="0:01:31.467"/>
    <entry producer="chain1" in="0:01:31.469" out="0:01:31.476"/>
    <entry producer="chain1" in="0:01:31.480" out="0:01:31.639"/>
    <entry producer="chain1" in="0:01:31.641" out="0:01:31.643"/>
    <entry producer="chain1" in="0:01:31.646" out="0:01:31.648"/>
    <entry producer="chain1" in="0:01:31.650" out="0:01:31.988"/>
    <entry producer="chain1" in="0:01:31.990" out="0:01:32.011"/>
    <entry producer="chain1" in="0:01:32.013" out="0:01:32.027"/>
    <entry producer="chain1" in="0:01:32.029" out="0:01:32.047"/>
    <entry producer="chain1" in="0:01:32.052" out="0:01:32.054"/>
    <entry producer="chain1" in="0:01:32.058" out="0:01:32.061"/>
    <entry producer="chain1" in="0:01:32.070" out="0:01:32.077"/>
    <entry producer="chain1" in="0:01:32.079" out="0:01:32.081"/>
    <entry producer="chain1" in="0:01:32.083" out="0:01:32.086"/>
    <entry producer="chain1" in="0:01:32.088" out="0:01:32.090"/>
    <entry producer="chain1" in="0:01:32.095" out="0:01:32.097"/>
    <entry producer="chain1" in="0:01:32.099" out="0:01:32.113"/>
    <entry producer="chain1" in="0:01:32.120" out="0:01:32.122"/>
    <entry producer="chain1" in="0:01:32.140" out="0:01:32.142"/>
    <entry producer="chain1" in="0:01:32.151" out="0:01:32.156"/>
    <entry producer="chain1" in="0:01:32.158" out="0:01:32.163"/>
    <entry producer="chain1" in="0:01:32.165" out="0:01:32.170"/>
    <entry producer="chain1" in="0:01:32.172" out="0:01:32.185"/>
    <entry producer="chain1" in="0:01:32.201" out="0:01:32.204"/>
    <entry producer="chain1" in="0:01:32.213" out="0:01:32.217"/>
    <entry producer="chain1" in="0:01:32.224" out="0:01:32.229"/>
    <entry producer="chain1" in="0:01:32.231" out="0:01:32.240"/>
    <entry producer="chain1" in="0:01:32.242" out="0:01:32.244"/>
    <entry producer="chain1" in="0:01:32.247" out="0:01:32.253"/>
    <entry producer="chain1" in="0:01:32.267" out="0:01:32.269"/>
    <entry producer="chain1" in="0:01:32.272" out="0:01:32.276"/>
    <entry producer="chain1" in="0:01:32.283" out="0:01:32.287"/>
    <entry producer="chain1" in="0:01:32.299" out="0:01:32.303"/>
    <entry producer="chain1" in="0:01:32.308" out="0:01:32.310"/>
    <entry producer="chain1" in="0:01:32.312" out="0:01:32.317"/>
    <entry producer="chain1" in="0:01:32.321" out="0:01:32.324"/>
    <entry producer="chain1" in="0:01:32.326" out="0:01:32.328"/>
    <entry producer="chain1" in="0:01:32.337" out="0:01:32.340"/>
    <entry producer="chain1" in="0:01:32.342" out="0:01:32.353"/>
    <entry producer="chain1" in="0:01:32.358" out="0:01:32.360"/>
    <entry producer="chain1" in="0:01:32.365" out="0:01:32.369"/>
    <entry producer="chain1" in="0:01:32.371" out="0:01:32.376"/>
    <entry producer="chain1" in="0:01:32.378" out="0:01:32.380"/>
    <entry producer="chain1" in="0:01:32.385" out="0:01:32.387"/>
    <entry producer="chain1" in="0:01:32.405" out="0:01:32.410"/>
    <entry producer="chain1" in="0:01:32.414" out="0:01:32.419"/>
    <entry producer="chain1" in="0:01:32.424" out="0:01:32.430"/>
    <entry producer="chain1" in="0:01:32.433" out="0:01:32.435"/>
    <entry producer="chain1" in="0:01:32.442" out="0:01:32.444"/>
    <entry producer="chain1" in="0:01:32.453" out="0:01:32.458"/>
    <entry producer="chain1" in="0:01:32.467" out="0:01:32.471"/>
    <entry producer="chain1" in="0:01:32.473" out="0:01:32.476"/>
    <entry producer="chain1" in="0:01:32.480" out="0:01:32.494"/>
    <entry producer="chain1" in="0:01:32.496" out="0:01:32.498"/>
    <entry producer="chain1" in="0:01:32.512" out="0:01:32.517"/>
    <entry producer="chain1" in="0:01:32.519" out="0:01:32.521"/>
    <entry producer="chain1" in="0:01:32.548" out="0:01:32.562"/>
    <entry producer="chain1" in="0:01:32.564" out="0:01:32.569"/>
    <entry producer="chain1" in="0:01:32.582" out="0:01:32.585"/>
    <entry producer="chain1" in="0:01:32.596" out="0:01:32.598"/>
    <entry producer="chain1" in="0:01:32.603" out="0:01:32.605"/>
    <entry producer="chain1" in="0:01:32.612" out="0:01:32.619"/>
    <entry producer="chain1" in="0:01:32.623" out="0:01:32.637"/>
    <entry producer="chain1" in="0:01:32.643" out="0:01:32.646"/>
    <entry producer="chain1" in="0:01:32.655" out="0:01:32.659"/>
    <entry producer="chain1" in="0:01:32.680" out="0:01:32.682"/>
    <entry producer="chain1" in="0:01:32.684" out="0:01:32.689"/>
    <entry producer="chain1" in="0:01:32.696" out="0:01:32.700"/>
    <entry producer="chain1" in="0:01:32.709" out="0:01:32.712"/>
    <entry producer="chain1" in="0:01:32.732" out="0:01:32.734"/>
    <entry producer="chain1" in="0:01:32.750" out="0:01:32.752"/>
    <entry producer="chain1" in="0:01:32.768" out="0:01:32.770"/>
    <entry producer="chain1" in="0:01:32.773" out="0:01:32.777"/>
    <entry producer="chain1" in="0:01:32.789" out="0:01:32.791"/>
    <entry producer="chain1" in="0:01:32.802" out="0:01:32.809"/>
    <entry producer="chain1" in="0:01:32.823" out="0:01:32.825"/>
    <entry producer="chain1" in="0:01:32.829" out="0:01:32.832"/>
    <entry producer="chain1" in="0:01:32.839" out="0:01:32.841"/>
    <entry producer="chain1" in="0:01:32.843" out="0:01:32.848"/>
    <entry producer="chain1" in="0:01:32.861" out="0:01:32.863"/>
    <entry producer="chain1" in="0:01:32.870" out="0:01:32.873"/>
    <entry producer="chain1" in="0:01:32.879" out="0:01:32.882"/>
    <entry producer="chain1" in="0:01:32.884" out="0:01:32.888"/>
    <entry producer="chain1" in="0:01:32.900" out="0:01:32.902"/>
    <entry producer="chain1" in="0:01:32.913" out="0:01:32.918"/>
    <entry producer="chain1" in="0:01:32.920" out="0:01:32.922"/>
    <entry producer="chain1" in="0:01:32.931" out="0:01:32.934"/>
    <entry producer="chain1" in="0:01:32.954" out="0:01:32.959"/>
    <entry producer="chain1" in="0:01:32.961" out="0:01:34.385"/>
    <entry producer="chain1" in="0:01:34.387" out="0:01:34.392"/>
    <entry producer="chain1" in="0:01:34.394" out="0:01:34.922"/>
    <entry producer="chain1" in="0:01:34.929" out="0:01:34.934"/>
    <entry producer="chain1" in="0:01:34.938" out="0:01:34.943"/>
    <entry producer="chain1" in="0:01:34.945" out="0:01:34.950"/>
    <entry producer="chain1" in="0:01:34.954" out="0:01:34.956"/>
    <entry producer="chain1" in="0:01:34.961" out="0:01:34.963"/>
    <entry producer="chain1" in="0:01:34.965" out="0:01:34.968"/>
    <entry producer="chain1" in="0:01:34.970" out="0:01:34.972"/>
    <entry producer="chain1" in="0:01:34.979" out="0:01:34.981"/>
    <entry producer="chain1" in="0:01:34.984" out="0:01:34.986"/>
    <entry producer="chain1" in="0:01:34.988" out="0:01:34.995"/>
    <entry producer="chain1" in="0:01:34.997" out="0:01:35.000"/>
    <entry producer="chain1" in="0:01:35.006" out="0:01:35.011"/>
    <entry producer="chain1" in="0:01:35.015" out="0:01:35.018"/>
    <entry producer="chain1" in="0:01:35.022" out="0:01:35.031"/>
    <entry producer="chain1" in="0:01:35.034" out="0:01:35.043"/>
    <entry producer="chain1" in="0:01:35.047" out="0:01:35.056"/>
    <entry producer="chain1" in="0:01:35.061" out="0:01:35.063"/>
    <entry producer="chain1" in="0:01:35.065" out="0:01:35.068"/>
    <entry producer="chain1" in="0:01:35.070" out="0:01:35.072"/>
    <entry producer="chain1" in="0:01:35.074" out="0:01:35.079"/>
    <entry producer="chain1" in="0:01:35.081" out="0:01:35.095"/>
    <entry producer="chain1" in="0:01:35.097" out="0:01:35.102"/>
    <entry producer="chain1" in="0:01:35.106" out="0:01:35.111"/>
    <entry producer="chain1" in="0:01:35.129" out="0:01:35.133"/>
    <entry producer="chain1" in="0:01:35.145" out="0:01:35.156"/>
    <entry producer="chain1" in="0:01:35.163" out="0:01:35.165"/>
    <entry producer="chain1" in="0:01:35.167" out="0:01:35.170"/>
    <entry producer="chain1" in="0:01:35.172" out="0:01:35.956"/>
    <entry producer="chain1" in="0:01:35.961" out="0:01:35.968"/>
    <entry producer="chain1" in="0:01:35.972" out="0:01:35.981"/>
    <entry producer="chain1" in="0:01:35.984" out="0:01:35.988"/>
    <entry producer="chain1" in="0:01:35.990" out="0:01:36.004"/>
    <entry producer="chain1" in="0:01:36.006" out="0:01:36.011"/>
    <entry producer="chain1" in="0:01:36.015" out="0:01:36.018"/>
    <entry producer="chain1" in="0:01:36.020" out="0:01:36.022"/>
    <entry producer="chain1" in="0:01:36.034" out="0:01:36.038"/>
    <entry producer="chain1" in="0:01:36.045" out="0:01:36.047"/>
    <entry producer="chain1" in="0:01:36.052" out="0:01:36.056"/>
    <entry producer="chain1" in="0:01:36.065" out="0:01:36.068"/>
    <entry producer="chain1" in="0:01:36.079" out="0:01:36.083"/>
    <entry producer="chain1" in="0:01:36.086" out="0:01:36.088"/>
    <entry producer="chain1" in="0:01:36.092" out="0:01:36.095"/>
    <entry producer="chain1" in="0:01:36.097" out="0:01:36.102"/>
    <entry producer="chain1" in="0:01:36.115" out="0:01:36.117"/>
    <entry producer="chain1" in="0:01:36.120" out="0:01:36.129"/>
    <entry producer="chain1" in="0:01:36.136" out="0:01:36.138"/>
    <entry producer="chain1" in="0:01:36.142" out="0:01:36.145"/>
    <entry producer="chain1" in="0:01:36.149" out="0:01:36.156"/>
    <entry producer="chain1" in="0:01:36.167" out="0:01:36.170"/>
    <entry producer="chain1" in="0:01:36.183" out="0:01:36.188"/>
    <entry producer="chain1" in="0:01:36.195" out="0:01:36.201"/>
    <entry producer="chain1" in="0:01:36.206" out="0:01:36.210"/>
    <entry producer="chain1" in="0:01:36.215" out="0:01:36.217"/>
    <entry producer="chain1" in="0:01:36.222" out="0:01:36.224"/>
    <entry producer="chain1" in="0:01:36.229" out="0:01:36.231"/>
    <entry producer="chain1" in="0:01:36.238" out="0:01:36.242"/>
    <entry producer="chain1" in="0:01:36.251" out="0:01:36.256"/>
    <entry producer="chain1" in="0:01:36.263" out="0:01:36.265"/>
    <entry producer="chain1" in="0:01:36.267" out="0:01:36.269"/>
    <entry producer="chain1" in="0:01:36.272" out="0:01:36.274"/>
    <entry producer="chain1" in="0:01:36.276" out="0:01:36.283"/>
    <entry producer="chain1" in="0:01:36.294" out="0:01:36.297"/>
    <entry producer="chain1" in="0:01:36.306" out="0:01:36.308"/>
    <entry producer="chain1" in="0:01:36.312" out="0:01:36.317"/>
    <entry producer="chain1" in="0:01:36.321" out="0:01:36.328"/>
    <entry producer="chain1" in="0:01:36.333" out="0:01:36.335"/>
    <entry producer="chain1" in="0:01:36.340" out="0:01:36.344"/>
    <entry producer="chain1" in="0:01:36.360" out="0:01:36.362"/>
    <entry producer="chain1" in="0:01:36.367" out="0:01:36.369"/>
    <entry producer="chain1" in="0:01:36.385" out="0:01:36.387"/>
    <entry producer="chain1" in="0:01:36.399" out="0:01:36.401"/>
    <entry producer="chain1" in="0:01:36.403" out="0:01:36.405"/>
    <entry producer="chain1" in="0:01:36.408" out="0:01:36.410"/>
    <entry producer="chain1" in="0:01:36.414" out="0:01:36.419"/>
    <entry producer="chain1" in="0:01:36.442" out="0:01:36.448"/>
    <entry producer="chain1" in="0:01:36.451" out="0:01:36.455"/>
    <entry producer="chain1" in="0:01:36.458" out="0:01:36.462"/>
    <entry producer="chain1" in="0:01:36.467" out="0:01:36.478"/>
    <entry producer="chain1" in="0:01:36.480" out="0:01:36.482"/>
    <entry producer="chain1" in="0:01:36.485" out="0:01:36.487"/>
    <entry producer="chain1" in="0:01:36.489" out="0:01:36.492"/>
    <entry producer="chain1" in="0:01:36.507" out="0:01:36.514"/>
    <entry producer="chain1" in="0:01:36.521" out="0:01:36.523"/>
    <entry producer="chain1" in="0:01:36.526" out="0:01:36.539"/>
    <entry producer="chain1" in="0:01:36.541" out="0:01:36.548"/>
    <entry producer="chain1" in="0:01:36.557" out="0:01:36.560"/>
    <entry producer="chain1" in="0:01:36.566" out="0:01:36.575"/>
    <entry producer="chain1" in="0:01:36.578" out="0:01:36.582"/>
    <entry producer="chain1" in="0:01:36.587" out="0:01:36.589"/>
    <entry producer="chain1" in="0:01:36.598" out="0:01:36.600"/>
    <entry producer="chain1" in="0:01:36.609" out="0:01:36.614"/>
    <entry producer="chain1" in="0:01:36.616" out="0:01:36.621"/>
    <entry producer="chain1" in="0:01:36.623" out="0:01:36.630"/>
    <entry producer="chain1" in="0:01:36.637" out="0:01:36.639"/>
    <entry producer="chain1" in="0:01:36.641" out="0:01:36.643"/>
    <entry producer="chain1" in="0:01:36.653" out="0:01:36.655"/>
    <entry producer="chain1" in="0:01:36.657" out="0:01:36.664"/>
    <entry producer="chain1" in="0:01:36.673" out="0:01:36.675"/>
    <entry producer="chain1" in="0:01:36.678" out="0:01:36.696"/>
    <entry producer="chain1" in="0:01:36.700" out="0:01:36.702"/>
    <entry producer="chain1" in="0:01:36.705" out="0:01:36.709"/>
    <entry producer="chain1" in="0:01:36.718" out="0:01:36.721"/>
    <entry producer="chain1" in="0:01:36.734" out="0:01:36.741"/>
    <entry producer="chain1" in="0:01:36.743" out="0:01:36.746"/>
    <entry producer="chain1" in="0:01:36.750" out="0:01:36.752"/>
    <entry producer="chain1" in="0:01:36.755" out="0:01:36.761"/>
    <entry producer="chain1" in="0:01:36.766" out="0:01:36.768"/>
    <entry producer="chain1" in="0:01:36.777" out="0:01:36.780"/>
    <entry producer="chain1" in="0:01:36.782" out="0:01:36.784"/>
    <entry producer="chain1" in="0:01:36.791" out="0:01:36.793"/>
    <entry producer="chain1" in="0:01:36.804" out="0:01:36.807"/>
    <entry producer="chain1" in="0:01:36.809" out="0:01:36.820"/>
    <entry producer="chain1" in="0:01:36.823" out="0:01:36.827"/>
    <entry producer="chain1" in="0:01:36.832" out="0:01:36.834"/>
    <entry producer="chain1" in="0:01:36.836" out="0:01:36.839"/>
    <entry producer="chain1" in="0:01:36.845" out="0:01:36.854"/>
    <entry producer="chain1" in="0:01:36.857" out="0:01:36.859"/>
    <entry producer="chain1" in="0:01:36.861" out="0:01:36.866"/>
    <entry producer="chain1" in="0:01:36.875" out="0:01:36.877"/>
    <entry producer="chain1" in="0:01:36.882" out="0:01:36.886"/>
    <entry producer="chain1" in="0:01:36.888" out="0:01:36.893"/>
    <entry producer="chain1" in="0:01:36.895" out="0:01:36.900"/>
    <entry producer="chain1" in="0:01:36.916" out="0:01:36.920"/>
    <entry producer="chain1" in="0:01:36.925" out="0:01:36.927"/>
    <entry producer="chain1" in="0:01:36.934" out="0:01:36.936"/>
    <entry producer="chain1" in="0:01:36.938" out="0:01:36.941"/>
    <entry producer="chain1" in="0:01:36.956" out="0:01:36.959"/>
    <entry producer="chain1" in="0:01:36.963" out="0:01:36.965"/>
    <entry producer="chain1" in="0:01:36.968" out="0:01:36.970"/>
    <entry producer="chain1" in="0:01:36.979" out="0:01:36.981"/>
    <entry producer="chain1" in="0:01:36.984" out="0:01:36.988"/>
    <entry producer="chain1" in="0:01:36.990" out="0:01:37.002"/>
    <entry producer="chain1" in="0:01:37.015" out="0:01:37.018"/>
    <entry producer="chain1" in="0:01:37.022" out="0:01:37.024"/>
    <entry producer="chain1" in="0:01:37.031" out="0:01:37.034"/>
    <entry producer="chain1" in="0:01:37.036" out="0:01:37.040"/>
    <entry producer="chain1" in="0:01:37.049" out="0:01:37.052"/>
    <entry producer="chain1" in="0:01:37.056" out="0:01:37.224"/>
    <entry producer="chain1" in="0:01:37.226" out="0:01:37.954"/>
    <entry producer="chain1" in="0:01:37.956" out="0:01:37.961"/>
    <entry producer="chain1" in="0:01:37.984" out="0:01:37.988"/>
    <entry producer="chain1" in="0:01:38.011" out="0:01:38.013"/>
    <entry producer="chain1" in="0:01:38.022" out="0:01:38.027"/>
    <entry producer="chain1" in="0:01:38.029" out="0:01:38.034"/>
    <entry producer="chain1" in="0:01:38.036" out="0:01:38.040"/>
    <entry producer="chain1" in="0:01:38.058" out="0:01:38.068"/>
    <entry producer="chain1" in="0:01:38.088" out="0:01:38.090"/>
    <entry producer="chain1" in="0:01:38.102" out="0:01:38.104"/>
    <entry producer="chain1" in="0:01:38.115" out="0:01:38.117"/>
    <entry producer="chain1" in="0:01:38.122" out="0:01:38.126"/>
    <entry producer="chain1" in="0:01:38.129" out="0:01:38.133"/>
    <entry producer="chain1" in="0:01:38.136" out="0:01:38.138"/>
    <entry producer="chain1" in="0:01:38.156" out="0:01:38.158"/>
    <entry producer="chain1" in="0:01:38.170" out="0:01:38.174"/>
    <entry producer="chain1" in="0:01:38.195" out="0:01:38.197"/>
    <entry producer="chain1" in="0:01:38.201" out="0:01:38.204"/>
    <entry producer="chain1" in="0:01:38.208" out="0:01:38.210"/>
    <entry producer="chain1" in="0:01:38.242" out="0:01:38.244"/>
    <entry producer="chain1" in="0:01:38.251" out="0:01:38.253"/>
    <entry producer="chain1" in="0:01:38.260" out="0:01:38.263"/>
    <entry producer="chain1" in="0:01:38.272" out="0:01:38.276"/>
    <entry producer="chain1" in="0:01:38.299" out="0:01:38.301"/>
    <entry producer="chain1" in="0:01:38.308" out="0:01:38.310"/>
    <entry producer="chain1" in="0:01:38.312" out="0:01:38.315"/>
    <entry producer="chain1" in="0:01:38.321" out="0:01:38.619"/>
    <entry producer="chain1" in="0:01:38.621" out="0:01:39.498"/>
    <entry producer="chain1" in="0:01:39.503" out="0:01:39.505"/>
    <entry producer="chain1" in="0:01:39.507" out="0:01:39.512"/>
    <entry producer="chain1" in="0:01:39.514" out="0:01:39.517"/>
    <entry producer="chain1" in="0:01:39.519" out="0:01:39.521"/>
    <entry producer="chain1" in="0:01:39.523" out="0:01:39.526"/>
    <entry producer="chain1" in="0:01:39.528" out="0:01:39.530"/>
    <entry producer="chain1" in="0:01:39.539" out="0:01:39.544"/>
    <entry producer="chain1" in="0:01:39.555" out="0:01:39.557"/>
    <entry producer="chain1" in="0:01:39.562" out="0:01:39.566"/>
    <entry producer="chain1" in="0:01:39.571" out="0:01:39.580"/>
    <entry producer="chain1" in="0:01:39.582" out="0:01:39.589"/>
    <entry producer="chain1" in="0:01:39.603" out="0:01:39.605"/>
    <entry producer="chain1" in="0:01:39.616" out="0:01:39.621"/>
    <entry producer="chain1" in="0:01:39.630" out="0:01:39.632"/>
    <entry producer="chain1" in="0:01:39.634" out="0:01:39.639"/>
    <entry producer="chain1" in="0:01:39.641" out="0:01:39.643"/>
    <entry producer="chain1" in="0:01:39.650" out="0:01:39.659"/>
    <entry producer="chain1" in="0:01:39.666" out="0:01:39.668"/>
    <entry producer="chain1" in="0:01:39.680" out="0:01:39.682"/>
    <entry producer="chain1" in="0:01:39.687" out="0:01:39.693"/>
    <entry producer="chain1" in="0:01:39.698" out="0:01:39.702"/>
    <entry producer="chain1" in="0:01:39.707" out="0:01:39.709"/>
    <entry producer="chain1" in="0:01:39.712" out="0:01:39.716"/>
    <entry producer="chain1" in="0:01:39.739" out="0:01:39.741"/>
    <entry producer="chain1" in="0:01:39.748" out="0:01:39.750"/>
    <entry producer="chain1" in="0:01:39.752" out="0:01:39.761"/>
    <entry producer="chain1" in="0:01:39.764" out="0:01:39.766"/>
    <entry producer="chain1" in="0:01:39.770" out="0:01:39.777"/>
    <entry producer="chain1" in="0:01:39.786" out="0:01:39.789"/>
    <entry producer="chain1" in="0:01:39.804" out="0:01:39.809"/>
    <entry producer="chain1" in="0:01:39.814" out="0:01:39.816"/>
    <entry producer="chain1" in="0:01:39.827" out="0:01:40.045"/>
    <entry producer="chain1" in="0:01:40.047" out="0:01:40.052"/>
    <entry producer="chain1" in="0:01:40.058" out="0:01:40.068"/>
    <entry producer="chain1" in="0:01:40.086" out="0:01:40.092"/>
    <entry producer="chain1" in="0:01:40.102" out="0:01:40.113"/>
    <entry producer="chain1" in="0:01:40.120" out="0:01:40.789"/>
    <entry producer="chain1" in="0:01:40.793" out="0:01:40.798"/>
    <entry producer="chain1" in="0:01:40.800" out="0:01:41.070"/>
    <entry producer="chain1" in="0:01:41.072" out="0:01:41.074"/>
    <entry producer="chain1" in="0:01:41.086" out="0:01:41.244"/>
    <entry producer="chain1" in="0:01:41.247" out="0:01:41.251"/>
    <entry producer="chain1" in="0:01:41.258" out="0:01:41.263"/>
    <entry producer="chain1" in="0:01:41.265" out="0:01:41.272"/>
    <entry producer="chain1" in="0:01:41.274" out="0:01:41.299"/>
    <entry producer="chain1" in="0:01:41.306" out="0:01:41.310"/>
    <entry producer="chain1" in="0:01:41.312" out="0:01:41.317"/>
    <entry producer="chain1" in="0:01:41.331" out="0:01:41.335"/>
    <entry producer="chain1" in="0:01:41.346" out="0:01:41.353"/>
    <entry producer="chain1" in="0:01:41.356" out="0:01:41.369"/>
    <entry producer="chain1" in="0:01:41.376" out="0:01:41.378"/>
    <entry producer="chain1" in="0:01:41.387" out="0:01:41.392"/>
    <entry producer="chain1" in="0:01:41.403" out="0:01:41.405"/>
    <entry producer="chain1" in="0:01:41.412" out="0:01:41.414"/>
    <entry producer="chain1" in="0:01:41.428" out="0:01:41.430"/>
    <entry producer="chain1" in="0:01:41.435" out="0:01:41.437"/>
    <entry producer="chain1" in="0:01:41.439" out="0:01:41.448"/>
    <entry producer="chain1" in="0:01:41.473" out="0:01:41.476"/>
    <entry producer="chain1" in="0:01:41.482" out="0:01:41.485"/>
    <entry producer="chain1" in="0:01:41.503" out="0:01:41.505"/>
    <entry producer="chain1" in="0:01:41.514" out="0:01:41.521"/>
    <entry producer="chain1" in="0:01:41.530" out="0:01:41.532"/>
    <entry producer="chain1" in="0:01:41.544" out="0:01:41.546"/>
    <entry producer="chain1" in="0:01:41.555" out="0:01:41.560"/>
    <entry producer="chain1" in="0:01:41.571" out="0:01:41.573"/>
    <entry producer="chain1" in="0:01:41.580" out="0:01:41.585"/>
    <entry producer="chain1" in="0:01:41.591" out="0:01:41.598"/>
    <entry producer="chain1" in="0:01:41.612" out="0:01:41.616"/>
    <entry producer="chain1" in="0:01:41.630" out="0:01:41.634"/>
    <entry producer="chain1" in="0:01:41.637" out="0:01:41.639"/>
    <entry producer="chain1" in="0:01:41.646" out="0:01:41.648"/>
    <entry producer="chain1" in="0:01:41.650" out="0:01:41.653"/>
    <entry producer="chain1" in="0:01:41.662" out="0:01:41.666"/>
    <entry producer="chain1" in="0:01:41.668" out="0:01:41.673"/>
    <entry producer="chain1" in="0:01:41.687" out="0:01:41.691"/>
    <entry producer="chain1" in="0:01:41.716" out="0:01:41.721"/>
    <entry producer="chain1" in="0:01:41.723" out="0:01:41.727"/>
    <entry producer="chain1" in="0:01:41.732" out="0:01:41.741"/>
    <entry producer="chain1" in="0:01:41.743" out="0:01:41.748"/>
    <entry producer="chain1" in="0:01:41.750" out="0:01:41.752"/>
    <entry producer="chain1" in="0:01:41.759" out="0:01:41.770"/>
    <entry producer="chain1" in="0:01:41.773" out="0:01:41.777"/>
    <entry producer="chain1" in="0:01:41.786" out="0:01:41.793"/>
    <entry producer="chain1" in="0:01:41.800" out="0:01:41.804"/>
    <entry producer="chain1" in="0:01:41.807" out="0:01:41.811"/>
    <entry producer="chain1" in="0:01:41.814" out="0:01:41.818"/>
    <entry producer="chain1" in="0:01:41.825" out="0:01:41.827"/>
    <entry producer="chain1" in="0:01:41.841" out="0:01:41.848"/>
    <entry producer="chain1" in="0:01:41.854" out="0:01:41.857"/>
    <entry producer="chain1" in="0:01:41.859" out="0:01:41.863"/>
    <entry producer="chain1" in="0:01:41.866" out="0:01:41.868"/>
    <entry producer="chain1" in="0:01:41.873" out="0:01:41.875"/>
    <entry producer="chain1" in="0:01:41.884" out="0:01:41.888"/>
    <entry producer="chain1" in="0:01:41.893" out="0:01:41.895"/>
    <entry producer="chain1" in="0:01:41.900" out="0:01:41.902"/>
    <entry producer="chain1" in="0:01:41.909" out="0:01:41.913"/>
    <entry producer="chain1" in="0:01:41.920" out="0:01:41.925"/>
    <entry producer="chain1" in="0:01:41.927" out="0:01:41.929"/>
    <entry producer="chain1" in="0:01:41.934" out="0:01:41.938"/>
    <entry producer="chain1" in="0:01:41.941" out="0:01:41.945"/>
    <entry producer="chain1" in="0:01:41.950" out="0:01:41.952"/>
    <entry producer="chain1" in="0:01:41.968" out="0:01:41.970"/>
    <entry producer="chain1" in="0:01:41.981" out="0:01:41.984"/>
    <entry producer="chain1" in="0:01:42.006" out="0:01:42.009"/>
    <entry producer="chain1" in="0:01:42.018" out="0:01:42.022"/>
    <entry producer="chain1" in="0:01:42.029" out="0:01:42.047"/>
    <entry producer="chain1" in="0:01:42.049" out="0:01:42.176"/>
    <entry producer="chain1" in="0:01:42.181" out="0:01:42.197"/>
    <entry producer="chain1" in="0:01:42.204" out="0:01:42.206"/>
    <entry producer="chain1" in="0:01:42.215" out="0:01:42.217"/>
    <entry producer="chain1" in="0:01:42.219" out="0:01:42.222"/>
    <entry producer="chain1" in="0:01:42.235" out="0:01:42.242"/>
    <entry producer="chain1" in="0:01:42.247" out="0:01:42.346"/>
    <entry producer="chain1" in="0:01:42.349" out="0:01:42.353"/>
    <entry producer="chain1" in="0:01:42.356" out="0:01:42.360"/>
    <entry producer="chain1" in="0:01:42.362" out="0:01:42.369"/>
    <entry producer="chain1" in="0:01:42.371" out="0:01:42.503"/>
    <entry producer="chain1" in="0:01:42.505" out="0:01:43.070"/>
    <entry producer="chain1" in="0:01:43.088" out="0:01:43.095"/>
    <entry producer="chain1" in="0:01:43.099" out="0:01:43.104"/>
    <entry producer="chain1" in="0:01:43.142" out="0:01:43.149"/>
    <entry producer="chain1" in="0:01:43.163" out="0:01:43.165"/>
    <entry producer="chain1" in="0:01:43.172" out="0:01:43.174"/>
    <entry producer="chain1" in="0:01:43.197" out="0:01:43.201"/>
    <entry producer="chain1" in="0:01:43.204" out="0:01:43.206"/>
    <entry producer="chain1" in="0:01:43.208" out="0:01:43.210"/>
    <entry producer="chain1" in="0:01:43.215" out="0:01:43.219"/>
    <entry producer="chain1" in="0:01:43.231" out="0:01:43.233"/>
    <entry producer="chain1" in="0:01:43.258" out="0:01:43.260"/>
    <entry producer="chain1" in="0:01:43.276" out="0:01:43.281"/>
    <entry producer="chain1" in="0:01:43.283" out="0:01:43.294"/>
    <entry producer="chain1" in="0:01:43.299" out="0:01:43.301"/>
    <entry producer="chain1" in="0:01:43.308" out="0:01:43.310"/>
    <entry producer="chain1" in="0:01:43.315" out="0:01:43.319"/>
    <entry producer="chain1" in="0:01:43.321" out="0:01:43.324"/>
    <entry producer="chain1" in="0:01:43.326" out="0:01:43.331"/>
    <entry producer="chain1" in="0:01:43.353" out="0:01:43.360"/>
    <entry producer="chain1" in="0:01:43.367" out="0:01:43.369"/>
    <entry producer="chain1" in="0:01:43.374" out="0:01:43.376"/>
    <entry producer="chain1" in="0:01:43.378" out="0:01:43.380"/>
    <entry producer="chain1" in="0:01:43.385" out="0:01:43.390"/>
    <entry producer="chain1" in="0:01:43.392" out="0:01:43.394"/>
    <entry producer="chain1" in="0:01:43.424" out="0:01:43.430"/>
    <entry producer="chain1" in="0:01:43.442" out="0:01:43.444"/>
    <entry producer="chain1" in="0:01:43.448" out="0:01:43.464"/>
    <entry producer="chain1" in="0:01:43.467" out="0:01:43.469"/>
    <entry producer="chain1" in="0:01:43.473" out="0:01:43.476"/>
    <entry producer="chain1" in="0:01:43.478" out="0:01:43.482"/>
    <entry producer="chain1" in="0:01:43.489" out="0:01:43.492"/>
    <entry producer="chain1" in="0:01:43.494" out="0:01:43.507"/>
    <entry producer="chain1" in="0:01:43.519" out="0:01:43.551"/>
    <entry producer="chain1" in="0:01:43.557" out="0:01:43.580"/>
    <entry producer="chain1" in="0:01:43.589" out="0:01:43.609"/>
    <entry producer="chain1" in="0:01:43.612" out="0:01:43.614"/>
    <entry producer="chain1" in="0:01:43.639" out="0:01:43.650"/>
    <entry producer="chain1" in="0:01:43.655" out="0:01:43.680"/>
    <entry producer="chain1" in="0:01:43.689" out="0:01:43.696"/>
    <entry producer="chain1" in="0:01:43.712" out="0:01:43.723"/>
    <entry producer="chain1" in="0:01:43.727" out="0:01:43.750"/>
    <entry producer="chain1" in="0:01:43.752" out="0:01:43.755"/>
    <entry producer="chain1" in="0:01:43.764" out="0:01:43.775"/>
    <entry producer="chain1" in="0:01:43.784" out="0:01:43.791"/>
    <entry producer="chain1" in="0:01:43.795" out="0:01:43.800"/>
    <entry producer="chain1" in="0:01:43.802" out="0:01:43.814"/>
    <entry producer="chain1" in="0:01:43.816" out="0:01:43.825"/>
    <entry producer="chain1" in="0:01:43.827" out="0:01:43.832"/>
    <entry producer="chain1" in="0:01:43.859" out="0:01:43.861"/>
    <entry producer="chain1" in="0:01:43.863" out="0:01:43.868"/>
    <entry producer="chain1" in="0:01:43.870" out="0:01:43.882"/>
    <entry producer="chain1" in="0:01:43.884" out="0:01:43.895"/>
    <entry producer="chain1" in="0:01:43.897" out="0:01:43.900"/>
    <entry producer="chain1" in="0:01:43.904" out="0:01:43.911"/>
    <entry producer="chain1" in="0:01:43.916" out="0:01:43.918"/>
    <entry producer="chain1" in="0:01:43.929" out="0:01:43.931"/>
    <entry producer="chain1" in="0:01:43.938" out="0:01:43.941"/>
    <entry producer="chain1" in="0:01:43.943" out="0:01:43.975"/>
    <entry producer="chain1" in="0:01:43.977" out="0:01:43.981"/>
    <entry producer="chain1" in="0:01:43.984" out="0:01:43.993"/>
    <entry producer="chain1" in="0:01:43.995" out="0:01:44.000"/>
    <entry producer="chain1" in="0:01:44.006" out="0:01:44.072"/>
    <entry producer="chain1" in="0:01:44.074" out="0:01:44.077"/>
    <entry producer="chain1" in="0:01:44.086" out="0:01:44.104"/>
    <entry producer="chain1" in="0:01:44.106" out="0:01:44.111"/>
    <entry producer="chain1" in="0:01:44.113" out="0:01:44.115"/>
    <entry producer="chain1" in="0:01:44.122" out="0:01:44.124"/>
    <entry producer="chain1" in="0:01:44.131" out="0:01:44.145"/>
    <entry producer="chain1" in="0:01:44.147" out="0:01:44.151"/>
    <entry producer="chain1" in="0:01:44.163" out="0:01:44.172"/>
    <entry producer="chain1" in="0:01:44.174" out="0:01:44.176"/>
    <entry producer="chain1" in="0:01:44.181" out="0:01:44.183"/>
    <entry producer="chain1" in="0:01:44.197" out="0:01:44.201"/>
    <entry producer="chain1" in="0:01:44.204" out="0:01:44.206"/>
    <entry producer="chain1" in="0:01:44.210" out="0:01:44.217"/>
    <entry producer="chain1" in="0:01:44.219" out="0:01:44.222"/>
    <entry producer="chain1" in="0:01:44.226" out="0:01:44.229"/>
    <entry producer="chain1" in="0:01:44.235" out="0:01:44.247"/>
    <entry producer="chain1" in="0:01:44.258" out="0:01:44.260"/>
    <entry producer="chain1" in="0:01:44.281" out="0:01:44.292"/>
    <entry producer="chain1" in="0:01:44.299" out="0:01:44.301"/>
    <entry producer="chain1" in="0:01:44.312" out="0:01:44.321"/>
    <entry producer="chain1" in="0:01:44.324" out="0:01:44.326"/>
    <entry producer="chain1" in="0:01:44.331" out="0:01:44.335"/>
    <entry producer="chain1" in="0:01:44.342" out="0:01:44.346"/>
    <entry producer="chain1" in="0:01:44.351" out="0:01:44.365"/>
    <entry producer="chain1" in="0:01:44.369" out="0:01:44.376"/>
    <entry producer="chain1" in="0:01:44.387" out="0:01:44.394"/>
    <entry producer="chain1" in="0:01:44.401" out="0:01:44.403"/>
    <entry producer="chain1" in="0:01:44.410" out="0:01:44.412"/>
    <entry producer="chain1" in="0:01:44.417" out="0:01:44.419"/>
    <entry producer="chain1" in="0:01:44.433" out="0:01:44.435"/>
    <entry producer="chain1" in="0:01:44.437" out="0:01:44.439"/>
    <entry producer="chain1" in="0:01:44.444" out="0:01:44.451"/>
    <entry producer="chain1" in="0:01:44.455" out="0:01:44.464"/>
    <entry producer="chain1" in="0:01:44.480" out="0:01:44.482"/>
    <entry producer="chain1" in="0:01:44.485" out="0:01:44.489"/>
    <entry producer="chain1" in="0:01:44.494" out="0:01:44.496"/>
    <entry producer="chain1" in="0:01:44.503" out="0:01:44.507"/>
    <entry producer="chain1" in="0:01:44.517" out="0:01:44.526"/>
    <entry producer="chain1" in="0:01:44.528" out="0:01:44.532"/>
    <entry producer="chain1" in="0:01:44.537" out="0:01:44.544"/>
    <entry producer="chain1" in="0:01:44.548" out="0:01:44.553"/>
    <entry producer="chain1" in="0:01:44.555" out="0:01:44.557"/>
    <entry producer="chain1" in="0:01:44.560" out="0:01:44.562"/>
    <entry producer="chain1" in="0:01:44.566" out="0:01:44.569"/>
    <entry producer="chain1" in="0:01:44.573" out="0:01:44.578"/>
    <entry producer="chain1" in="0:01:44.585" out="0:01:44.596"/>
    <entry producer="chain1" in="0:01:44.605" out="0:01:44.607"/>
    <entry producer="chain1" in="0:01:44.619" out="0:01:44.621"/>
    <entry producer="chain1" in="0:01:44.630" out="0:01:44.632"/>
    <entry producer="chain1" in="0:01:44.637" out="0:01:44.641"/>
    <entry producer="chain1" in="0:01:44.643" out="0:01:44.653"/>
    <entry producer="chain1" in="0:01:44.659" out="0:01:44.662"/>
    <entry producer="chain1" in="0:01:44.671" out="0:01:44.673"/>
    <entry producer="chain1" in="0:01:44.678" out="0:01:44.680"/>
    <entry producer="chain1" in="0:01:44.687" out="0:01:44.689"/>
    <entry producer="chain1" in="0:01:44.698" out="0:01:44.700"/>
    <entry producer="chain1" in="0:01:44.705" out="0:01:44.709"/>
    <entry producer="chain1" in="0:01:44.712" out="0:01:44.714"/>
    <entry producer="chain1" in="0:01:44.716" out="0:01:44.718"/>
    <entry producer="chain1" in="0:01:44.725" out="0:01:44.727"/>
    <entry producer="chain1" in="0:01:44.736" out="0:01:44.743"/>
    <entry producer="chain1" in="0:01:44.748" out="0:01:44.750"/>
    <entry producer="chain1" in="0:01:44.759" out="0:01:44.761"/>
    <entry producer="chain1" in="0:01:44.789" out="0:01:44.791"/>
    <entry producer="chain1" in="0:01:44.807" out="0:01:44.839"/>
    <entry producer="chain1" in="0:01:44.845" out="0:01:44.850"/>
    <entry producer="chain1" in="0:01:44.859" out="0:01:44.870"/>
    <entry producer="chain1" in="0:01:44.882" out="0:01:45.478"/>
    <entry producer="chain1" in="0:01:45.480" out="0:01:45.485"/>
    <entry producer="chain1" in="0:01:45.487" out="0:01:45.893"/>
    <entry producer="chain1" in="0:01:45.897" out="0:01:45.913"/>
    <entry producer="chain1" in="0:01:45.916" out="0:01:45.925"/>
    <entry producer="chain1" in="0:01:45.927" out="0:01:45.929"/>
    <entry producer="chain1" in="0:01:45.934" out="0:01:46.843"/>
    <entry producer="chain1" in="0:01:46.848" out="0:01:46.850"/>
    <entry producer="chain1" in="0:01:46.852" out="0:01:47.696"/>
    <entry producer="chain1" in="0:01:47.698" out="0:01:47.707"/>
    <entry producer="chain1" in="0:01:47.712" out="0:01:47.716"/>
    <entry producer="chain1" in="0:01:47.718" out="0:01:47.739"/>
    <entry producer="chain1" in="0:01:47.743" out="0:01:47.746"/>
    <entry producer="chain1" in="0:01:47.752" out="0:01:47.755"/>
    <entry producer="chain1" in="0:01:47.768" out="0:01:47.770"/>
    <entry producer="chain1" in="0:01:47.789" out="0:01:47.791"/>
    <entry producer="chain1" in="0:01:47.802" out="0:01:47.814"/>
    <entry producer="chain1" in="0:01:47.836" out="0:01:47.843"/>
    <entry producer="chain1" in="0:01:47.857" out="0:01:47.859"/>
    <entry producer="chain1" in="0:01:47.875" out="0:01:47.884"/>
    <entry producer="chain1" in="0:01:47.900" out="0:01:47.902"/>
    <entry producer="chain1" in="0:01:47.913" out="0:01:47.916"/>
    <entry producer="chain1" in="0:01:47.920" out="0:01:47.922"/>
    <entry producer="chain1" in="0:01:47.947" out="0:01:47.952"/>
    <entry producer="chain1" in="0:01:47.959" out="0:01:47.961"/>
    <entry producer="chain1" in="0:01:47.965" out="0:01:47.968"/>
    <entry producer="chain1" in="0:01:47.979" out="0:01:47.986"/>
    <entry producer="chain1" in="0:01:48.004" out="0:01:48.009"/>
    <entry producer="chain1" in="0:01:48.011" out="0:01:48.013"/>
    <entry producer="chain1" in="0:01:48.020" out="0:01:48.024"/>
    <entry producer="chain1" in="0:01:48.027" out="0:01:48.038"/>
    <entry producer="chain1" in="0:01:48.040" out="0:01:48.043"/>
    <entry producer="chain1" in="0:01:48.047" out="0:01:48.049"/>
    <entry producer="chain1" in="0:01:48.054" out="0:01:48.056"/>
    <entry producer="chain1" in="0:01:48.058" out="0:01:48.061"/>
    <entry producer="chain1" in="0:01:48.083" out="0:01:48.086"/>
    <entry producer="chain1" in="0:01:48.095" out="0:01:48.108"/>
    <entry producer="chain1" in="0:01:48.122" out="0:01:48.126"/>
    <entry producer="chain1" in="0:01:48.136" out="0:01:48.140"/>
    <entry producer="chain1" in="0:01:48.151" out="0:01:48.156"/>
    <entry producer="chain1" in="0:01:48.160" out="0:01:48.167"/>
    <entry producer="chain1" in="0:01:48.176" out="0:01:48.181"/>
    <entry producer="chain1" in="0:01:48.183" out="0:01:48.185"/>
    <entry producer="chain1" in="0:01:48.235" out="0:01:48.244"/>
    <entry producer="chain1" in="0:01:48.249" out="0:01:48.253"/>
    <entry producer="chain1" in="0:01:48.256" out="0:01:48.258"/>
    <entry producer="chain1" in="0:01:48.260" out="0:01:48.265"/>
    <entry producer="chain1" in="0:01:48.274" out="0:01:48.278"/>
    <entry producer="chain1" in="0:01:48.287" out="0:01:48.292"/>
    <entry producer="chain1" in="0:01:48.301" out="0:01:48.310"/>
    <entry producer="chain1" in="0:01:48.315" out="0:01:48.319"/>
    <entry producer="chain1" in="0:01:48.335" out="0:01:48.351"/>
    <entry producer="chain1" in="0:01:48.358" out="0:01:48.360"/>
    <entry producer="chain1" in="0:01:48.371" out="0:01:48.376"/>
    <entry producer="chain1" in="0:01:48.383" out="0:01:48.390"/>
    <entry producer="chain1" in="0:01:48.394" out="0:01:48.396"/>
    <entry producer="chain1" in="0:01:48.399" out="0:01:48.401"/>
    <entry producer="chain1" in="0:01:48.408" out="0:01:48.419"/>
    <entry producer="chain1" in="0:01:48.421" out="0:01:48.458"/>
    <entry producer="chain1" in="0:01:48.460" out="0:01:48.505"/>
    <entry producer="chain1" in="0:01:48.507" out="0:01:48.564"/>
    <entry producer="chain1" in="0:01:48.566" out="0:01:48.571"/>
    <entry producer="chain1" in="0:01:48.573" out="0:01:48.580"/>
    <entry producer="chain1" in="0:01:48.582" out="0:01:48.585"/>
    <entry producer="chain1" in="0:01:48.587" out="0:01:48.591"/>
    <entry producer="chain1" in="0:01:48.594" out="0:01:48.596"/>
    <entry producer="chain1" in="0:01:48.600" out="0:01:48.609"/>
    <entry producer="chain1" in="0:01:48.612" out="0:01:48.619"/>
    <entry producer="chain1" in="0:01:48.625" out="0:01:48.628"/>
    <entry producer="chain1" in="0:01:48.630" out="0:01:48.641"/>
    <entry producer="chain1" in="0:01:48.646" out="0:01:48.648"/>
    <entry producer="chain1" in="0:01:48.653" out="0:01:48.657"/>
    <entry producer="chain1" in="0:01:48.666" out="0:01:48.668"/>
    <entry producer="chain1" in="0:01:48.671" out="0:01:48.673"/>
    <entry producer="chain1" in="0:01:48.680" out="0:01:48.693"/>
    <entry producer="chain1" in="0:01:48.700" out="0:01:48.702"/>
    <entry producer="chain1" in="0:01:48.709" out="0:01:48.714"/>
    <entry producer="chain1" in="0:01:48.716" out="0:01:48.718"/>
    <entry producer="chain1" in="0:01:48.725" out="0:01:48.732"/>
    <entry producer="chain1" in="0:01:48.734" out="0:01:48.736"/>
    <entry producer="chain1" in="0:01:48.759" out="0:01:48.766"/>
    <entry producer="chain1" in="0:01:48.780" out="0:01:48.782"/>
    <entry producer="chain1" in="0:01:48.804" out="0:01:48.814"/>
    <entry producer="chain1" in="0:01:48.816" out="0:01:48.818"/>
    <entry producer="chain1" in="0:01:48.827" out="0:01:48.829"/>
    <entry producer="chain1" in="0:01:48.832" out="0:01:48.834"/>
    <entry producer="chain1" in="0:01:48.836" out="0:01:48.841"/>
    <entry producer="chain1" in="0:01:48.854" out="0:01:48.857"/>
    <entry producer="chain1" in="0:01:48.877" out="0:01:48.882"/>
    <entry producer="chain1" in="0:01:48.902" out="0:01:48.904"/>
    <entry producer="chain1" in="0:01:48.909" out="0:01:48.911"/>
    <entry producer="chain1" in="0:01:48.938" out="0:01:48.941"/>
    <entry producer="chain1" in="0:01:48.943" out="0:01:48.945"/>
    <entry producer="chain1" in="0:01:48.950" out="0:01:48.954"/>
    <entry producer="chain1" in="0:01:48.956" out="0:01:48.959"/>
    <entry producer="chain1" in="0:01:48.965" out="0:01:48.968"/>
    <entry producer="chain1" in="0:01:48.981" out="0:01:48.986"/>
    <entry producer="chain1" in="0:01:48.990" out="0:01:48.993"/>
    <entry producer="chain1" in="0:01:49.011" out="0:01:49.015"/>
    <entry producer="chain1" in="0:01:49.022" out="0:01:49.029"/>
    <entry producer="chain1" in="0:01:49.043" out="0:01:49.045"/>
    <entry producer="chain1" in="0:01:49.058" out="0:01:49.063"/>
    <entry producer="chain1" in="0:01:49.099" out="0:01:49.102"/>
    <entry producer="chain1" in="0:01:49.106" out="0:01:49.108"/>
    <entry producer="chain1" in="0:01:49.122" out="0:01:49.124"/>
    <entry producer="chain1" in="0:01:49.147" out="0:01:49.149"/>
    <entry producer="chain1" in="0:01:49.156" out="0:01:49.160"/>
    <entry producer="chain1" in="0:01:49.165" out="0:01:49.167"/>
    <entry producer="chain1" in="0:01:49.176" out="0:01:49.179"/>
    <entry producer="chain1" in="0:01:49.185" out="0:01:49.188"/>
    <entry producer="chain1" in="0:01:49.190" out="0:01:49.195"/>
    <entry producer="chain1" in="0:01:49.217" out="0:01:49.219"/>
    <entry producer="chain1" in="0:01:49.224" out="0:01:49.229"/>
    <entry producer="chain1" in="0:01:49.235" out="0:01:49.238"/>
    <entry producer="chain1" in="0:01:49.240" out="0:01:49.242"/>
    <entry producer="chain1" in="0:01:49.247" out="0:01:49.249"/>
    <entry producer="chain1" in="0:01:49.251" out="0:01:49.253"/>
    <entry producer="chain1" in="0:01:49.256" out="0:01:49.260"/>
    <entry producer="chain1" in="0:01:49.272" out="0:01:49.276"/>
    <entry producer="chain1" in="0:01:49.287" out="0:01:49.290"/>
    <entry producer="chain1" in="0:01:49.294" out="0:01:49.297"/>
    <entry producer="chain1" in="0:01:49.308" out="0:01:49.310"/>
    <entry producer="chain1" in="0:01:49.317" out="0:01:49.321"/>
    <entry producer="chain1" in="0:01:49.326" out="0:01:49.331"/>
    <entry producer="chain1" in="0:01:49.340" out="0:01:49.346"/>
    <entry producer="chain1" in="0:01:49.369" out="0:01:49.374"/>
    <entry producer="chain1" in="0:01:49.376" out="0:01:49.378"/>
    <entry producer="chain1" in="0:01:49.385" out="0:01:49.387"/>
    <entry producer="chain1" in="0:01:49.392" out="0:01:49.399"/>
    <entry producer="chain1" in="0:01:49.403" out="0:01:49.405"/>
    <entry producer="chain1" in="0:01:49.439" out="0:01:49.442"/>
    <entry producer="chain1" in="0:01:49.444" out="0:01:49.446"/>
    <entry producer="chain1" in="0:01:49.458" out="0:01:49.460"/>
    <entry producer="chain1" in="0:01:49.469" out="0:01:49.473"/>
    <entry producer="chain1" in="0:01:49.492" out="0:01:49.494"/>
    <entry producer="chain1" in="0:01:49.496" out="0:01:49.503"/>
    <entry producer="chain1" in="0:01:49.505" out="0:01:49.510"/>
    <entry producer="chain1" in="0:01:49.521" out="0:01:49.523"/>
    <entry producer="chain1" in="0:01:49.526" out="0:01:49.528"/>
    <entry producer="chain1" in="0:01:49.541" out="0:01:49.548"/>
    <entry producer="chain1" in="0:01:49.555" out="0:01:51.324"/>
    <entry producer="chain1" in="0:01:51.326" out="0:01:51.560"/>
    <entry producer="chain1" in="0:01:51.564" out="0:01:51.589"/>
    <entry producer="chain1" in="0:01:51.594" out="0:01:51.612"/>
    <entry producer="chain1" in="0:01:51.614" out="0:01:51.623"/>
    <entry producer="chain1" in="0:01:51.625" out="0:01:51.630"/>
    <entry producer="chain1" in="0:01:51.634" out="0:01:51.639"/>
    <entry producer="chain1" in="0:01:51.641" out="0:01:51.648"/>
    <entry producer="chain1" in="0:01:51.650" out="0:01:51.653"/>
    <entry producer="chain1" in="0:01:51.657" out="0:01:51.662"/>
    <entry producer="chain1" in="0:01:51.664" out="0:01:51.673"/>
    <entry producer="chain1" in="0:01:51.687" out="0:01:51.689"/>
    <entry producer="chain1" in="0:01:51.696" out="0:01:51.698"/>
    <entry producer="chain1" in="0:01:51.702" out="0:01:51.707"/>
    <entry producer="chain1" in="0:01:51.709" out="0:01:51.712"/>
    <entry producer="chain1" in="0:01:51.714" out="0:01:51.725"/>
    <entry producer="chain1" in="0:01:51.743" out="0:01:51.748"/>
    <entry producer="chain1" in="0:01:51.770" out="0:01:51.784"/>
    <entry producer="chain1" in="0:01:51.786" out="0:01:51.791"/>
    <entry producer="chain1" in="0:01:51.804" out="0:01:51.807"/>
    <entry producer="chain1" in="0:01:51.809" out="0:01:51.814"/>
    <entry producer="chain1" in="0:01:51.839" out="0:01:51.845"/>
    <entry producer="chain1" in="0:01:51.850" out="0:01:51.854"/>
    <entry producer="chain1" in="0:01:51.875" out="0:01:51.882"/>
    <entry producer="chain1" in="0:01:51.884" out="0:01:51.886"/>
    <entry producer="chain1" in="0:01:51.918" out="0:01:51.920"/>
    <entry producer="chain1" in="0:01:51.950" out="0:01:51.954"/>
    <entry producer="chain1" in="0:01:51.965" out="0:01:51.968"/>
    <entry producer="chain1" in="0:01:51.990" out="0:01:51.995"/>
    <entry producer="chain1" in="0:01:52.015" out="0:01:52.018"/>
    <entry producer="chain1" in="0:01:52.031" out="0:01:52.034"/>
    <entry producer="chain1" in="0:01:52.036" out="0:01:52.501"/>
    <entry producer="chain1" in="0:01:52.503" out="0:01:52.514"/>
    <entry producer="chain1" in="0:01:52.517" out="0:01:52.521"/>
    <entry producer="chain1" in="0:01:52.535" out="0:01:52.539"/>
    <entry producer="chain1" in="0:01:52.544" out="0:01:52.546"/>
    <entry producer="chain1" in="0:01:52.548" out="0:01:52.553"/>
    <entry producer="chain1" in="0:01:52.555" out="0:01:52.560"/>
    <entry producer="chain1" in="0:01:52.562" out="0:01:52.571"/>
    <entry producer="chain1" in="0:01:52.582" out="0:01:52.585"/>
    <entry producer="chain1" in="0:01:52.587" out="0:01:52.589"/>
    <entry producer="chain1" in="0:01:52.612" out="0:01:52.619"/>
    <entry producer="chain1" in="0:01:52.621" out="0:01:52.623"/>
    <entry producer="chain1" in="0:01:52.625" out="0:01:52.628"/>
    <entry producer="chain1" in="0:01:52.630" out="0:01:52.632"/>
    <entry producer="chain1" in="0:01:52.634" out="0:01:52.637"/>
    <entry producer="chain1" in="0:01:52.639" out="0:01:52.641"/>
    <entry producer="chain1" in="0:01:52.664" out="0:01:52.666"/>
    <entry producer="chain1" in="0:01:52.678" out="0:01:52.680"/>
    <entry producer="chain1" in="0:01:52.691" out="0:01:52.700"/>
    <entry producer="chain1" in="0:01:52.702" out="0:01:52.707"/>
    <entry producer="chain1" in="0:01:52.714" out="0:01:52.716"/>
    <entry producer="chain1" in="0:01:52.725" out="0:01:52.730"/>
    <entry producer="chain1" in="0:01:52.741" out="0:01:52.743"/>
    <entry producer="chain1" in="0:01:52.750" out="0:01:52.752"/>
    <entry producer="chain1" in="0:01:52.761" out="0:01:52.764"/>
    <entry producer="chain1" in="0:01:52.766" out="0:01:52.770"/>
    <entry producer="chain1" in="0:01:52.775" out="0:01:52.777"/>
    <entry producer="chain1" in="0:01:52.798" out="0:01:52.800"/>
    <entry producer="chain1" in="0:01:52.804" out="0:01:52.809"/>
    <entry producer="chain1" in="0:01:52.811" out="0:01:52.814"/>
    <entry producer="chain1" in="0:01:52.820" out="0:01:52.823"/>
    <entry producer="chain1" in="0:01:52.834" out="0:01:52.839"/>
    <entry producer="chain1" in="0:01:52.843" out="0:01:52.848"/>
    <entry producer="chain1" in="0:01:52.852" out="0:01:52.854"/>
    <entry producer="chain1" in="0:01:52.868" out="0:01:52.870"/>
    <entry producer="chain1" in="0:01:52.873" out="0:01:52.875"/>
    <entry producer="chain1" in="0:01:52.900" out="0:01:52.904"/>
    <entry producer="chain1" in="0:01:52.909" out="0:01:52.918"/>
    <entry producer="chain1" in="0:01:52.936" out="0:01:52.938"/>
    <entry producer="chain1" in="0:01:52.945" out="0:01:52.947"/>
    <entry producer="chain1" in="0:01:52.959" out="0:01:52.961"/>
    <entry producer="chain1" in="0:01:52.965" out="0:01:52.968"/>
    <entry producer="chain1" in="0:01:52.977" out="0:01:52.986"/>
    <entry producer="chain1" in="0:01:52.988" out="0:01:52.990"/>
    <entry producer="chain1" in="0:01:53.002" out="0:01:53.004"/>
    <entry producer="chain1" in="0:01:53.009" out="0:01:53.011"/>
    <entry producer="chain1" in="0:01:53.015" out="0:01:53.020"/>
    <entry producer="chain1" in="0:01:53.036" out="0:01:53.038"/>
    <entry producer="chain1" in="0:01:53.045" out="0:01:53.047"/>
    <entry producer="chain1" in="0:01:53.072" out="0:01:53.074"/>
    <entry producer="chain1" in="0:01:53.081" out="0:01:53.086"/>
    <entry producer="chain1" in="0:01:53.088" out="0:01:53.090"/>
    <entry producer="chain1" in="0:01:53.108" out="0:01:53.117"/>
    <entry producer="chain1" in="0:01:53.122" out="0:01:53.129"/>
    <entry producer="chain1" in="0:01:53.131" out="0:01:53.136"/>
    <entry producer="chain1" in="0:01:53.142" out="0:01:53.147"/>
    <entry producer="chain1" in="0:01:53.156" out="0:01:53.158"/>
    <entry producer="chain1" in="0:01:53.185" out="0:01:53.188"/>
    <entry producer="chain1" in="0:01:53.195" out="0:01:53.197"/>
    <entry producer="chain1" in="0:01:53.213" out="0:01:53.319"/>
    <entry producer="chain1" in="0:01:53.321" out="0:01:53.333"/>
    <entry producer="chain1" in="0:01:53.337" out="0:01:53.344"/>
    <entry producer="chain1" in="0:01:53.346" out="0:01:53.349"/>
    <entry producer="chain1" in="0:01:53.353" out="0:01:53.369"/>
    <entry producer="chain1" in="0:01:53.378" out="0:01:53.380"/>
    <entry producer="chain1" in="0:01:53.390" out="0:01:53.392"/>
    <entry producer="chain1" in="0:01:53.401" out="0:01:53.410"/>
    <entry producer="chain1" in="0:01:53.424" out="0:01:53.897"/>
    <entry producer="chain1" in="0:01:53.902" out="0:01:53.997"/>
    <entry producer="chain1" in="0:01:54.000" out="0:01:54.002"/>
    <entry producer="chain1" in="0:01:54.009" out="0:01:54.011"/>
    <entry producer="chain1" in="0:01:54.056" out="0:01:54.058"/>
    <entry producer="chain1" in="0:01:54.063" out="0:01:54.605"/>
    <entry producer="chain1" in="0:01:54.609" out="0:01:54.614"/>
    <entry producer="chain1" in="0:01:54.632" out="0:01:54.634"/>
    <entry producer="chain1" in="0:01:54.650" out="0:01:54.653"/>
    <entry producer="chain1" in="0:01:54.657" out="0:01:54.664"/>
    <entry producer="chain1" in="0:01:54.668" out="0:01:54.848"/>
    <entry producer="chain1" in="0:01:54.850" out="0:01:55.419"/>
    <entry producer="chain1" in="0:01:55.428" out="0:01:55.433"/>
    <entry producer="chain1" in="0:01:55.437" out="0:01:55.442"/>
    <entry producer="chain1" in="0:01:55.444" out="0:01:55.448"/>
    <entry producer="chain1" in="0:01:55.451" out="0:01:55.453"/>
    <entry producer="chain1" in="0:01:55.464" out="0:01:55.467"/>
    <entry producer="chain1" in="0:01:55.489" out="0:01:55.492"/>
    <entry producer="chain1" in="0:01:55.501" out="0:01:55.505"/>
    <entry producer="chain1" in="0:01:55.530" out="0:01:55.532"/>
    <entry producer="chain1" in="0:01:55.605" out="0:01:55.607"/>
    <entry producer="chain1" in="0:01:55.609" out="0:01:55.612"/>
    <entry producer="chain1" in="0:01:55.623" out="0:01:55.625"/>
    <entry producer="chain1" in="0:01:55.628" out="0:01:55.632"/>
    <entry producer="chain1" in="0:01:55.639" out="0:01:55.641"/>
    <entry producer="chain1" in="0:01:55.668" out="0:01:55.671"/>
    <entry producer="chain1" in="0:01:55.698" out="0:01:55.702"/>
    <entry producer="chain1" in="0:01:55.707" out="0:01:55.709"/>
    <entry producer="chain1" in="0:01:55.723" out="0:01:55.725"/>
    <entry producer="chain1" in="0:01:55.743" out="0:01:55.746"/>
    <entry producer="chain1" in="0:01:55.755" out="0:01:55.757"/>
    <entry producer="chain1" in="0:01:55.770" out="0:01:55.777"/>
    <entry producer="chain1" in="0:01:55.809" out="0:01:55.811"/>
    <entry producer="chain1" in="0:01:55.816" out="0:01:55.818"/>
    <entry producer="chain1" in="0:01:55.829" out="0:01:55.832"/>
    <entry producer="chain1" in="0:01:55.841" out="0:01:55.843"/>
    <entry producer="chain1" in="0:01:55.848" out="0:01:55.852"/>
    <entry producer="chain1" in="0:01:55.870" out="0:01:55.873"/>
    <entry producer="chain1" in="0:01:55.886" out="0:01:55.888"/>
    <entry producer="chain1" in="0:01:55.902" out="0:01:55.907"/>
    <entry producer="chain1" in="0:01:55.909" out="0:01:55.911"/>
    <entry producer="chain1" in="0:01:55.916" out="0:01:55.920"/>
    <entry producer="chain1" in="0:01:55.927" out="0:01:55.931"/>
    <entry producer="chain1" in="0:01:55.936" out="0:01:55.938"/>
    <entry producer="chain1" in="0:01:55.941" out="0:01:55.945"/>
    <entry producer="chain1" in="0:01:55.954" out="0:01:55.961"/>
    <entry producer="chain1" in="0:01:55.981" out="0:01:55.984"/>
    <entry producer="chain1" in="0:01:56.004" out="0:01:56.006"/>
    <entry producer="chain1" in="0:01:56.009" out="0:01:56.011"/>
    <entry producer="chain1" in="0:01:56.018" out="0:01:56.020"/>
    <entry producer="chain1" in="0:01:56.029" out="0:01:56.031"/>
    <entry producer="chain1" in="0:01:56.043" out="0:01:56.045"/>
    <entry producer="chain1" in="0:01:56.054" out="0:01:56.056"/>
    <entry producer="chain1" in="0:01:56.120" out="0:01:56.122"/>
    <entry producer="chain1" in="0:01:56.129" out="0:01:56.133"/>
    <entry producer="chain1" in="0:01:56.138" out="0:01:56.140"/>
    <entry producer="chain1" in="0:01:56.156" out="0:01:56.158"/>
    <entry producer="chain1" in="0:01:56.181" out="0:01:56.183"/>
    <entry producer="chain1" in="0:01:56.185" out="0:01:56.188"/>
    <entry producer="chain1" in="0:01:56.190" out="0:01:56.195"/>
    <entry producer="chain1" in="0:01:56.213" out="0:01:56.215"/>
    <entry producer="chain1" in="0:01:56.251" out="0:01:56.253"/>
    <entry producer="chain1" in="0:01:56.256" out="0:01:56.263"/>
    <entry producer="chain1" in="0:01:56.267" out="0:01:56.269"/>
    <entry producer="chain1" in="0:01:56.301" out="0:01:56.303"/>
    <entry producer="chain1" in="0:01:56.321" out="0:01:56.326"/>
    <entry producer="chain1" in="0:01:56.331" out="0:01:56.342"/>
    <entry producer="chain1" in="0:01:56.358" out="0:01:56.362"/>
    <entry producer="chain1" in="0:01:56.371" out="0:01:56.374"/>
    <entry producer="chain1" in="0:01:56.376" out="0:01:57.895"/>
    <entry producer="chain1" in="0:01:57.897" out="0:01:57.900"/>
    <entry producer="chain1" in="0:01:57.902" out="0:01:57.909"/>
    <entry producer="chain1" in="0:01:57.911" out="0:01:57.918"/>
    <entry producer="chain1" in="0:01:57.922" out="0:01:57.925"/>
    <entry producer="chain1" in="0:01:57.929" out="0:01:57.945"/>
    <entry producer="chain1" in="0:01:57.954" out="0:01:57.956"/>
    <entry producer="chain1" in="0:01:57.965" out="0:01:57.972"/>
    <entry producer="chain1" in="0:01:57.975" out="0:01:57.979"/>
    <entry producer="chain1" in="0:01:57.995" out="0:01:58.000"/>
    <entry producer="chain1" in="0:01:58.022" out="0:01:58.029"/>
    <entry producer="chain1" in="0:01:58.034" out="0:01:58.052"/>
    <entry producer="chain1" in="0:01:58.056" out="0:01:58.063"/>
    <entry producer="chain1" in="0:01:58.068" out="0:01:58.072"/>
    <entry producer="chain1" in="0:01:58.099" out="0:01:58.111"/>
    <entry producer="chain1" in="0:01:58.115" out="0:01:58.120"/>
    <entry producer="chain1" in="0:01:58.138" out="0:01:58.142"/>
    <entry producer="chain1" in="0:01:58.165" out="0:01:58.170"/>
    <entry producer="chain1" in="0:01:58.174" out="0:01:58.179"/>
    <entry producer="chain1" in="0:01:58.181" out="0:01:58.183"/>
    <entry producer="chain1" in="0:01:58.192" out="0:01:58.195"/>
    <entry producer="chain1" in="0:01:58.215" out="0:01:58.217"/>
    <entry producer="chain1" in="0:01:58.233" out="0:01:58.238"/>
    <entry producer="chain1" in="0:01:58.242" out="0:01:58.249"/>
    <entry producer="chain1" in="0:01:58.294" out="0:01:58.297"/>
    <entry producer="chain1" in="0:01:58.312" out="0:01:58.319"/>
    <entry producer="chain1" in="0:01:58.321" out="0:01:58.324"/>
    <entry producer="chain1" in="0:01:58.328" out="0:01:58.335"/>
    <entry producer="chain1" in="0:01:58.374" out="0:01:58.376"/>
    <entry producer="chain1" in="0:01:58.378" out="0:01:58.380"/>
    <entry producer="chain1" in="0:01:58.383" out="0:01:58.385"/>
    <entry producer="chain1" in="0:01:58.387" out="0:01:58.714"/>
    <entry producer="chain1" in="0:01:58.730" out="0:01:58.732"/>
    <entry producer="chain1" in="0:01:58.739" out="0:01:58.741"/>
    <entry producer="chain1" in="0:01:58.768" out="0:01:58.770"/>
    <entry producer="chain1" in="0:01:58.773" out="0:01:58.777"/>
    <entry producer="chain1" in="0:01:58.784" out="0:01:58.786"/>
    <entry producer="chain1" in="0:01:58.807" out="0:01:58.816"/>
    <entry producer="chain1" in="0:01:58.834" out="0:01:58.839"/>
    <entry producer="chain1" in="0:01:58.866" out="0:01:58.868"/>
    <entry producer="chain1" in="0:01:58.870" out="0:01:58.873"/>
    <entry producer="chain1" in="0:01:58.877" out="0:01:58.884"/>
    <entry producer="chain1" in="0:01:58.886" out="0:01:58.891"/>
    <entry producer="chain1" in="0:01:58.902" out="0:01:59.188"/>
    <entry producer="chain1" in="0:01:59.190" out="0:01:59.192"/>
    <entry producer="chain1" in="0:01:59.195" out="0:01:59.197"/>
    <entry producer="chain1" in="0:01:59.204" out="0:01:59.206"/>
    <entry producer="chain1" in="0:01:59.210" out="0:01:59.213"/>
    <entry producer="chain1" in="0:01:59.219" out="0:01:59.222"/>
    <entry producer="chain1" in="0:01:59.229" out="0:01:59.231"/>
    <entry producer="chain1" in="0:01:59.238" out="0:01:59.249"/>
    <entry producer="chain1" in="0:01:59.263" out="0:01:59.594"/>
    <entry producer="chain1" in="0:01:59.596" out="0:01:59.603"/>
    <entry producer="chain1" in="0:01:59.612" out="0:01:59.614"/>
    <entry producer="chain1" in="0:01:59.621" out="0:01:59.623"/>
    <entry producer="chain1" in="0:01:59.632" out="0:01:59.634"/>
    <entry producer="chain1" in="0:01:59.637" out="0:01:59.639"/>
    <entry producer="chain1" in="0:01:59.657" out="0:01:59.666"/>
    <entry producer="chain1" in="0:01:59.734" out="0:01:59.739"/>
    <entry producer="chain1" in="0:01:59.773" out="0:01:59.875"/>
    <entry producer="chain1" in="0:01:59.877" out="0:02:00.099"/>
    <entry producer="chain1" in="0:02:00.104" out="0:02:00.106"/>
    <entry producer="chain1" in="0:02:00.111" out="0:02:00.113"/>
    <entry producer="chain1" in="0:02:00.124" out="0:02:00.126"/>
    <entry producer="chain1" in="0:02:00.136" out="0:02:00.138"/>
    <entry producer="chain1" in="0:02:00.151" out="0:02:00.154"/>
    <entry producer="chain1" in="0:02:00.160" out="0:02:00.165"/>
    <entry producer="chain1" in="0:02:00.167" out="0:02:00.170"/>
    <entry producer="chain1" in="0:02:00.172" out="0:02:00.174"/>
    <entry producer="chain1" in="0:02:00.183" out="0:02:00.185"/>
    <entry producer="chain1" in="0:02:00.195" out="0:02:00.197"/>
    <entry producer="chain1" in="0:02:00.199" out="0:02:00.201"/>
    <entry producer="chain1" in="0:02:00.222" out="0:02:00.229"/>
    <entry producer="chain1" in="0:02:00.249" out="0:02:00.251"/>
    <entry producer="chain1" in="0:02:00.276" out="0:02:00.278"/>
    <entry producer="chain1" in="0:02:00.292" out="0:02:00.294"/>
    <entry producer="chain1" in="0:02:00.299" out="0:02:00.770"/>
    <entry producer="chain1" in="0:02:00.775" out="0:02:00.784"/>
    <entry producer="chain1" in="0:02:00.786" out="0:02:00.789"/>
    <entry producer="chain1" in="0:02:00.793" out="0:02:01.324"/>
    <entry producer="chain1" in="0:02:01.326" out="0:02:01.331"/>
    <entry producer="chain1" in="0:02:01.333" out="0:02:01.340"/>
    <entry producer="chain1" in="0:02:01.342" out="0:02:01.453"/>
    <entry producer="chain1" in="0:02:01.455" out="0:02:01.462"/>
    <entry producer="chain1" in="0:02:01.464" out="0:02:01.478"/>
    <entry producer="chain1" in="0:02:01.480" out="0:02:01.485"/>
    <entry producer="chain1" in="0:02:01.487" out="0:02:01.489"/>
    <entry producer="chain1" in="0:02:01.492" out="0:02:01.521"/>
    <entry producer="chain1" in="0:02:01.528" out="0:02:01.532"/>
    <entry producer="chain1" in="0:02:01.535" out="0:02:01.537"/>
    <entry producer="chain1" in="0:02:01.539" out="0:02:01.541"/>
    <entry producer="chain1" in="0:02:01.544" out="0:02:01.546"/>
    <entry producer="chain1" in="0:02:01.569" out="0:02:01.575"/>
    <entry producer="chain1" in="0:02:01.612" out="0:02:01.614"/>
    <entry producer="chain1" in="0:02:01.648" out="0:02:01.650"/>
    <entry producer="chain1" in="0:02:01.662" out="0:02:01.664"/>
    <entry producer="chain1" in="0:02:01.684" out="0:02:01.689"/>
    <entry producer="chain1" in="0:02:01.693" out="0:02:01.696"/>
    <entry producer="chain1" in="0:02:01.721" out="0:02:01.725"/>
    <entry producer="chain1" in="0:02:01.759" out="0:02:01.761"/>
    <entry producer="chain1" in="0:02:01.764" out="0:02:01.766"/>
    <entry producer="chain1" in="0:02:01.775" out="0:02:01.777"/>
    <entry producer="chain1" in="0:02:01.780" out="0:02:01.782"/>
    <entry producer="chain1" in="0:02:01.789" out="0:02:01.791"/>
    <entry producer="chain1" in="0:02:01.807" out="0:02:01.809"/>
    <entry producer="chain1" in="0:02:01.827" out="0:02:01.829"/>
    <entry producer="chain1" in="0:02:01.832" out="0:02:01.834"/>
    <entry producer="chain1" in="0:02:01.836" out="0:02:01.839"/>
    <entry producer="chain1" in="0:02:01.841" out="0:02:01.845"/>
    <entry producer="chain1" in="0:02:01.852" out="0:02:01.854"/>
    <entry producer="chain1" in="0:02:01.897" out="0:02:01.900"/>
    <entry producer="chain1" in="0:02:01.904" out="0:02:01.907"/>
    <entry producer="chain1" in="0:02:01.922" out="0:02:01.927"/>
    <entry producer="chain1" in="0:02:01.938" out="0:02:01.941"/>
    <entry producer="chain1" in="0:02:01.952" out="0:02:01.954"/>
    <entry producer="chain1" in="0:02:01.968" out="0:02:01.970"/>
    <entry producer="chain1" in="0:02:01.975" out="0:02:01.977"/>
    <entry producer="chain1" in="0:02:01.990" out="0:02:01.997"/>
    <entry producer="chain1" in="0:02:02.000" out="0:02:02.002"/>
    <entry producer="chain1" in="0:02:02.004" out="0:02:02.006"/>
    <entry producer="chain1" in="0:02:02.034" out="0:02:02.036"/>
    <entry producer="chain1" in="0:02:02.040" out="0:02:02.043"/>
    <entry producer="chain1" in="0:02:02.065" out="0:02:02.068"/>
    <entry producer="chain1" in="0:02:02.086" out="0:02:02.088"/>
    <entry producer="chain1" in="0:02:02.097" out="0:02:02.099"/>
    <entry producer="chain1" in="0:02:02.106" out="0:02:02.108"/>
    <entry producer="chain1" in="0:02:02.113" out="0:02:02.115"/>
    <entry producer="chain1" in="0:02:02.133" out="0:02:02.140"/>
    <entry producer="chain1" in="0:02:02.142" out="0:02:02.147"/>
    <entry producer="chain1" in="0:02:02.163" out="0:02:02.165"/>
    <entry producer="chain1" in="0:02:02.179" out="0:02:02.183"/>
    <entry producer="chain1" in="0:02:02.204" out="0:02:02.206"/>
    <entry producer="chain1" in="0:02:02.210" out="0:02:02.215"/>
    <entry producer="chain1" in="0:02:02.229" out="0:02:02.231"/>
    <entry producer="chain1" in="0:02:02.233" out="0:02:02.238"/>
    <entry producer="chain1" in="0:02:02.249" out="0:02:02.253"/>
    <entry producer="chain1" in="0:02:02.258" out="0:02:02.263"/>
    <entry producer="chain1" in="0:02:02.278" out="0:02:02.281"/>
    <entry producer="chain1" in="0:02:02.283" out="0:02:02.285"/>
    <entry producer="chain1" in="0:02:02.287" out="0:02:02.290"/>
    <entry producer="chain1" in="0:02:02.306" out="0:02:02.308"/>
    <entry producer="chain1" in="0:02:02.328" out="0:02:02.331"/>
    <entry producer="chain1" in="0:02:02.333" out="0:02:02.335"/>
    <entry producer="chain1" in="0:02:02.351" out="0:02:02.356"/>
    <entry producer="chain1" in="0:02:02.358" out="0:02:02.360"/>
    <entry producer="chain1" in="0:02:02.376" out="0:02:02.378"/>
    <entry producer="chain1" in="0:02:02.383" out="0:02:02.385"/>
    <entry producer="chain1" in="0:02:02.419" out="0:02:02.421"/>
    <entry producer="chain1" in="0:02:02.444" out="0:02:02.446"/>
    <entry producer="chain1" in="0:02:02.494" out="0:02:02.496"/>
    <entry producer="chain1" in="0:02:02.519" out="0:02:02.521"/>
    <entry producer="chain1" in="0:02:02.535" out="0:02:02.537"/>
    <entry producer="chain1" in="0:02:02.541" out="0:02:02.544"/>
    <entry producer="chain1" in="0:02:02.546" out="0:02:02.548"/>
    <entry producer="chain1" in="0:02:02.569" out="0:02:02.571"/>
    <entry producer="chain1" in="0:02:02.573" out="0:02:02.575"/>
    <entry producer="chain1" in="0:02:02.609" out="0:02:02.614"/>
    <entry producer="chain1" in="0:02:02.678" out="0:02:02.684"/>
    <entry producer="chain1" in="0:02:02.702" out="0:02:02.705"/>
    <entry producer="chain1" in="0:02:02.721" out="0:02:02.723"/>
    <entry producer="chain1" in="0:02:02.766" out="0:02:02.768"/>
    <entry producer="chain1" in="0:02:02.773" out="0:02:02.775"/>
    <entry producer="chain1" in="0:02:02.780" out="0:02:02.784"/>
    <entry producer="chain1" in="0:02:02.791" out="0:02:02.793"/>
    <entry producer="chain1" in="0:02:02.804" out="0:02:02.807"/>
    <entry producer="chain1" in="0:02:02.823" out="0:02:02.825"/>
    <entry producer="chain1" in="0:02:02.836" out="0:02:02.839"/>
    <entry producer="chain1" in="0:02:02.845" out="0:02:02.848"/>
    <entry producer="chain1" in="0:02:02.868" out="0:02:02.870"/>
    <entry producer="chain1" in="0:02:02.909" out="0:02:02.911"/>
    <entry producer="chain1" in="0:02:02.916" out="0:02:02.927"/>
    <entry producer="chain1" in="0:02:02.934" out="0:02:02.943"/>
    <entry producer="chain1" in="0:02:02.945" out="0:02:02.952"/>
    <entry producer="chain1" in="0:02:02.954" out="0:02:02.956"/>
    <entry producer="chain1" in="0:02:02.975" out="0:02:02.977"/>
    <entry producer="chain1" in="0:02:02.997" out="0:02:03.000"/>
    <entry producer="chain1" in="0:02:03.004" out="0:02:03.006"/>
    <entry producer="chain1" in="0:02:03.009" out="0:02:03.015"/>
    <entry producer="chain1" in="0:02:03.020" out="0:02:03.022"/>
    <entry producer="chain1" in="0:02:03.027" out="0:02:03.029"/>
    <entry producer="chain1" in="0:02:03.031" out="0:02:03.034"/>
    <entry producer="chain1" in="0:02:03.047" out="0:02:03.052"/>
    <entry producer="chain1" in="0:02:03.054" out="0:02:03.346"/>
    <entry producer="chain1" in="0:02:03.349" out="0:02:03.353"/>
    <entry producer="chain1" in="0:02:03.356" out="0:02:03.360"/>
    <entry producer="chain1" in="0:02:03.362" out="0:02:03.365"/>
    <entry producer="chain1" in="0:02:03.371" out="0:02:03.374"/>
    <entry producer="chain1" in="0:02:03.399" out="0:02:03.403"/>
    <entry producer="chain1" in="0:02:03.410" out="0:02:03.412"/>
    <entry producer="chain1" in="0:02:03.414" out="0:02:03.430"/>
    <entry producer="chain1" in="0:02:03.439" out="0:02:03.442"/>
    <entry producer="chain1" in="0:02:03.448" out="0:02:03.451"/>
    <entry producer="chain1" in="0:02:03.467" out="0:02:03.471"/>
    <entry producer="chain1" in="0:02:03.530" out="0:02:03.535"/>
    <entry producer="chain1" in="0:02:03.537" out="0:02:03.546"/>
    <entry producer="chain1" in="0:02:03.548" out="0:02:03.553"/>
    <entry producer="chain1" in="0:02:03.555" out="0:02:03.557"/>
    <entry producer="chain1" in="0:02:03.562" out="0:02:03.564"/>
    <entry producer="chain1" in="0:02:03.566" out="0:02:03.569"/>
    <entry producer="chain1" in="0:02:03.571" out="0:02:03.578"/>
    <entry producer="chain1" in="0:02:03.582" out="0:02:03.585"/>
    <entry producer="chain1" in="0:02:03.600" out="0:02:03.603"/>
    <entry producer="chain1" in="0:02:03.612" out="0:02:03.616"/>
    <entry producer="chain1" in="0:02:03.634" out="0:02:03.639"/>
    <entry producer="chain1" in="0:02:03.643" out="0:02:03.648"/>
    <entry producer="chain1" in="0:02:03.650" out="0:02:03.653"/>
    <entry producer="chain1" in="0:02:03.664" out="0:02:03.913"/>
    <entry producer="chain1" in="0:02:03.916" out="0:02:03.918"/>
    <entry producer="chain1" in="0:02:03.925" out="0:02:03.927"/>
    <entry producer="chain1" in="0:02:03.936" out="0:02:03.941"/>
    <entry producer="chain1" in="0:02:03.947" out="0:02:03.950"/>
    <entry producer="chain1" in="0:02:03.963" out="0:02:03.965"/>
    <entry producer="chain1" in="0:02:03.968" out="0:02:04.183"/>
    <entry producer="chain1" in="0:02:04.192" out="0:02:04.201"/>
    <entry producer="chain1" in="0:02:04.206" out="0:02:04.208"/>
    <entry producer="chain1" in="0:02:04.213" out="0:02:04.244"/>
    <entry producer="chain1" in="0:02:04.249" out="0:02:04.256"/>
    <entry producer="chain1" in="0:02:04.267" out="0:02:04.297"/>
    <entry producer="chain1" in="0:02:04.299" out="0:02:04.319"/>
    <entry producer="chain1" in="0:02:04.321" out="0:02:04.326"/>
    <entry producer="chain1" in="0:02:04.331" out="0:02:04.353"/>
    <entry producer="chain1" in="0:02:04.356" out="0:02:04.385"/>
    <entry producer="chain1" in="0:02:04.387" out="0:02:04.396"/>
    <entry producer="chain1" in="0:02:04.399" out="0:02:04.410"/>
    <entry producer="chain1" in="0:02:04.412" out="0:02:04.480"/>
    <entry producer="chain1" in="0:02:04.482" out="0:02:04.566"/>
    <entry producer="chain1" in="0:02:04.569" out="0:02:04.571"/>
    <entry producer="chain1" in="0:02:04.573" out="0:02:04.575"/>
    <entry producer="chain1" in="0:02:04.582" out="0:02:04.605"/>
    <entry producer="chain1" in="0:02:04.607" out="0:02:04.614"/>
    <entry producer="chain1" in="0:02:04.616" out="0:02:04.619"/>
    <entry producer="chain1" in="0:02:04.623" out="0:02:04.630"/>
    <entry producer="chain1" in="0:02:04.632" out="0:02:04.637"/>
    <entry producer="chain1" in="0:02:04.646" out="0:02:04.648"/>
    <entry producer="chain1" in="0:02:04.650" out="0:02:04.653"/>
    <entry producer="chain1" in="0:02:04.655" out="0:02:04.675"/>
    <entry producer="chain1" in="0:02:04.678" out="0:02:04.682"/>
    <entry producer="chain1" in="0:02:04.684" out="0:02:04.687"/>
    <entry producer="chain1" in="0:02:04.693" out="0:02:04.700"/>
    <entry producer="chain1" in="0:02:04.702" out="0:02:04.709"/>
    <entry producer="chain1" in="0:02:04.716" out="0:02:04.721"/>
    <entry producer="chain1" in="0:02:04.730" out="0:02:04.752"/>
    <entry producer="chain1" in="0:02:04.757" out="0:02:04.766"/>
    <entry producer="chain1" in="0:02:04.768" out="0:02:04.773"/>
    <entry producer="chain1" in="0:02:04.775" out="0:02:04.780"/>
    <entry producer="chain1" in="0:02:04.786" out="0:02:04.795"/>
    <entry producer="chain1" in="0:02:04.802" out="0:02:04.825"/>
    <entry producer="chain1" in="0:02:04.827" out="0:02:04.843"/>
    <entry producer="chain1" in="0:02:04.850" out="0:02:04.852"/>
    <entry producer="chain1" in="0:02:04.854" out="0:02:04.857"/>
    <entry producer="chain1" in="0:02:04.861" out="0:02:04.870"/>
    <entry producer="chain1" in="0:02:04.875" out="0:02:04.897"/>
    <entry producer="chain1" in="0:02:04.900" out="0:02:04.911"/>
    <entry producer="chain1" in="0:02:04.922" out="0:02:04.925"/>
    <entry producer="chain1" in="0:02:04.934" out="0:02:04.970"/>
    <entry producer="chain1" in="0:02:04.977" out="0:02:04.984"/>
    <entry producer="chain1" in="0:02:04.986" out="0:02:04.988"/>
    <entry producer="chain1" in="0:02:05.009" out="0:02:05.308"/>
    <entry producer="chain1" in="0:02:05.310" out="0:02:05.444"/>
    <entry producer="chain1" in="0:02:05.451" out="0:02:05.458"/>
    <entry producer="chain1" in="0:02:05.467" out="0:02:05.473"/>
    <entry producer="chain1" in="0:02:05.478" out="0:02:05.891"/>
    <entry producer="chain1" in="0:02:05.897" out="0:02:05.902"/>
    <entry producer="chain1" in="0:02:05.904" out="0:02:05.913"/>
    <entry producer="chain1" in="0:02:05.916" out="0:02:05.922"/>
    <entry producer="chain1" in="0:02:05.938" out="0:02:05.941"/>
    <entry producer="chain1" in="0:02:05.943" out="0:02:05.945"/>
    <entry producer="chain1" in="0:02:05.947" out="0:02:05.950"/>
    <entry producer="chain1" in="0:02:05.963" out="0:02:05.970"/>
    <entry producer="chain1" in="0:02:05.972" out="0:02:05.977"/>
    <entry producer="chain1" in="0:02:05.981" out="0:02:05.986"/>
    <entry producer="chain1" in="0:02:05.988" out="0:02:05.990"/>
    <entry producer="chain1" in="0:02:06.011" out="0:02:06.013"/>
    <entry producer="chain1" in="0:02:06.038" out="0:02:06.047"/>
    <entry producer="chain1" in="0:02:06.052" out="0:02:06.056"/>
    <entry producer="chain1" in="0:02:06.058" out="0:02:06.068"/>
    <entry producer="chain1" in="0:02:06.070" out="0:02:06.072"/>
    <entry producer="chain1" in="0:02:06.079" out="0:02:06.154"/>
    <entry producer="chain1" in="0:02:06.156" out="0:02:06.200"/>
</playlist>
</mlt>
